<svg transform="scale(1)" version="1.1" id="PZAkGhfCSO" xmlns="http://www.w3.org/2000/svg" xmlns:xlink="http://www.w3.org/1999/xlink" x="0px" y="0px" viewBox="0 0 500 500" xml:space="preserve" class="pbimage_pbimage__wrapper__image__0LEis false"><title>Empty Cart 3</title><style type="text/css"> .st0{fill:#000005;} .st1{fill:#FFFFFF;} .st2{fill:#59BE4C;}
 .st2{fill:#afb1af8e;}
 .st1{fill:#d0d0d07c;}
 .st0{fill:#ffffff69;}</style><g id="character"><path class="st0" d="M212.2,210.4c0,0,10.6-51.8,56-73.8s99.1,80.5,105.1,103.9c0,0-53.7,102.5-94.4,89.2S212.2,210.4,212.2,210.4z
		" fill="#ffffff69"></path><path class="st0" d="M214.4,211.2c0.7-3.1,1.5-6.1,2.6-9.1c0.5-1.5,1-3,1.6-4.5c-0.1,0.4,0.1-0.2,0.1-0.3s0.1-0.4,0.2-0.6
		c0.2-0.4,0.4-0.9,0.5-1.3c0.4-0.9,0.7-1.8,1.1-2.7c1.7-4,3.6-7.9,5.7-11.7c5-9.2,11.3-17.6,18.7-25c4.1-4.1,8.7-7.9,13.5-11.1
		c4.5-3,9.3-6,14.5-7.8l0.7-0.2c0.2-0.1,0,0-0.1,0l0.3-0.1c0.5-0.1,0.9-0.3,1.4-0.4c0.9-0.2,1.8-0.4,2.7-0.5s1.8-0.2,2.7-0.2h0.4
		c-0.2,0,0.4,0,0.5,0h1.4c1.8,0.1,3.6,0.3,5.3,0.7l0.7,0.1c-0.4-0.1,0.1,0,0.2,0.1l1.4,0.4c0.9,0.3,1.8,0.6,2.7,0.9s1.8,0.7,2.7,1.1
		l1.2,0.6l0.7,0.3c0.1,0.1,0.7,0.4,0.3,0.2c1.9,0.9,3.6,2,5.4,3.1s3.6,2.4,5.3,3.8c1.9,1.4,3.2,2.5,4.8,4
		c7.2,6.5,13.8,13.7,19.7,21.4c6,7.8,11.5,15.9,16.5,24.4c4.6,7.7,8.9,15.6,12.8,23.6c0.8,1.7,1.6,3.5,2.4,5.2
		c0.4,0.8,0.7,1.6,1,2.4l0.3,0.6c0.2,0.4-0.1-0.3,0,0.1s0.3,0.8,0.5,1.2c1.1,2.6,2.1,5.3,3,8c0.3,1,0.6,2,0.9,2.9l0.1-1.7
		c-1.7,3.3-3.6,6.6-5.5,9.8c-4.6,7.9-9.4,15.6-14.5,23.2c-6.3,9.4-13.1,18.5-20.6,27.1c-3.7,4.3-7.6,8.4-11.8,12.2
		c-3.8,3.5-7.8,6.8-12.1,9.6c-3.8,2.6-8,4.6-12.4,6.1c-0.3,0.1,0.3-0.1,0,0l-0.4,0.1l-0.7,0.2c-0.5,0.1-1,0.3-1.6,0.4
		c-1,0.2-2.1,0.4-3.1,0.5l-1.5,0.1c-0.1,0-0.9,0-0.3,0H286c-1,0-2-0.1-3-0.2c-0.5-0.1-1-0.1-1.4-0.2l-0.7-0.1
		c0.6,0.1-0.3-0.1-0.5-0.1c-1-0.3-2-0.6-3-1c-0.5-0.2-0.9-0.4-1.4-0.6l-0.7-0.3c-0.1,0-0.4-0.2,0,0l-0.4-0.2c-1-0.5-1.9-1.1-2.8-1.6
		s-1.9-1.3-2.9-2c-0.5-0.3-0.9-0.7-1.3-1c-0.2-0.2-0.5-0.4-0.7-0.5s-0.4-0.3,0,0l-0.4-0.4c-1.9-1.6-3.7-3.4-5.4-5.2
		c-3.6-3.9-6.8-8.1-9.7-12.5c-3.2-4.9-6.2-10-8.9-15.2c-5.5-10.5-10.3-21.4-14.4-32.5c-3.6-9.4-6.8-18.9-9.6-28.6
		c-1.5-5.1-3-10.2-4.3-15.3l-0.2-0.7c-0.7-2.8-5.2-2.4-4.4,0.7s1.6,6.1,2.4,9.1c2.2,7.6,4.5,15.2,7.1,22.8
		c3.4,10,7.2,19.9,11.4,29.7c4.3,10.1,9.4,19.9,15.2,29.3c5.3,8.4,11.5,16.5,19.2,22.9c6.4,5.3,14.2,9,22.7,8.7s16.5-4.4,23.4-9.2
		c8.2-5.7,15.4-12.9,22-20.4c7-8.1,13.6-16.5,19.6-25.3c5.1-7.3,9.9-14.9,14.5-22.6c2.5-4.2,5-8.5,7.3-12.9c0.2-0.3,0.3-0.6,0.5-0.9
		c0.6-1.2-0.1-2.7-0.5-3.9c-1-3-2.1-6-3.3-8.9c-3.6-8.6-7.7-16.9-12.2-25c-5.4-9.8-11.4-19.3-18-28.4c-6.5-9.3-13.9-17.9-22.1-25.7
		c-7.2-6.7-15.4-12.9-24.7-16.3c-8.3-3.1-17.4-3.5-25.6-0.1c-6.3,2.7-12.2,6.2-17.6,10.4c-5.3,4-10.1,8.5-14.4,13.5
		c-7.5,8.6-13.8,18.3-18.6,28.7c-3.1,6.6-5.6,13.4-7.5,20.4c-0.3,1-0.5,1.9-0.7,2.9C209.3,212.2,213.8,214.2,214.4,211.2z" fill="#ffffff69"></path><path class="st1" d="M136.6,265.2c0.4-0.3,0.7-0.6,1.1-0.9c10.9-7.8,67.9-18.8,81-12.8c12.9,5.9,97,87.1,99.4,99.6
		c-14.9,3.8-54.5,13.3-67,10.7C236.2,358.7,159.2,297.3,136.6,265.2z" fill="#d0d0d07c"></path><path class="st2" d="M138.3,266c0.5-0.5,1.1-0.9,1.7-1.2l0.7-0.4c0.3-0.2,0.2-0.1-0.1,0l0.5-0.2c1.4-0.7,2.8-1.3,4.3-1.8
		c0.9-0.3,1.7-0.6,2.6-0.9l2.5-0.8c0.6-0.2,2-0.6,2.9-0.9s2.1-0.6,3.1-0.9c9.7-2.5,19.5-4.5,29.4-5.8c4.6-0.6,9.2-1.1,13.9-1.4
		c2.1-0.1,4.2-0.2,6.3-0.2c1,0,1.9,0,2.9,0.1l1.2,0.1h0.2l0.7,0.1c1.5,0.1,2.9,0.4,4.3,0.7c0.1,0,0.3,0.1,0.4,0.1
		c0.4,0.1,0.1,0,0.1,0c0.3,0.1,0.5,0.2,0.8,0.3s0.6,0.3,0.9,0.4c0.6,0.4,1.3,0.8,1.9,1.2l0.6,0.4l0.3,0.2l1.3,0.9
		c4.8,3.6,9.3,7.5,13.8,11.5c6.2,5.5,12.3,11,18.3,16.7c6.8,6.4,13.4,12.9,20,19.4c6.4,6.3,12.6,12.7,18.8,19.3
		c5.1,5.4,10.1,10.9,14.8,16.6c1.7,2.1,3.4,4.2,5,6.4l0.5,0.6l0.4,0.5l0.3,0.5c0.1,0.2,0.3,0.4,0.4,0.6c0.4,0.7,0.8,1.4,1.2,2.1
		c0.2,0.5,0.4,1,0.5,1.6l2.3-2.7c-15.6,4-31.4,7.6-47.3,9.9c-3.6,0.5-7.2,0.9-10.9,1.1c-1.5,0.1-3.1,0.1-4.6,0c-1,0-2.1-0.2-3.1-0.4
		l-0.8-0.2c-0.5-0.1,0.4,0.2,0,0l-0.5-0.2c-0.8-0.3-1.5-0.6-2.2-1c-1.9-0.9-3.6-1.9-5.4-2.9c-11.5-6.8-22.1-15-32.6-23.2
		c-13.4-10.5-26.4-21.6-38.9-33.1c-10.8-10-21.5-20.4-30.6-32.1c-0.8-1.1-1.7-2.2-2.5-3.4c-1.2-1.7-5.6,0.6-4.1,2.6
		c8.2,11.7,18.6,21.9,29,31.7c12.5,12,25.5,23.3,39,34c11.1,8.9,22.5,17.6,34.6,25.2c3.4,2.3,7,4.2,10.8,5.7
		c5.1,1.8,11.1,1.1,16.4,0.6c16.8-1.7,33.3-5.6,49.7-9.6l4.1-1c1.2-0.3,2.6-1.2,2.3-2.7c-0.4-1.4-1-2.7-1.8-3.8
		c-1.3-2.1-2.7-4.1-4.3-6c-4.3-5.5-8.9-10.6-13.6-15.7c-6-6.5-12.2-12.9-18.5-19.2c-6.7-6.7-13.4-13.3-20.2-19.8
		c-6.3-6-12.7-11.9-19.2-17.8c-4.9-4.4-9.9-8.7-15.1-12.8c-3.3-2.6-6.6-5.2-10.8-6.1c-3.5-0.7-7-1-10.6-0.9
		c-4.6,0.1-9.1,0.3-13.6,0.9c-10.3,1.1-20.5,2.9-30.6,5.2c-7.7,1.8-15.8,3.8-22.9,7.3c-1.6,0.8-3.1,1.8-4.4,2.9
		c-0.8,0.7-1,1.9,0,2.4C136,267.2,137.4,266.9,138.3,266z" fill="#afb1af8e"></path><path class="st2" d="M136.6,265.2c22.6,32.1,99.7,93.5,114.5,96.6c12.5,2.6,52.1-6.9,67-10.7c0,0.2,0.1,0.4,0,0.6
		c0,0-25.4,72-39.2,81.9s-58.7,17.8-75.2,8.6s-101.5-95.5-99.5-107.3C106.1,323.4,125.4,275.4,136.6,265.2z" fill="#afb1af8e"></path><path class="st2" d="M134.2,264.7c8.3,11.8,18.9,22.1,29.3,32c12.6,11.9,25.7,23.2,39.3,34c11,8.8,22.3,17.5,34.3,24.9
		c3.7,2.4,7.6,4.5,11.7,6.1c5.6,2,11.7,1.5,17.5,0.9c8.7-1,17.4-2.4,26-4.2c8-1.6,16-3.5,23.9-5.4l4.1-1l-4.7-1.5
		c0,0.8-0.2,1.5-0.5,2.2c-0.6,1.6-1.2,3.2-1.8,4.9c-2,5.5-4.1,11-6.3,16.5c-5.6,14.1-11.4,28.3-18.5,41.7c-2.7,5-5.5,10.2-9.3,14.5
		s-9.5,6.5-14.7,8.3c-8.5,2.9-17.3,4.9-26.3,5.9c-8.5,1.1-17.4,1.6-25.9,0.1c-0.6-0.1-1.4-0.3-2.2-0.5c0,0-0.8-0.2-0.3-0.1l-0.7-0.2
		l-0.5-0.1c-0.3-0.1-0.3-0.1,0,0l-0.4-0.1c-1-0.3-2.1-0.8-3-1.4l-0.4-0.2c-0.3-0.2,0.3,0.2,0,0l-0.2-0.1l-1-0.6
		c-0.7-0.5-1.3-1-2-1.4c-3.8-2.9-7.4-6-11-9.2c-10.6-9.4-20.6-19.3-30.5-29.3c-10.8-11-21.4-22.2-31.6-33.8
		c-4.2-4.8-8.3-9.7-12.2-14.7c-2.9-3.6-5.5-7.4-7.8-11.3c-0.7-1.2-1.3-2.6-1.8-3.9c-0.3-1.1-0.2-2.2,0.1-3.2
		c1.5-6.1,3.4-12,5.8-17.8c3.1-8.1,6.5-16.1,10.2-23.9c3.2-7.1,7-14,11.2-20.6c1.4-2.2,3-4.2,4.9-6c0.3-0.3-2.1-1.2-2.3-1.2
		c-0.6-0.2-2-0.7-2.6-0.2c-2,1.9-3.7,4.1-5.1,6.4c-2.1,3.1-3.9,6.4-5.7,9.7c-4.1,7.7-7.8,15.7-11.2,23.8c-3,7.2-5.9,14.5-8.3,21.9
		c-0.8,2.4-1.5,4.8-2,7.2c-0.2,1-0.1,2.1,0.3,3.1c1.2,3.5,3.5,6.6,5.5,9.5c3.3,4.7,7,9.2,10.7,13.6c9.7,11.6,20.1,22.7,30.6,33.6
		s21.1,21.4,32.1,31.6c4.1,3.8,8.3,7.5,12.6,11.1c2.8,2.5,5.9,4.7,9.2,6.4c7.6,3.7,16.4,4.5,24.6,4.5c9.4-0.1,18.7-1.2,27.9-3.2
		c7.8-1.7,15.8-3.9,22.8-7.7c2-1.1,3.9-2.5,5.5-4.2c1.7-1.9,3.2-4,4.5-6.1c3.6-5.9,6.9-11.9,9.8-18.2c3.4-7.1,6.5-14.4,9.5-21.7
		c4.4-10.6,8.5-21.3,12.4-32.1c0.3-0.7,0.5-1.4,0.5-2.1c-0.1-0.6-1.5-1-1.9-1.1c-0.9-0.4-1.8-0.5-2.7-0.4c-15.5,3.9-31.2,7.6-47,9.8
		c-3.7,0.5-7.4,1-11.2,1.1c-1.5,0.1-2.9,0.1-4.4,0c-0.6,0-1.3-0.1-1.9-0.1c0.4,0-0.4-0.1-0.5-0.1c-0.6-0.1,0.2,0.1-0.3,0
		s0.4,0.1,0.2,0l-0.4-0.1c0.9,0.2,0.3,0.1,0.1,0s-0.7-0.3-0.3-0.1s-0.1,0-0.2-0.1l-0.5-0.2l-0.6-0.2l-0.4-0.2c-1.9-0.9-3.7-2-5.5-3
		c-11.3-6.8-22.1-15-32.5-23.2c-13.3-10.5-26.2-21.5-38.6-33c-10.7-9.9-21.3-20.2-30.2-31.8c-0.8-1.1-1.7-2.2-2.5-3.4
		c-0.5-0.8-2-1-2.9-1.2C135.9,264.5,133.8,264.1,134.2,264.7z" fill="#afb1af8e"></path><path class="st2" d="M246.7,296.6v46.2c0.2,1,0.7,2,1.3,2.8c0.1,0.2,1.4,1.7,1.4,1.2v-46.2c-0.2-1-0.7-2-1.3-2.8
		C248,297.6,246.7,296.1,246.7,296.6z" fill="#afb1af8e"></path><path class="st0" d="M275,141.2l-60-5.5c0,0-39.6-19.2-41.6-26.5c-2.7-9.9,3.4-26.5,22.1-40.7c17.9-13.6,35.8-25.4,72.4,1.4
		c5.5,4,41,18.4,43.1,25C314.6,106.1,305.4,131.6,275,141.2z" fill="#ffffff69"></path><path class="st1" d="M260.5,176.6c0,0-1.4-3.3-3.5-7.4s-4.5-5.3-17.9-0.6c-26.5,9.4-39.1-12.4-39.1-12.4s-2.6,2.7-8.9,4.8
		c-5.4,1.8-15.7-1.8-6.6-15.1c2.1-3.1,4.1-7,2.1-12.5c-2.6-7-6-12.2-10.6-24.8l5.3,2.7c14,7.2,30.6,7.9,45.2,1.9l0,0l0.8-1.2
		c16.5,20.2,37.5,20.6,37.5,20.6s6.5,6.4,10.2,8.7C275,141.2,278.6,172,260.5,176.6z" fill="#d0d0d07c"></path><path class="st0" d="M261.8,178.3c-1.1-2.8-2.4-5.5-3.9-8.1c-1.1-2-2.6-4.6-4.6-5.9c-1.6-0.8-3.5-1.1-5.3-0.7
		c-3.8,0.7-7.5,1.7-11.1,3.1c-6.5,2.4-13.6,2.7-20.3,1.1c-4.7-1.3-9-3.8-12.6-7.1c-0.7-0.7-1.5-1.5-2.1-2.1
		c-0.1-0.1-0.3-0.3-0.4-0.5s-0.5-0.6-0.3-0.4l-0.3-0.3c-0.3-0.4-0.2-0.3,0,0l-0.3-0.4c-0.2-0.3,0.4,0.6,0.1,0.1
		c-0.1-0.1-0.1-0.2-0.2-0.3c0-0.1,0.4,0.6,0.2,0.2s0.3,0.6,0,0c-0.1-0.2-2.1-3.2-2.3-3c-2.2,2.2-5.5,3.6-8.4,4.6
		c-2.4,0.9-5,0.8-7.3-0.4c-0.5-0.3-0.9-0.6-1.4-1c-0.5-0.4,1.6,3,1.2,1.6c-0.1-0.4-0.2-0.8-0.3-1.2c-0.1-1.9,0.2-3.8,1-5.4
		c1.9-4.4,5.5-7.8,5.4-12.9c-0.1-4-2.3-8-3.9-11.5c-1.9-4-3.7-8-5.4-12c-0.5-1.3-1-2.6-1.5-3.9c-0.1-0.4-0.2-0.7-0.4-1.1
		c-0.6-1.1-0.3-0.3-0.2-0.3s0.4,0.2,0.6,0.3l4,2c4.1,2.1,8.4,3.8,12.9,4.9c9.2,2.2,18.9,2,28-0.8c1.5-0.4,3-1,4.5-1.6
		c0.8-0.3,0.9-0.8,1.4-1.5l-0.9-0.9c9,10.9,21.3,19.2,35.5,21.2c1,0.1,1.9,0.2,2.9,0.3l-0.3-0.2c3.2,3.2,6.5,6.5,10.4,8.9l-2.8-4
		c0.4,3.6,0.4,7.2,0.1,10.8c-0.4,6.3-1.8,13.1-5.6,18.3c-2.2,3-5.4,5.2-9,6.2c-0.2,0,1.1,2,1.2,2.2s1.2,2,1.6,1.9
		c13.6-3.6,15.3-21.1,14.7-32.8c0-0.7-0.1-1.4-0.1-2.1c-0.2-1-0.6-1.9-1.3-2.6c-1.4-2.1-3.6-3.2-5.5-4.9c-1.6-1.4-3.2-2.8-4.8-4.3
		c-0.4-0.4-1-1.2-1.6-1.4c-0.5-0.1-0.9-0.1-1.4-0.1c-2.5-0.3-5-0.8-7.4-1.4c-10.9-3.1-20.5-9.4-27.7-18.1c0,0-0.8-1-0.9-0.9
		c-0.2,0.4-0.4,0.7-0.7,1.1c-0.6,0.4-1.4,0.8-2.1,0.9c-2,0.7-4.1,1.4-6.2,1.8c-12.5,2.9-25.6,1.3-36.9-4.5l-5.3-2.7
		c-0.1-0.1-0.1,0-0.1,0.1c2.2,6.1,4.9,11.9,7.6,17.8c1,2.2,2,4.4,2.9,6.6c1.3,3.2,1.2,6.8-0.2,9.9c-2.1,4.5-7.1,9.4-4.8,14.8
		c1.6,4,4.8,7.5,9.3,7.8c2.6,0.1,5.2-1,7.5-2.1c1.7-0.7,3.2-1.8,4.6-3l-2.3-3c3.5,6,8.5,11,14.6,14.3c5.1,2.7,10.9,3.8,16.7,3.3
		c3.9-0.4,7.7-1.3,11.4-2.7c3.2-1.3,6.6-2.1,10.1-2.5c1.1-0.1,2.1,0,3.2,0.3c0.4,0.1,0.7,0.3,1,0.5c0.1,0.1,0.2,0.2,0.4,0.3
		c0.4,0.2-0.2-0.2-0.3-0.4s-0.4-0.6-0.6-0.9s0.1,0.2-0.1-0.2l0.4,0.8c0.6,1.1,1.1,2.3,1.7,3.4s1.1,2.3,1.5,3.4c0.5,1,1.1,2,1.9,2.9
		C261.2,178,262.2,179.2,261.8,178.3z" fill="#ffffff69"></path><path class="st0" d="M197.2,129c0,0,0.4,3.7,3.9,2.9s2.6-5-0.6-5.3S197.2,129,197.2,129z" fill="#ffffff69"></path><path class="st0" d="M191.4,124.1c-2.6,1.6-5.8,1.3-8.6,0.1c-3.6-1.6-6.3-4.7-7.5-8.4c-1.4-4-2-8.5-0.5-12.6c1.5-3.6,4-6.6,7.2-8.7
		c4-2.7,8.8-4,13.5-5.2c0.4-0.1,2.4-0.6,2.3-1.3s-2.3-0.1-2.6,0c-9.3,2.4-20.5,5.7-24.8,15.2c-2.1,4.6-1.5,10,0.3,14.6
		c1.6,4.1,5,7.3,9.2,8.6c5.1,1.4,10.6,0.6,15.1-2.2c0.8-0.5,0.7-0.9-0.2-0.9C193.7,123.3,192.5,123.6,191.4,124.1L191.4,124.1z" fill="#ffffff69"></path><path class="st0" d="M174.9,136.1c-6.1-5.2-8.7-13.6-6.6-21.3c2-7.7,7.8-14.5,13.6-19.7c3.1-2.7,7-5.4,11.3-5.6
		c0.4,0,2.5-0.1,2.5-0.9s-2.2-0.6-2.5-0.6c-9.2,0.3-16.3,6.4-22,13.1c-5.5,6.5-10,14.9-8.2,23.6c1,4.7,3.5,8.9,7.1,12
		c0.8,0.6,2.2,0.5,3.1,0.4C173.4,137.2,175.5,136.7,174.9,136.1L174.9,136.1z" fill="#ffffff69"></path><path class="st0" d="M260.2,73.1c18.5-5.4,36.3,6.3,50.8,16.3c1.1,0.7,2.5,0.5,3.4-0.4c0.8-0.8,1.1-2.4,0.1-3.1
		c-12.7-8.7-26.3-17.7-42.2-18.4c-4.4-0.2-8.9,0.3-13.2,1.6c-1.2,0.4-2,1.6-1.8,2.9c0.4,1.1,1.6,1.7,2.7,1.3
		C260.2,73.1,260.2,73.1,260.2,73.1L260.2,73.1z" fill="#ffffff69"></path><path class="st1" d="M230.9,124.1c0,0-9.3-13.6,3.5-16.2s17.5,16.2,11.7,25" fill="#d0d0d07c"></path><path class="st0" d="M231.6,123.7l-0.2-0.4c-0.1-0.2-0.5-0.8,0,0l-0.4-0.7c-0.5-0.9-1-2-1.3-3c-0.9-2.9-0.7-6.1,2-8.1
		c3.1-2.2,7.9-2.6,11.1-0.4c0.3,0.2,0.5,0.4,0.8,0.6c0.2,0.2,0.4,0.4,0.6,0.5c0.1,0.2,0.7,0.9,0.5,0.6c0.1,0.2,0.3,0.4,0.4,0.6
		c-0.2-0.4,0.1,0.2,0.1,0.3c0.8,1.5,1.3,3.2,1.6,4.9c0.8,4.2,0.1,8.6-2.1,12.4c-0.7,1,2.3,4.9,3,3.8c5-7.8,2.3-19.8-4.2-25.9
		c-3.4-3.3-8.4-4.3-12.7-2.4c-4.1,1.7-5.1,5.4-4.3,9.5c0.7,3.1,2,6,3.8,8.6c0.3,0.4,1.4,2.1,2.1,1.6S231.8,124,231.6,123.7
		L231.6,123.7z" fill="#ffffff69"></path><path class="st0" d="M222.2,154.4c0-0.4,0.1-0.9,0.2-1.3l-0.1,0.4c0.3-2,0.8-3.9,1.6-5.7c0.1-0.4,0-0.9-0.3-1.2
		c-0.4-0.5-0.9-0.8-1.5-1.1c-0.6-0.2-1.2-0.3-1.8-0.2c-0.5,0-0.9,0.3-1.1,0.7c-0.9,2.4-1.6,4.9-1.8,7.4c0,0.4,0.5,1,0.8,1.2
		c0.5,0.4,1.1,0.7,1.7,0.8c0.5,0.1,1.1,0.1,1.6-0.1C221.9,155.1,222.2,154.8,222.2,154.4L222.2,154.4z" fill="#ffffff69"></path><path class="st1" d="M257.6,220.2c1.6-2.5,31.8-43.3,70.2-53.9s72.8,29.4,67.5,35.3s-24.3-9.4-29.6-11.5c0,0,19,30.6,3.2,28.3
		c0,0-2.3,11.8-12.6,5.7c0,0-0.1,7.5-9.1,5.4c-10.4-2.5-11.1-13-18.2-13.5c0,0-44.7,96.3-93.9,82.5s-21-88.3-21-88.3l38.4-7.2
		L257.6,220.2z" fill="#d0d0d07c"></path><path class="st0" d="M259.5,221.8c1.7-2.5,3.6-4.8,5.5-7.1c4.1-4.9,8.4-9.6,13-14.1c12.5-12.2,26.9-23.3,43.3-29.6
		c8.3-3.2,16.9-4.9,25.8-3.8c8,1.1,15.8,3.8,22.8,7.9c6.1,3.5,11.7,7.9,16.5,13c0,0,0.6,0.6,0.2,0.2l0.3,0.4l0.8,0.9
		c0.5,0.6,0.9,1.1,1.4,1.7c0.8,1,1.5,2,2.2,3c0.3,0.5,0.6,1,0.9,1.5c0.2,0.3-0.2-0.5,0.1,0.2l0.4,0.8c0.2,0.4,0.4,0.8,0.5,1.2
		c0.1,0.2,0.1,0.4,0.2,0.6c0.2,0.6-0.1-0.6,0,0.1c0,0.3,0.1,0.7,0.1,1s0-0.7,0-0.1c0,0.2,0,0.3,0,0.5c-0.1-0.5,0.2-0.5,0-0.1
		s0.2-0.5,0.1-0.2c-0.1,0.1-0.2,0.2-0.3,0.3c0.4-0.4-0.2,0.1-0.4,0.2s0.5-0.2,0,0l-0.3,0.1l-0.4,0.1c-0.3,0.1,0.5,0,0,0
		c-0.3,0-0.5,0-0.8,0h-0.5c-0.6,0,0.5,0.1-0.2,0c-1.3-0.2-2.6-0.6-3.9-1.1c-6.4-2.5-12-6.6-17.9-10.1c-0.8-0.5-1.7-1-2.6-1.4
		c-2.4-1-3.8,1.4-2.6,3.4c0.6,0.9,1.1,1.9,1.7,2.9c0,0.1,0.1,0.2,0.1,0.3c0.3,0.5-0.3-0.6,0,0l0.4,0.7c0.3,0.6,0.6,1.1,0.9,1.7
		c0.6,1.2,1.3,2.4,1.8,3.7c1.3,2.7,2.4,5.4,3.3,8.3l0.1,0.4c-0.1-0.5,0-0.1,0,0.1c0.1,0.3,0.2,0.6,0.2,1c0.1,0.6,0.3,1.3,0.3,1.9
		c0,0.3,0,0.6,0.1,0.9s0,0,0-0.1v0.5c0,0.2,0,0.5,0,0.7s-0.2,1,0,0.3c-0.1,0.3-0.2,0.5-0.2,0.8c-0.2,0.5,0.3-0.3-0.1,0.2
		c-0.2,0.2-0.6,0.6-0.1,0.2c-0.2,0.2-0.4,0.3-0.6,0.4c0.6-0.4,0,0-0.3,0.1l-0.4,0.1c-0.5,0.1,0.5,0,0,0c-0.4,0-0.7,0.1-1,0.1h-0.4
		c-0.2,0-0.3,0,0,0l-0.4-0.1c-1.1-0.2-2.2,0.5-2.5,1.6c0,0.1,0,0.1,0,0.2c0,0.2,0.2-0.7,0-0.1c-0.1,0.4-0.2,0.8-0.4,1.2
		c-0.2,0.5-0.4,1-0.6,1.5c-0.2,0.4,0.1-0.2,0,0s-0.2,0.3-0.3,0.4s-0.4,0.5-0.6,0.8s-0.7,0.8-0.3,0.4c-0.3,0.3-0.6,0.5-0.9,0.7
		l-0.4,0.2c-0.2,0.1,0.3-0.1-0.1,0l-0.6,0.2c-0.1,0-0.7,0.2-0.2,0.1c-1.8,0.3-3.5-0.4-5.2-1.4c-1-0.6-2.3-0.2-2.8,0.8
		c-0.1,0.3-0.2,0.6-0.3,0.9c0,0.3-0.1,0.6-0.1,0.8c0,0.5,0.1-0.3,0,0c0,0.1-0.1,0.3-0.1,0.4s-0.5,1.2-0.2,0.7
		c-0.2,0.4-0.5,0.7-0.8,1c-0.2,0.2,0.3-0.2,0,0c-0.1,0.1-0.1,0.1-0.2,0.2s-0.7,0.4-0.6,0.4c-0.9,0.4-2,0.5-3,0.4
		c-3-0.3-5.7-1.7-7.8-3.8c-0.4-0.4-0.8-0.8-1.1-1.2c-0.4-0.5-0.9-1-1.3-1.5c-0.8-1-1.6-2-2.4-3c-2.1-2.4-4.5-4.1-7.8-4.4
		c-0.8,0-1.5,0.5-1.8,1.3c-1.2,2.6-2.6,5.2-3.9,7.8l-1,1.9l-0.3,0.5c-0.2,0.4,0.1-0.2-0.1,0.1s-0.4,0.7-0.6,1.1
		c-0.8,1.5-1.7,3.1-2.5,4.6c-2,3.5-4.1,7-6.3,10.5c-5.1,8.2-10.7,16-16.8,23.5c-6.1,7.7-13.1,14.6-20.8,20.7c-1.9,1.4-3.8,2.8-5.8,4
		c-1.9,1.2-3.8,2.2-5.7,3.2c-2,1-4,1.8-6.1,2.5c-1,0.3-2,0.6-3,0.9c-0.5,0.1-1,0.3-1.5,0.4l-0.8,0.2l-0.5,0.1
		c-8.9,1.6-18.1-0.2-25.7-5c-0.9-0.5-1.7-1.1-2.5-1.7c-0.9-0.7-1.7-1.4-2.5-2.1c-0.4-0.4-0.8-0.7-1.1-1.1c-0.2-0.2-0.4-0.4-0.6-0.6
		s0.3,0.3,0,0l-0.3-0.3c-0.7-0.8-1.4-1.7-2-2.5s-1.2-1.7-1.7-2.6l-0.4-0.7c-0.3-0.5,0.1,0.1-0.2-0.3s-0.5-1-0.8-1.5
		c-0.9-1.9-1.7-3.9-2.4-5.9c-0.2-0.5-0.3-1-0.5-1.5c0-0.1-0.1-0.5,0,0l-0.1-0.3c-0.1-0.3-0.1-0.6-0.2-0.9c-0.3-1.1-0.5-2.1-0.7-3.2
		c-0.4-2.1-0.7-4.3-0.9-6.5c-0.2-2.4-0.3-4-0.3-6.2s0.1-4.4,0.2-6.6c0.3-4.2,0.8-8.3,1.5-12.4c0.3-1.9,0.7-3.8,1.1-5.8l0.3-1.2
		c0-0.2,0.1-0.7,0.1-0.2c0.1-0.2,0.1-0.5,0.2-0.7c0.2-0.8,0.4-1.7,0.6-2.5c1.1-4.3,2.3-8.5,3.8-12.7c0.1-0.2,0.1-0.4,0.2-0.6
		l-1.2,1.2l33.6-6.3l4.8-0.9l-3-1.6l5.1,17.3c0.5,1.2,1.7,1.9,3,1.6c1.3-0.4,1.5-1.8,1.2-3l-5.1-17.3c-0.5-1.2-1.7-1.9-3-1.6
		l-24.8,4.6l-12.5,2.3c-1.1,0.2-1.9,0.2-2.4,1.5c-0.2,0.4-0.3,0.9-0.5,1.3c-2.2,6.4-4,13-5.3,19.7c-2,10.2-3.1,20.8-2,31.2
		c1.1,10.9,4.9,21.6,12.7,29.4c8.5,8.2,20.1,12.3,31.9,11.3c11.3-1,21.6-6.7,30.3-13.7c9.6-7.6,17.8-17,25.2-26.7
		c6.5-8.8,12.5-18,17.9-27.5c3-5.3,6-10.8,8.6-16.3l0.4-0.8l-1.8,1.3c0.2,0,0.4,0.1,0.6,0.1l0.4,0.1c-0.1,0-0.4-0.2,0,0
		c0.3,0.1,0.5,0.2,0.8,0.4c0,0,0.3,0.2,0.1,0.1s0.2,0.2,0.3,0.2c0.5,0.4,0.9,0.8,1.3,1.2c-0.4-0.4,0.2,0.3,0.3,0.4l0.6,0.8
		c1.8,2.5,3.8,4.7,6,6.7c4.4,3.5,13.4,6.6,17.3,0.7c0.9-1.3,1.4-2.9,1.5-4.4l-3.1,1.6c4.2,2.4,9.1,3,12.6-0.9c1.6-1.8,2.6-4.1,3-6.4
		l-2.5,1.8c2.8,0.4,5.9,0.1,7.6-2.4c1.5-2.3,1.3-5.3,0.8-7.9c-1.2-6-4.1-11.8-7-17.1c-0.8-1.5-1.7-3.1-2.6-4.5l-2.7,3.4
		c2.4,1.2,4.8,2.5,7,4.1c3.2,2,6.4,4,9.8,5.8c3,1.6,6.4,3,9.8,3.3c2.4,0.2,5.3-0.7,6.3-3.1c0.7-1.8,0.2-3.8-0.5-5.5
		c-0.9-2.3-2.2-4.4-3.7-6.4c-4.1-5.5-9-10.3-14.6-14.3c-14.3-10.5-32.2-16.4-49.9-12.5c-9.4,2.1-18.5,6.4-26.7,11.4
		c-7.8,4.8-15.2,10.4-22,16.6c-9,7.9-17.1,16.8-24.2,26.4c-0.2,0.3-0.4,0.6-0.6,0.8C254.2,221,257.9,224.3,259.5,221.8z" fill="#ffffff69"></path><path class="st0" d="M345.9,188.4c0.6,0.5,1.2,1,1.8,1.5s0.3,0.2,0.7,0.6s0.8,0.7,1.1,1c0.8,0.8,1.6,1.6,2.4,2.4
		c4.2,4.2,7.7,9,10.4,14.3c1.6,3.2,2.6,6.6,2.9,10.2c0.1,1.1,1.4,1.6,2.4,1.7c0.7,0,2.7-0.2,2.6-1.3c-0.9-11.9-9.3-22.2-17.8-29.9
		c-0.9-0.8-1.8-1.6-2.7-2.3c-1-0.7-2.4-0.8-3.5-0.3c-0.6,0.2-0.9,0.9-0.7,1.5C345.4,188,345.6,188.2,345.9,188.4L345.9,188.4z" fill="#ffffff69"></path><path class="st0" d="M332.6,194.5c2.4,1.8,4.6,3.8,6.7,5.9c4.5,4.2,8.3,9.1,11.4,14.5c1.7,3.1,2.8,6.5,3.3,10
		c0.1,0.5,4.9-0.5,4.8-1.6c-0.7-6.4-4.1-12.2-8.1-17.2c-3.3-4.1-7-7.9-11.1-11.3c-0.8-0.7-1.7-1.4-2.5-2c-0.6-0.5-2.4,0.3-3,0.6
		C333.8,193.5,332.1,194.1,332.6,194.5L332.6,194.5z" fill="#ffffff69"></path><path class="st1" d="M188.2,324c0,0,57.7-95.9,60.8-101.5s8.4-19.8,4.2-19.3s-77.9,106-78.8,109.8S188.2,324,188.2,324z" fill="#d0d0d07c"></path><path class="st2" d="M190.2,324.1c2.8-4.7,5.6-9.3,8.4-14c6.4-10.6,12.7-21.2,19.1-31.8c6.8-11.3,13.5-22.6,20.3-33.9
		c4.1-6.9,8.3-13.8,12.3-20.7c2.8-4.8,4.9-10,6.2-15.4c0.5-2.1,1.5-6.4-1.8-6.8c-1.5-0.1-3,0.5-4.1,1.6c-1.9,1.9-3.7,3.9-5.3,6
		c-2.7,3.4-5.4,6.9-8,10.4c-7.4,9.9-14.7,20-21.9,30.1c-7.8,10.9-15.5,21.9-23.1,32.9c-5.6,8.1-11.2,16.2-16.5,24.4
		c-1.3,1.9-2.5,3.8-3.6,5.8c-0.7,1.5,0.1,2.9,1.1,4.1c2.1,2.4,5.1,4.1,7.8,5.7c1.7,1,3.4,1.9,5.2,2.8c1.6,0.8,5.6-2,3.4-3.1
		c-1.7-0.8-3.4-1.8-5.1-2.8c-2.5-1.5-5.6-3.2-7.4-5.6c-0.3-0.4-0.5-0.8-0.6-1.2c0.1,0.3,0-0.2,0-0.3s-0.1,0.4,0,0.1
		c0.1-0.2,0.2-0.4,0.3-0.6c0.1-0.1,0.1-0.3,0.2-0.4c0.2-0.3-0.3,0.5-0.1,0.1c0-0.1,0.1-0.2,0.2-0.3c0.3-0.5,0.5-0.9,0.8-1.3
		c4.4-7,9.2-13.9,13.9-20.7c7.2-10.5,14.5-20.9,21.8-31.3c7.4-10.5,14.9-20.9,22.4-31.2c5.1-6.9,10.2-14,15.8-20.6l1.1-1.3
		c-0.6,0.6,0,0,0.2-0.2s0.3-0.3,0.4-0.4l0.3-0.3c0.4-0.4-0.5,0.3-0.1,0.1s-0.7,0.4-0.4,0.2c-0.4,0.2-0.9,0.3-1.3,0.3
		c-0.3,0-0.3-0.2-0.2,0c-0.2-0.4,0.1,0.2,0.1,0.3c0,0.2,0.1,0.4,0.1,0.5c0,0.7,0,1.3-0.1,2c-0.3,1.8-0.8,3.5-1.3,5.1
		c-1.1,3.4-2.5,6.7-4.2,9.9l-0.2,0.3c-0.2,0.4,0.3-0.4,0,0.1l-0.7,1.2l-2.1,3.6c-2.2,3.7-4.4,7.5-6.7,11.2
		c-6.4,10.7-12.8,21.3-19.2,32c-6.6,11-13.2,21.9-19.7,32.8c-3.8,6.3-7.6,12.7-11.4,19l-0.5,0.9
		C184.7,326.3,189.3,325.7,190.2,324.1z" fill="#afb1af8e"></path><path class="st2" d="M184.9,311.6c0,0-2.6,0.5-2.4,2.6s2.4,3.2,3.7,1.4S187.5,311.7,184.9,311.6z" fill="#afb1af8e"></path><path class="st2" d="M184.6,316.9c-0.2,0-0.4,0-0.6-0.1c-1.2-0.4-1.9-1.4-2-2.6c-0.2-2,1.8-2.9,2.8-3.1h0.1c1-0.1,1.9,0.4,2.4,1.3
		c0.4,0.9,0.2,2.2-0.7,3.5C186.1,316.5,185.4,316.9,184.6,316.9z M184.9,312.1c-0.4,0.1-2.1,0.6-2,2c0,0.8,0.5,1.5,1.3,1.8
		c0.6,0.1,1.2-0.1,1.5-0.6c0.6-0.7,0.8-1.6,0.7-2.4C186,312.3,185.5,312,184.9,312.1L184.9,312.1z" fill="#afb1af8e"></path><path class="st1" d="M221.8,358.6c0,0,41.1-144.2,37-145.7s-13.7,13.2-13.7,13.2S202,336.9,205.4,347.5S221.8,358.6,221.8,358.6z" fill="#d0d0d07c"></path><path class="st2" d="M224.2,358.8c1.4-5,2.8-10,4.2-15c3.3-11.9,6.6-23.7,9.9-35.6c3.9-14.3,7.8-28.6,11.5-42.9
		c3.1-12,6.2-24,9-36.1c0.9-3.9,1.7-7.8,2.3-11.7c0.2-1.3,1-4.2-0.2-5.3s-3.5-0.8-4.9-0.3c-1.5,0.6-2.9,1.4-4,2.6
		c-2.7,2.6-5.1,5.4-7.2,8.5c-0.8,1-1.5,2-2.1,3.1c-0.3,0.6-0.5,1.4-0.8,2c-3.5,9-6.9,18-10.2,27c-5.3,14.1-10.4,28.3-15.3,42.5
		c-4.3,12.3-8.5,24.8-11.7,37.4c-0.9,3.5-1.9,7.3-1.9,10.9c0.2,2.4,1.1,4.7,2.7,6.5c2.6,3,6,5.2,9.9,6.3c1.9,0.6,4,1,6,1.1
		C222.2,359.9,223.9,359.9,224.2,358.8c0.5-1.1-1-1.5-1.7-1.5c-0.5,0-1.1-0.1-1.6-0.2c-0.5-0.1,0.6,0.1,0,0l-0.5-0.1
		c-0.3,0-0.6-0.1-0.9-0.2c-0.6-0.1-1.6-0.4-1.9-0.5c-3.6-1.1-6.7-3.5-8.7-6.8c-0.9-1.4-1.3-3-1.2-4.6c0.1-1.6,0.3-3.2,0.7-4.7
		c0.9-4.5,2.3-9.6,3.7-14.2c1.9-6.4,3.9-12.7,6-19c4.7-14.2,9.8-28.2,15-42.2c3.9-10.7,7.9-21.4,12-32.1c0.8-2.1,1.5-4.2,2.4-6.2
		c0.5-0.9,1.1-1.8,1.8-2.7c2-2.9,4.3-5.6,6.8-8c0.5-0.4,0.9-0.8,1.5-1.2c0.3-0.2,0.6-0.4,0.9-0.6c-0.1,0-0.4,0.2,0,0
		c0.5-0.3-0.1,0,0.1,0c-0.9,0.1-1.5,0.1-2-0.6c0.2,0.3,0-0.1,0-0.1c0.1,0.7,0.1,1.4,0,2.1c-0.4,3.1-0.9,6.1-1.6,9.1
		c-2.4,11.1-5.2,22.2-8,33.2c-3.6,13.9-7.3,27.8-11.1,41.7c-3.4,12.5-6.9,25-10.4,37.5c-1.9,6.8-3.8,13.7-5.8,20.5l-0.3,1
		C218.8,360.3,223.8,360.5,224.2,358.8z" fill="#afb1af8e"></path><path class="st2" d="M214.1,343.5c0,0-2.6,0.5-2.4,2.6s2.4,3.2,3.7,1.4S216.7,343.7,214.1,343.5z" fill="#afb1af8e"></path><path class="st2" d="M213.8,348.9c-0.2,0-0.4,0-0.6-0.1c-1.2-0.4-2-1.4-2-2.7c-0.2-2,1.8-2.9,2.8-3.1h0.1c1-0.1,1.9,0.4,2.4,1.3
		c0.4,0.9,0.2,2.2-0.7,3.5C215.4,348.5,214.6,348.9,213.8,348.9z M214.1,344.1c-0.4,0.1-2.1,0.6-2,2c0,0.8,0.6,1.5,1.3,1.8
		c0.6,0.1,1.2-0.1,1.5-0.7c0.6-0.7,0.9-1.6,0.7-2.4C215.2,344.3,214.7,344,214.1,344.1L214.1,344.1z" fill="#afb1af8e"></path><path class="st1" d="M338.9,295.1c0,0-56.1-4-62,1.6s17.3,11.9,17.3,11.9s-27.9,28.3-28,38.7s17-3.4,17-3.4s-7,19.1-1,23.5
		s11.8-16.5,14.5-21.1c0,0-3.2,22.5,4,20s6.8-13.7,9.3-17.2s11,3.5,23-1.4c10.7-4.3,10.3-12.7,10.3-12.7s37.5,17,47.7-12
		c5.9-16.9-18.7-85.1-18.7-85.1l-48.5,19.6L338.9,295.1z" fill="#d0d0d07c"></path><path class="st0" d="M338.2,293.5c-11.6-0.8-23.3-1.3-34.9-1.4c-7.3,0-14.8-0.1-22.1,1.1c-2,0.4-4.5,0.7-6.2,2.1
		c-2.5,2-1.3,4.9,0.7,6.7c3,2.8,7.1,4.4,10.9,5.7c2.5,0.9,5,1.8,7.6,2.4l-2.1-2.8c-6.9,6.9-13.2,14.2-19.1,21.9
		c-2,2.6-3.8,5.3-5.5,8.1c-1.4,2.1-2.4,4.4-3.2,6.7c-0.6,2.2-0.7,4.9,1,6.7c2,2.3,5.2,2.4,8,1.5c4.4-1.3,8.5-4.3,12.1-7.1l-4.4-2.2
		c-0.9,2.5-1.6,5.1-2.2,7.7c-1,4.3-1.9,9-0.7,13.3c1,3.7,5.3,7.2,9.1,5.1c1.5-1,2.8-2.3,3.7-3.9c1.1-1.8,2.2-3.8,3-5.8
		c1-2.3,2-4.7,3-7.1c0.6-1.8,1.4-3.5,2.3-5.1l-4.7-1.5c-0.6,4.2-0.8,8.4-0.6,12.6c0.1,2.4,0.4,5.3,1.9,7.3c1.9,2.6,5.5,3.2,8.2,1.5
		c3.2-1.9,4.7-5.4,5.7-8.8c0.5-1.6,0.8-3.2,1.3-4.8c0.2-0.7,0.4-1.4,0.7-2.1c0.2-0.5,0.4-0.9,0.7-1.3c0.2-0.2,0.4-0.3,0.3-0.2
		c0.1-0.1,0.2-0.1,0.3-0.1l0,0c0.1,0,0.3,0,0.4,0c0.3,0-0.5,0,0,0c0.3,0,0.6,0,1,0.1c0,0,0.7,0.1,0.2,0l0.5,0.1l1.2,0.2
		c0.9,0.2,1.8,0.4,2.7,0.5c4.8,0.9,9.8,0.6,14.5-0.9c5.8-2,12.5-7.2,12.3-14.1l-2.9,0.8c6.6,2.9,13.6,4.6,20.7,5.1
		c5.5,0.4,11.4-0.1,16.5-2.4c5.7-2.6,10.1-7.2,12.5-13c1.7-4.1,2-8.3,1.7-12.7c-0.4-5.6-1.2-11.2-2.5-16.6c-2.6-12.5-6.1-24.8-10-37
		c-1.5-4.7-3-9.4-4.6-14.1c-0.8-2.4-1.6-4.8-2.5-7.1c0-0.1-0.1-0.2-0.1-0.3c-0.8-1.4-2.4-2.1-4-1.7l-16.3,6.6L328,253.5l-6,2.5
		c-0.5,0.2-0.8,0.8-0.6,1.3c0,0,0,0.1,0,0.1l13.3,32.9l1.9,4.7c0.6,1.1,1.8,1.8,3,1.8c0.9,0,2-0.4,1.6-1.5l-13.3-32.9l-1.9-4.7
		l-0.6,1.4l16.4-6.6l26.2-10.5l6-2.4l-4-1.7c2,5.6,3.9,11.3,5.8,17c3.7,11.6,7.2,23.3,10,35.2c1.4,5.7,2.5,11.4,3.2,17.2
		c0.3,2.4,0.5,4.8,0.6,7.2c0,1,0,2.1,0,3.1c0,0.5-0.1,0.9-0.1,1.4c0,0.2,0,0.4-0.1,0.6s-0.1,0.7-0.1,0.5c-1.1,5.5-4.2,10.4-8.7,13.8
		c-2.1,1.6-4.5,2.7-7,3.4c-2.4,0.7-4.9,1-7.3,1.1c-2.6,0-5.1-0.1-7.7-0.5c-0.1,0-0.6-0.1-0.1,0l-0.4-0.1l-0.8-0.1
		c-0.6-0.1-1.2-0.2-1.8-0.4c-1.1-0.2-2.2-0.5-3.3-0.8s-1.9-0.5-2.9-0.9l-0.6-0.2c-0.4-0.1,0.5,0.2-0.1,0l-1.2-0.4
		c-1-0.4-2-0.7-3-1.1l-0.4-0.2c-0.8-0.4-3-0.7-2.9,0.8c0,0.4,0,0.8-0.1,1.1c0,0.3,0-0.1,0,0.3c0,0.2-0.1,0.4-0.2,0.7
		c-0.2,0.6-0.3,1.1-0.6,1.6c-1.4,3.1-3.9,5.7-7,7.1c-4.1,2.1-8.7,2.9-13.3,2.3c-2.9-0.4-6.1-1.6-9.1-1.2c-2.9,0.4-3.7,2.7-4.4,5.2
		c-0.9,3.2-1.5,6.5-3.1,9.4c-0.7,1.3-1.7,2.4-2.9,3.2c-0.4,0.2-0.7,0.4-1.1,0.5c-0.5,0.2,0.1,0-0.4,0.1c-0.2,0-0.1-0.1,0.2,0
		c-0.3-0.1,0.2,0,0.2,0.1c-0.5-0.1,0.5,0.2,0.2,0.1l0.4,0.2c0.4,0.3,0,0,0,0s0.3,0.4,0.1,0.1l-0.3-0.4c0.3,0.4-0.1-0.3-0.1-0.4
		c-0.1-0.3-0.2-0.5-0.3-0.8c-0.3-1.1-0.5-2.1-0.5-3.2c-0.3-4.5-0.1-9.1,0.6-13.6c0.3-1.8-3.8-3.1-4.7-1.5c-1.7,2.9-2.7,6.2-4,9.3
		c-1.5,3.4-3,7.4-5.5,10.2c-0.4,0.5-0.9,0.9-1.5,1.3c0.2-0.1-0.4,0.2-0.6,0.2c0.4-0.2,0.1,0-0.1,0c0.1,0,0.6,0.1,0.4,0
		c0.7,0.2,0.3,0.1,0.1,0c-0.3-0.1,0.6,0.2,0.1,0c0.4,0.1,0.1,0.2-0.1-0.1c-0.4-0.5,0.2,0.4-0.1-0.1c-0.4-0.6-0.7-1.2-0.8-1.9
		c-1-3.6-0.1-7.8,0.7-11.4c0.6-2.7,1.4-5.4,2.3-8c0.7-1.9-3.1-3.2-4.4-2.2c-2.8,2.3-5.8,4.3-9.1,5.8c-0.5,0.2-1.1,0.5-1.6,0.6
		c-0.4,0.2-0.9,0.3-1.4,0.4c-0.2,0-0.4,0.1-0.6,0.1c0.5,0,0,0-0.2,0c0.6,0.1,0.3,0.1,0.2,0c-0.4-0.1,0.2,0.1,0.2,0.1
		c-0.4-0.2,0.6,0.4,0.3,0.2s0,0,0.1,0.1s-0.2-0.4-0.1-0.1s-0.1-0.4-0.2-0.4c-0.1-0.5-0.2-1.1-0.1-1.6c0-0.8,0.2-1.5,0.4-2.3
		c1.6-5,5-9.6,8.2-13.8c3.7-4.9,7.8-9.6,11.9-14.2c2.3-2.6,4.7-5.1,7.1-7.6c1.2-1.2-1.2-2.6-2.1-2.8l-1.6-0.5
		c-0.5-0.2-1.1-0.3-1.6-0.5l-0.4-0.1h-0.1l-1.2-0.4c-1.7-0.6-3.3-1.2-4.9-1.9l-1-0.5l-0.6-0.3c-0.1,0-0.7-0.4-0.2-0.1
		c-0.7-0.4-1.5-0.8-2.2-1.3c-0.1-0.1-0.9-0.7-0.4-0.3c-0.3-0.2-0.5-0.4-0.8-0.7c-0.5-0.4,0.1,0.2-0.2-0.3l-0.2-0.4
		c0.3,0.4,0,0-0.1-0.2c-0.1-0.2-0.1-0.5-0.1-0.7c0.1-0.4,0.4-0.8,0.8-1.1c0.1-0.1,0.2-0.2,0.3-0.2c0.3-0.2-0.4,0.2-0.1,0
		c0.1-0.1,0.2-0.1,0.3-0.1c0.4-0.2,0.8-0.3,1.2-0.5l0.6-0.2c0.1,0,0.5-0.1,0,0l0.4-0.1c0.6-0.1,1.2-0.2,1.8-0.4
		c6.8-1.1,13.4-1.1,20.2-1.1c7.6,0,15.3,0.3,22.9,0.6c4.2,0.2,8.5,0.4,12.8,0.7c0.9,0.1,2-0.4,1.6-1.5S339.3,293.5,338.2,293.5z" fill="#ffffff69"></path><path class="st0" d="M284.7,347.2c1.3-4,3-7.8,5.1-11.5c0.5-1,1.3-1.9,2.1-2.7c0.8-0.6-0.2-2.2-0.7-2.7s-1.8-1.8-2.6-1.1
		c-0.8,0.8-1.5,1.6-2.1,2.6c-0.7,1.2-1.4,2.4-2,3.6c-1.1,2.3-2.1,4.6-3,7c-0.2,0.5-0.4,1-0.6,1.5c-0.4,1,0.6,2.3,1.3,2.9
		C282.8,347.3,284.3,348.3,284.7,347.2L284.7,347.2z" fill="#ffffff69"></path><path class="st0" d="M296.7,334.2l-3,12.8l-0.4,1.8c-0.4,1.6,3.5,4.5,3.9,2.9l3-12.8l0.4-1.8C301,335.5,297,332.6,296.7,334.2
		L296.7,334.2z" fill="#ffffff69"></path><path class="st0" d="M367.4,297.8c-1.2-0.1-2.4-0.2-3.6-0.5c-2.2-0.4-4.5-0.8-6.7-1.1c-4.9-0.9-9.8-1.8-14.7-2.6
		c-1.4-0.3-2.9-0.5-4.4-0.6c-2.4,0,0.2,4.1,1.8,4.1c1.2,0.1,2.4,0.2,3.6,0.5c2.2,0.4,4.5,0.8,6.7,1.1c4.9,0.9,9.8,1.8,14.7,2.6
		c1.5,0.3,2.9,0.5,4.4,0.6C371.6,302,369.1,297.9,367.4,297.8L367.4,297.8z" fill="#ffffff69"></path><path class="st1" d="M124.5,337.9c12.1-5.2,24-10.8,35.7-16.8c2-1-1.1-4.9-2.7-4.1c-11.7,6-23.6,11.6-35.7,16.8
		C119.8,334.7,122.8,338.6,124.5,337.9L124.5,337.9z" fill="#d0d0d07c"></path><path class="st1" d="M129,319.1c9.5-4.2,19-8.2,28.7-11.9c1-0.4-1.6-4.5-3.2-3.9c-9.7,3.7-19.3,7.6-28.7,11.9
		C124.8,315.7,127.5,319.8,129,319.1z" fill="#d0d0d07c"></path><path class="st1" d="M137,300.8c0.6,17,2.2,34,4.9,50.8c0.2,1.6,4.9,0,4.6-2c-2.6-16.6-4.2-33.3-4.8-50
		C141.6,297.6,136.9,299.1,137,300.8z" fill="#d0d0d07c"></path><path class="st1" d="M177.7,346.9c0.7,14.4,2.4,28.8,5.2,43c0.5,2.5,5.4,1.8,4.8-1c-2.7-13.8-4.4-27.8-5-41.9
		C182.6,344.2,177.6,344.2,177.7,346.9L177.7,346.9z" fill="#d0d0d07c"></path><path class="st1" d="M198.2,367.8c1.9,17.6,4.5,35,7.8,52.4c0.2,1.2,4.8,2.3,4.6,1.4c-3.3-17.3-5.9-34.8-7.8-52.4
		C202.7,368,198.1,366.7,198.2,367.8z" fill="#d0d0d07c"></path><path class="st1" d="M173.8,382.5l46.2-5.9c0.8-0.1-0.7-1.6-0.9-1.8c-0.6-0.6-1.8-1.6-2.8-1.5l-46.1,5.8c-0.8,0.1,0.7,1.6,0.9,1.8
		C171.8,381.6,172.9,382.6,173.8,382.5L173.8,382.5z" fill="#d0d0d07c"></path><path class="st1" d="M193.5,411.1l30.4-7.5c1.2-0.4,2-1.5,1.9-2.8c-0.3-1.3-1.7-1.4-2.8-1.2l-30.4,7.5c-1.2,0.4-2,1.5-1.9,2.8
		C191,411.2,192.4,411.3,193.5,411.1z" fill="#d0d0d07c"></path><path class="st1" d="M247.9,363.1c-0.1,0.4-0.2,0.8-0.3,1.1c-0.1,0.5,0.2-0.6,0,0c-0.1,0.1-0.1,0.3-0.1,0.4
		c-0.1,0.4-0.3,0.8-0.4,1.2c-0.8,2-1.6,4.1-2.4,6.1c-2.6,6.2-5.2,12.3-7.9,18.4c-5.9,13.6-11.9,27.1-17.6,40.7c-1,2.4-2,4.8-3,7.3
		c-0.6,1.3-1.1,2.7-1.3,4.1c-0.3,2.8,4.5,4.1,4.8,1.2c0.1-0.4,0.2-0.8,0.3-1.1c0.1-0.5-0.2,0.6,0,0l0.1-0.4c0.1-0.4,0.3-0.8,0.4-1.1
		c0.8-2,1.6-4.1,2.5-6.1c2.6-6.2,5.2-12.3,7.9-18.4c5.9-13.6,11.9-27.1,17.6-40.7c1-2.4,2-4.8,3-7.3c0.6-1.3,1.1-2.7,1.3-4.1
		C253,361.5,248.2,360.2,247.9,363.1L247.9,363.1z" fill="#d0d0d07c"></path><path class="st1" d="M249.3,421.1l38.3-23.7c0.6-0.4-1.8-4.7-2.3-4.4L247,416.7C246.4,417.1,248.8,421.4,249.3,421.1L249.3,421.1z" fill="#d0d0d07c"></path><path class="st1" d="M253.8,395.7c9.4-5.2,18.6-10.7,27.8-16.4c2.5-1.6-0.5-5.3-2.8-3.9c-9.1,5.7-18.4,11.2-27.8,16.4
		C248.4,393.3,251.5,397,253.8,395.7L253.8,395.7z" fill="#d0d0d07c"></path><path class="st1" d="M258.9,377.5c4.9,13.6,8.7,27.6,11.1,41.8c0.3,1.6,5.2,0.7,4.9-1c-2.5-14.2-6.2-28.2-11.1-41.8
		C263.2,374.8,258.4,376,258.9,377.5L258.9,377.5z" fill="#d0d0d07c"></path></g><g id="fly"><path class="st0" d="M106.5,220.6c0.1,0,0.7-0.1,0.2-0.1s0.3,0,0.4,0h0.4c-0.4,0,0.1,0,0.2,0c1.5,0.2,2.9,0.7,4.1,1.6
		c3,2.1,5.1,6,6.2,9.4c0.6,1.4,0.8,2.9,0.8,4.4c-0.1,0.3-0.2,0.6-0.3,0.9c-0.1,0.4,0-0.2,0,0l2.9-0.4l0.3,0.1
		c-0.1,0.1-0.3-0.2-0.2-0.1c-1.6-1.5-2.2-4.2-2.7-6.2c-1.5-5.9-2-13.5,3.5-17.6c0.2-0.2,0.5-0.3,0.7-0.5c0.4-0.2,0.6-0.2,0-0.1
		c-0.4,0.1-0.2,0,0,0.1c0.2,0.1,0.4,0.2,0.5,0.3c1.4,1.1,1.8,3.2,1.9,4.9c0.2,2.1,0,4.3-0.6,6.3c-0.2,0.7-0.5,1.5-0.8,2.2
		c-0.1,0.2-0.3,0.5-0.4,0.7c0-0.1-0.1,0.1-0.1,0.1c-0.1,0.1-0.1,0.1-0.2,0.2l3.9-0.3c0-0.3-0.1-0.5-0.1-0.8l0.1-0.2
		c0.1-0.3,0.1-0.1,0.1-0.1s0.5-0.2-0.1,0s-2.2,0.8-2.4,0.4c0,0.1-0.3-0.4,0,0.1c0.1,0.1,0.2,0.2,0.3,0.2c0.3,0.3,0.6,0.7,0.9,1.1
		c0.7,1,1.2,2.1,1.5,3.2c0.5,1.6,0.1,3.5-1.1,4.7c-0.2,0.1-0.4,0.3-0.6,0.3c0.1,0,0.4-0.2-0.1,0c0.3-0.1-0.2-0.1,0.1,0
		s-0.4-0.1-0.5-0.1c-0.4-0.1-0.8-0.3-1.2-0.6c-1.1-0.4-2.4-0.4-3.4,0.1c-0.6,0.3-1.6,1-0.7,1.6c3.8,2.2,10.9,1.3,12.3-3.5
		c0.7-2.4-0.3-4.9-1.6-7c-1.3-2-3.8-2.9-6-2.1c-1.4,0.4-3,1.5-2.7,3.2c0.4,2.3,4.3,1.3,5.5,0.2c1.4-1.3,2.1-3.7,2.4-5.5
		c0.7-2.8,0.5-5.8-0.6-8.6c-2.2-5-8.7-3.7-12.1-0.7s-4.8,7.2-4.7,11.8c0.1,4,1,7.9,2.7,11.5c0.4,1.2,1.4,2.2,2.5,2.6
		c1.8,0.5,4.7-0.1,5.4-2.1s-0.1-4.3-0.7-6.1c-1-2.7-2.4-5.2-4.2-7.4c-3.1-3.5-7.8-5.2-12.4-4.3c-0.6,0.1-2.4,0.5-2.3,1.4
		s2.1,0.8,2.6,0.7L106.5,220.6z"></path><path class="st0" d="M141.8,161.5c-3.9-0.9-8.1,0.1-11.2,2.7c-1.8,1.8-3.3,3.9-4.4,6.2c-1.1,2-1.7,4.1-2,6.4
		c-0.1,1.8,0.4,3.1,2.1,3.8s3.9,1,5.1-0.5c2.1-2.6,2.9-6.7,3.3-10c0.5-4,0.5-8.4-1.9-11.8c-1.5-2.3-3.7-4-6.2-4.9
		c-2.1-0.7-5-1.1-6.9,0.4s-2.3,4.4-2.4,6.6c-0.1,2.6,0.4,5.2,1.5,7.6c1,2.1,3.2,3.3,5.5,2.9c1.3-0.2,1.5-1.6,0.8-2.6
		c-1.3-1.8-5-2.4-6.8-1.2c-1,0.8-1.8,1.9-2.3,3.1c-0.7,1.2-1.1,2.6-1,4.1c0.5,5.6,8.6,7.3,12.8,4.8c0.8-0.5-1.3-1.2-1.5-1.3
		c-0.9-0.3-2.3-0.6-3.1-0.1c-0.3,0.1-1.8,0.9-2,0.7c0,0,0.7,0.1,0.7,0.1s-0.7-0.5-0.8-0.6c-1.2-1.4-1.5-3.4-0.8-5.1
		c0.4-1.2,1-2.3,1.7-3.3c0.2-0.3,0.5-0.6,0.9-0.9c0.7-0.5,0.5-0.2-1.1-0.5c-2.2-0.5-1.3-0.7-1.2,0.3c0.1,0.3,0,0.8-0.2,0.9l0.7-0.2
		h0.4l1.9,0.3c0.2,0.1,1,0.5,1,0.4l-0.1-0.1c-0.1-0.2-0.2-0.3-0.3-0.5c-0.3-0.5-0.6-1.1-0.8-1.7c-0.5-1.4-0.9-2.9-1-4.5
		c-0.2-2.5-0.1-6.7,2.4-8.2c0.2-0.1,0.3-0.1,0.5-0.2c0.2-0.2,0.2,0,0-0.1c-0.2,0-0.4-0.1-0.5-0.1c0.2,0.1,0.3,0.2,0.5,0.3
		c1.2,0.9,2.3,2,3.1,3.3c1.2,2,1.9,4.3,1.9,6.6c0.2,4.6-0.8,9.2-2.8,13.3c-0.3,0.5-0.8,0.9-1.1,1.4c-0.1,0.1,0,0,0.1,0
		s3.2,0.4,3.2,0.7c0-0.2-0.3-0.6-0.4-0.9c-0.4-2.2,0.7-4.9,1.6-6.9c1.4-3.1,3.4-6.3,6.4-7.9c1.1-0.6,2.4-1,3.7-1.1h0.4
		c0.6,0-0.1,0,0.1,0c0.7,0.1,0,0-0.1,0c0.5,0.1,2.4,0.5,2.6-0.3S142.1,161.6,141.8,161.5L141.8,161.5z"></path><path class="st0" d="M174.9,263.7c4.4-11,5.9-22.9,4.6-34.6c-0.3-3.7-1.1-7.3-2.4-10.9c-1.1-3.1-3.2-5.8-6-7.5
		c-3.1-1.9-6.7-2.7-10.3-2.5c-6.1,0.6-9.5,8-9,13.6c0.3,3.9,4.1,4.9,7.5,5.3s6-1.3,7.9-4.1c4-6,6.4-13.9,4.6-21
		c-1.7-6-6.4-10.7-12.5-12.2c-3.4-1.1-7.1-1.1-10.6-0.1c-3.5,1.1-6.7,3.2-10,4.8c-3.5,1.7-7.1,3-10.9,3.8c-3,0.6-6.6,1-9.5-0.4
		c-5.1-2.6-9.2-8.1-8.9-13.9c0.1-1.4,0.4-2.8,1-4.1c0.1-0.2-4.5-1.9-4.9-1.1c-2.2,4.9-0.4,10.4,3,14.3c4.1,4.7,10.5,6.6,16.5,7
		c6.9,0.4,13.6-1.9,19.6-5c3.1-1.6,6.1-3.4,9.4-4.4c1.3-0.4,2.7-0.5,4-0.4c-0.6-0.1-0.2-0.1,0,0s0.6,0.3,0.9,0.4
		c0.6,0.4,1.3,0.8,1.8,1.3c5,3.7,7.1,9.8,6.6,15.9c-0.3,3.4-1.3,6.8-2.8,9.8c-1.3,2.8-3,6.3-5.9,7.7c-0.6,0.2-1.2,0.4-1.9,0.5h-0.3
		c2,0.7,2.5,0.8,1.6,0.2c-0.3-0.2-0.5-0.5-0.7-0.8c-0.9-1.4-0.8-3.2-0.6-4.7c0.3-2.8,1.3-5.4,2.9-7.7c0.8-1,1.7-1.9,2.9-2.5
		c0.6-0.3,1.3-0.6,1.9-0.7c0.3-0.1,0.5-0.1,0.8-0.1c0.2,0,0.5,0,0.7,0c0.5,0,0.2-0.1-0.6-0.2c0.6,0.4,1.3,0.8,2,1.1
		c0.6,0.4,1.2,0.9,1.7,1.5c1.1,1.2,2.1,2.7,2.7,4.2c1.4,3.4,2.3,7,2.6,10.7c0.5,4.1,0.7,8.2,0.6,12.2c-0.3,8-2,16-5,23.5
		C169.8,262.9,174.5,264.5,174.9,263.7L174.9,263.7z"></path><path class="st0" d="M167.7,268.9c0.2,0.6,0,1.3-0.4,1.8c-0.1,0.2,0.7,0.5,0.6,0.5c0.2,0.1,0.5,0.2,0.8,0.3
		c0.3,0.1,0.6,0.2,0.9,0.2l0.6,0.1c0.4,0,0.7,0.1,1.1,0.1h0.4c0.2,0,0.3-0.1,0.4-0.2c0.4-0.5,0.6-1.2,0.4-1.8c0-0.1-0.1-0.2-0.2-0.2
		c-0.1-0.1-0.3-0.2-0.5-0.3c-0.2-0.1-0.5-0.2-0.8-0.3c-0.3-0.1-0.6-0.2-0.9-0.2l-0.6-0.1c-0.4,0-0.7-0.1-1.1-0.1h-0.4
		C167.9,268.7,167.8,268.7,167.7,268.9L167.7,268.9z"></path></g></svg>