<svg transform="scale(1)" version="1.1" id="gmpbMjhH7d" xmlns="http://www.w3.org/2000/svg" xmlns:xlink="http://www.w3.org/1999/xlink" x="0px" y="0px" viewBox="0 0 500 500" xml:space="preserve" class="pbimage_pbimage__wrapper__image__0LEis false"><title>Empty Cart 2</title><style type="text/css"> .st0{fill:#FFFFFF;} .st1{fill:#59BE4C;} .st2{fill:none;} .st3{fill:#000005;}
 .st3{fill:#ededed;}
 .st1{fill:#d1d2d1;}
 .st0{fill:#FFFFFF;}</style><g id="item"><path class="st0" d="M397.6,199.8c-1.1-0.9-1.8-2.3-1.8-3.8c0.1-2.4,2.6-5.9,2.6-5.9s44.6-3.8,46.8,0.1s9.9,63.3,5.3,66.3
		c-4.8,2.9-10.1,5.1-15.6,6.3c-4.3,0.9-51.8,1.6-51.9-3.6S397.6,199.8,397.6,199.8z" fill="#FFFFFF"></path><path class="st1" d="M398,198.4C398,198.4,398.4,198.9,398,198.4C397.9,198.2,397.9,198.2,398,198.4c-0.1-0.2-0.1-0.1-0.1-0.3
		c-0.2-0.8-0.2-1.7,0.2-2.5c0.5-1.4,1.2-2.6,2-3.8l-0.7,0.2c6.7-0.6,13.4-1,20.2-1.3c5.1-0.2,10.2-0.4,15.3-0.3c2,0,4.1,0.1,6.1,0.3
		c0.8,0.1,1.6,0.2,2.4,0.3c0.4,0.1,0.1,0,0.1,0l0.5,0.1c0.3,0.1,0.5,0.2,0.8,0.2s-0.4-0.2-0.1-0.1s0.5,0.3-0.2-0.1
		c0.3,0.2-0.4-0.3-0.3-0.3s-0.6-0.9-0.6-0.8c0.2,0.4-0.1-0.5,0-0.1c0,0.2,0.1,0.4,0.2,0.6c0.3,1.1,0.6,2.4,0.8,3.5
		c0.4,1.9,0.6,3.2,0.9,5c0.4,2.2,0.7,4.4,1,6.7c1.5,10.5,2.7,21,3.3,31.6c0.3,4.1,0.4,8.3,0.2,12.4c0,0.6-0.1,1.7-0.2,2
		s-0.2,1.1-0.3,1.5c-0.1,0.2-0.1,0.4-0.2,0.6c-0.1,0.2-0.4,0.6-0.1,0.3c-0.6,0.6-1.4,1.1-2.2,1.5c-3.5,1.9-7.3,3.4-11.2,4.4
		c-0.9,0.3-1.9,0.5-2.8,0.6l-0.5,0l-0.7,0c-3.8,0.3-7.5,0.3-11.3,0.4c-10.1,0.1-20.3,0.1-30.3-1.2c-1-0.1-1.9-0.3-2.8-0.4l-0.3-0.1
		c0.3,0.1,0,0,0,0l-0.6-0.1c-0.4-0.1-0.7-0.2-1.1-0.3s-0.5-0.2-0.8-0.3l-0.4-0.2c0.4,0.1,0.3,0.1,0,0c-0.1-0.1-0.2-0.1-0.3-0.1
		c-0.2-0.1,0.5,0.4,0.2,0.1c0.3,0.3,0.6,0.6,0.8,0.9c0.1,0.3,0.1,0.9,0.2,0.5c0-0.2,0-0.3,0-0.5c0-0.3,0-0.1,0,0c0-0.1,0-0.2,0-0.4
		c0-0.3,0.1-0.5,0.1-0.8c0.2-1.5,0.6-2.9,0.9-4.4c2.1-9.6,4.6-19.1,7.1-28.7c2-7.7,4-15.3,6.1-23l0.3-1.2c0.5-1.7-3.4-4.8-3.9-3
		c-1.7,6.4-3.4,12.8-5.1,19.1c-2.7,10.7-5.5,21.2-7.9,31.8c-0.4,1.8-0.8,3.6-1.2,5.4c-0.3,1.1-0.4,2.2-0.5,3.4c0,3.6,4.5,5,7.3,5.6
		c4.8,0.9,9.6,1.4,14.5,1.5c5.7,0.3,11.4,0.4,17.1,0.4c4.4,0,8.8-0.1,13.1-0.3c5.4-0.5,10.7-2.1,15.5-4.7c1.7-0.9,3.9-1.6,4.5-3.6
		c0.4-1.3,0.6-2.7,0.6-4.1c0.2-4.4,0.2-8.8-0.2-13.2c-0.7-11.3-2-22.5-3.6-33.7c-0.6-4.1-1.2-8.1-2.1-12.1c-0.2-1.1-0.5-2.2-1-3.3
		c-0.8-1.5-2.2-2.6-3.8-3.1c-3.8-1.2-8.1-1-12-1c-5.6,0-11.1,0.2-16.7,0.5c-4.6,0.3-9.1,0.6-13.7,0.9l-3.2,0.3c-0.4,0-0.8,0.1-1,0.3
		c-0.3,0.4-0.6,0.9-0.9,1.4c-0.5,0.8-0.9,1.6-1.3,2.5c-1.3,3.3,0,6.7,2.8,8.9c0.6,0.5,1.9,1.1,2.4,0.1S398.7,198.9,398,198.4z" fill="#d1d2d1"></path><path class="st1" d="M401.1,202.4c5.3-0.2,10.5-0.5,15.8-0.8c3.9-0.2,7.9-0.5,11.8-0.9c2.6-0.3,5.5-0.4,7.9-1.4
		c1.7-0.7,3.2-2.3,4.7-3.4s3-2.3,4.5-3.5c0.6-0.4-0.1-1.6-0.3-2.1c-0.5-0.9-1.2-1.6-2.1-2c-0.9-0.3-1.8-0.5-2.7-0.4
		c-1.9,0.3-2.5,1.8-2.6,3.5c-0.1,1.1,1,2.3,1.8,2.9c0.6,0.4,1.6,1,1.7-0.1c0.1-2.1,1.9-2.5,3.6-1.9l-2.4-4c-1.2,1-2.5,2-3.7,2.9
		c-1.6,1.4-3.3,2.6-5,3.8c-0.2,0.2-0.5,0.3-0.8,0.3c-0.5,0.1-1.1,0.2-1.6,0.3c-1.4,0.2-2.9,0.4-4.3,0.6c-7.6,0.9-15.2,1.3-22.8,1.6
		c-2,0.1-3.9,0.2-5.9,0.3C397.3,198.2,399.6,202.4,401.1,202.4L401.1,202.4z" fill="#d1d2d1"></path><line class="st2" x1="434.2" y1="261.9" x2="440" y2="201.7"></line><path class="st1" d="M436.4,262.6l2-20.4l3.1-32.3l0.7-7.5c0.2-2.2-4.2-4.3-4.5-1.4l-2,20.4l-3.1,32.3l-0.7,7.5
		C431.8,263.4,436.2,265.4,436.4,262.6L436.4,262.6z" fill="#d1d2d1"></path><polygon class="st1" points="412.5,210.7 414.4,198.6 419,202.5 422.2,199.4 421.3,210.9 417.5,209.2 	" fill="#d1d2d1"></polygon><path class="st1" d="M414.5,212l1.7-10.6l0.2-1.5l-3-0.1l4.6,3.9c0.7,0.6,2,1.3,2.9,0.5l3.2-3.1l-4-2.4l-0.8,10.1l-0.1,1.4l2-0.9
		l-2.4-1c-0.9-0.6-1.9-0.8-3-0.6c-1.7,0.5-3.3,1-5,1.4c-0.4,0.1-0.6,0.7-0.5,1c0.1,0.6,0.3,1.1,0.7,1.5c0.7,0.9,1.9,1.4,3,1.2
		l5.1-1.4l-1.4-0.1l3.8,1.6c0.5,0.2,1,0.2,1.4,0.1c0.4-0.2,0.6-0.6,0.5-1l0.8-10.1l0.1-1.4c0.1-0.9-1-2-1.7-2.4s-1.7-0.7-2.3-0.1
		l-3.2,3.1l2.9,0.5l-4.6-3.9c-0.5-0.5-1.2-0.8-1.9-0.8c-0.5,0-1.1,0.1-1.2,0.7l-1.7,10.6l-0.2,1.5c0,1.2,0.6,2.3,1.7,2.8
		C412.6,212.5,414.4,213.1,414.5,212z" fill="#d1d2d1"></path><path class="st1" d="M434.3,199.9c0.4-1.9,1.4-3.5,2.9-4.7c0.3-0.3,0.7-0.5,1.1-0.6c0.2-0.1,0.5-0.2,0.7-0.3s-0.1,0,0.1,0l0.4-0.1
		c0.2-0.1,0.5-0.2,0.8-0.2c-0.1,0-0.3,0-0.1,0h0.5c0.3,0,0,0-0.1,0c0.1,0,0.3,0,0.4,0c0.5,0,0,0.1-0.1,0c0.1,0,0.3,0.1,0.5,0.1
		c0.6,0.1,1.2,0.1,1.8,0c0.3-0.1,0.8-0.2,0.8-0.6c0.1-0.9-1.8-1.3-2.3-1.4c-2.9-0.6-6-0.1-8.5,1.5c-1.9,1.3-3.3,3.3-3.7,5.6
		c-0.1,0.4,0.4,0.7,0.6,0.8c0.5,0.3,1.1,0.5,1.7,0.6c0.6,0.1,1.2,0.1,1.8,0C433.8,200.4,434.2,200.3,434.3,199.9L434.3,199.9z" fill="#d1d2d1"></path><path class="st0" d="M406.7,123.3c-3,2.7-4.8,6.4-5,10.5c-0.3,6.7,3,34.1,3,34.1s18.5,8.6,32-3.1c0,0,2.9-15.8,1.7-28.2
		s-7.4-16.8-7.4-16.8c1.2-1.9,1.2-4.4-0.1-6.2c-2.2-3.3-23.2,0.1-24.8,2.3S406.7,123.3,406.7,123.3z" fill="#FFFFFF"></path><path class="st1" d="M404.9,121.6c-6.8,5.6-5.1,15.4-4.4,23c0.4,4.8,0.9,9.6,1.5,14.4l0.6,5.3c0,0.8,0.1,1.6,0.3,2.4
		c0.8,3,5.4,4.1,8,4.7c4.9,1.4,10.1,1.7,15.1,1c3.1-0.5,6.1-1.6,8.8-3.1c0.7-0.4,1.4-0.9,2.1-1.4c0.6-0.4,1.5-1,1.8-1.6
		c0.1-0.3,0.1-0.6,0.1-0.9c0.8-5.1,1.4-10.2,1.7-15.4c0.5-10.6-0.1-23.2-8.6-30.8c-0.2-0.2-0.4-0.4-0.6-0.6l1.7,2.8
		c2.3-3.3,0.3-8-2.9-9.9c-2.3-1.4-5.4-1.3-8-1.3c-3.4,0.1-6.8,0.5-10.2,1.2c-2.2,0.4-5.2,0.8-7.1,2.2c-1.3,0.9-1.1,3-0.9,4.4
		c0.2,1.5,0.7,3,1.3,4.4c0.5,1.1,1.4,2,2.5,2.5c0.9,0.4,1.2,0,0.9-0.9c0-0.1,0-0.1-0.1-0.2c0.2,0.4-0.1-0.2-0.1-0.3
		c-0.2-0.7-0.4-1.4-0.6-2.1c-0.2-1.2-0.6-3,0.3-4c1-1.2,3.4-1.5,4.8-1.8c2.8-0.7,5.7-1.1,8.5-1.4c2.6-0.4,5.2-0.4,7.9-0.2
		c0.5,0.1,1,0.2,1.5,0.3c-0.1,0,0.1,0,0.3,0.1c-0.2-0.1-0.4-0.2-0.6-0.4c-0.2-0.2-0.5-0.4-0.6-0.7c-0.4-0.5-0.4-0.5-0.1,0
		c0.3,1,0.4,2.1,0.2,3.1c-0.1,0.5-0.3,1-0.6,1.4c-0.6,0.8,1.2,2.4,1.7,2.8c0,0,0.1,0.1,0.1,0.1c0.5,0.4-0.4-0.4,0,0s0.7,0.7,0.2,0.2
		c0.3,0.3,0.5,0.6,0.8,0.9c0.4,0.4-0.1-0.2,0.1,0.2s0.3,0.4,0.5,0.7c0.3,0.4,0.5,0.8,0.8,1.3c0.7,1.2,1.2,2.5,1.6,3.8
		c2.4,7.3,2,15.4,1.4,23c-0.2,3.1-0.6,6.1-1,9.2c-0.1,0.8-0.2,1.7-0.4,2.5s-0.2,0.7-1,1.3c-5.5,4.1-12.4,6-19.2,5.1
		c-2.7-0.3-5.4-0.8-8-1.6c-1-0.3-2-0.7-3-1.1l2.7,2.9c-0.6-4.8-1.1-9.6-1.6-14.5c-0.4-3.8-0.8-7.7-1-11.5c-0.3-2.7-0.4-5.5-0.3-8.2
		c0.3-3.8,2-7.3,4.8-9.8C409.4,124.3,406,120.7,404.9,121.6z" fill="#d1d2d1"></path><path class="st0" d="M408.5,123.1c0,0,15.7,0.9,22.5-3.3" fill="#FFFFFF"></path><path class="st1" d="M407.9,124c3.3,0.2,6.5,0.2,9.8-0.1c5.2-0.3,11-1,15.5-3.8c1-0.6-0.5-1.1-1-1.2c-1.2-0.2-2.4-0.1-3.4,0.5
		c-1.7,0.9-3.5,1.6-5.4,1.9c-2.2,0.4-4.4,0.7-6.7,0.8c-1.1,0.1-2.1,0.1-3.2,0.1h-1.3c-0.5,0,0.5,0-0.2,0h-0.6c-0.8,0-1.6,0-2.4-0.1
		s-2.7-0.1-3,0.8S407.4,123.9,407.9,124L407.9,124z" fill="#d1d2d1"></path><path class="st0" d="M402.6,134c0,0,17.6,4.9,35.5-1.5" fill="#FFFFFF"></path><path class="st1" d="M401.2,135.7c3.9,1,7.8,1.6,11.8,1.8c8.6,0.6,17.3-0.5,25.5-3.3c1-0.4,2.2-1.2,1.9-2.4s-1.9-1.4-2.9-1.1
		c-7.5,2.6-15.4,3.6-23.3,3.1c-2.6-0.2-5.2-0.5-7.7-0.9c-0.8-0.1-1.5-0.3-2.3-0.5s0.4,0.1-0.1,0l-0.2-0.1c-1.2-0.4-2.6,0-3.4,1
		c-0.6,0.6-0.5,1.6,0.1,2.2C400.8,135.6,401,135.7,401.2,135.7L401.2,135.7z" fill="#d1d2d1"></path><path class="st0" d="M404.4,155.8c0,0,19,8.2,34.5-0.1" fill="#FFFFFF"></path><path class="st1" d="M405.6,157.9c3.7,1.5,7.6,2.6,11.6,3.1c7.8,1.2,16,0.5,23.1-3.2c0.8-0.4-1.7-4.7-2.7-4.2
		c-7.1,3.7-15.2,4.3-23,3.1c-3.9-0.5-7.7-1.5-11.3-3c-0.8-0.3,0.2,1.8,0.2,1.9C403.9,156.6,404.6,157.4,405.6,157.9L405.6,157.9z" fill="#d1d2d1"></path><path class="st0" d="M409,116.7c0,0,12.4,1.2,17.6-2.8" fill="#FFFFFF"></path><path class="st1" d="M407.9,118c2.6,0.2,5.2,0.3,7.8,0.1c4.3-0.3,9.2-0.9,12.8-3.6c0.8-0.6,0.7-1.4-0.3-1.8
		c-1.2-0.3-2.5-0.1-3.5,0.6c-0.2,0.2-0.4,0.3-0.6,0.4c-0.4,0.2,0.3-0.1-0.2,0.1s-0.8,0.4-1.2,0.6c0.4-0.2,0,0-0.2,0.1l-0.6,0.2
		l-0.7,0.2c-0.6,0.2,0.2,0-0.3,0.1c-0.9,0.2-1.8,0.3-2.7,0.4l-0.5,0.1h-0.5c-0.4,0-0.9,0.1-1.3,0.1c-0.9,0-1.7,0.1-2.5,0h-1
		c-0.2,0-1.3-0.1-0.5,0c-0.6,0-1.3-0.1-1.9-0.1c-1.2-0.2-2.4,0.2-3.3,1C406.1,117.3,407.1,117.8,407.9,118L407.9,118z" fill="#d1d2d1"></path><polygon class="st0" points="336.2,90.9 329.3,106 333.5,171.5 384.1,170.8 384,98 368.4,85.8 367.5,77.7 335.4,79.7 	" fill="#FFFFFF"></polygon><path class="st1" d="M333.8,90.4l-3.4,7.3l-2.3,5.1c-0.5,0.9-0.9,1.8-1.2,2.7c-0.2,0.9-0.2,1.9,0,2.8l0.4,6.8l2.9,44.2l0.8,12.3
		c0.1,1.2,1.4,1.8,2.5,1.8l17-0.2l27.2-0.4l6.3-0.1c1,0,2.5-0.5,2.5-1.7v-11.3v-24.9v-25v-8.3c0.1-1.1,0.1-2.1,0-3.2
		c-0.1-1.1-1.5-1.8-2.3-2.5l-4.5-3.5l-8.9-6.9l-0.6-0.4l0.7,1.2l-0.9-8.2c-0.3-1.1-1.3-1.8-2.5-1.7l-28.1,1.7l-4,0.2
		c-0.9,0-2.6,0.5-2.5,1.7l0.8,11.2c0.2,2.4,5.2,2.4,5,0L338,79.7l-2.5,1.7l28.1-1.7l4-0.2l-2.5-1.8l0.6,6.1c0,0.8,0.1,1.5,0.3,2.3
		c0.2,0.7,0.7,1,1.3,1.5l11.2,8.8l3.8,2.9l-0.7-1.2v24.7v39.1v9l2.5-1.7l-17,0.2l-27.2,0.4l-6.3,0.1l2.5,1.7l-2-31.7l-1.5-22.2
		l-0.5-7.8l-0.2-2.4c0-0.4,0-0.8-0.1-1.2c-0.1-0.2-0.2,0.4,0,0.3c0.3-0.4,0.5-0.9,0.6-1.3l2.4-5.2l3.9-8.5
		C339.7,89.2,334.8,88.4,333.8,90.4z" fill="#d1d2d1"></path><line class="st2" x1="361.2" y1="88.7" x2="336.2" y2="90.9"></line><path class="st1" d="M362.3,87.7l-21.8,2l-3.1,0.3c-1,0.1-2.6,0.4-3.2,1.2s0.6,0.8,1.1,0.8l21.8-2l3.1-0.3c1-0.1,2.6-0.4,3.2-1.2
		S362.8,87.6,362.3,87.7z" fill="#d1d2d1"></path><line class="st2" x1="329.3" y1="106" x2="366" y2="104.3"></line><path class="st1" d="M327.2,107.4l32.1-1.5l4.6-0.2c1-0.1,2-0.6,2.9-1.2c0.2-0.1,1.7-1.5,1.2-1.4l-32.1,1.5l-4.6,0.2
		c-1,0.2-2,0.6-2.9,1.2C328.3,106,326.7,107.4,327.2,107.4L327.2,107.4z" fill="#d1d2d1"></path><path class="st1" d="M366.7,86.7l-1.2,7.5c-0.5,2.9-1.1,5.7-1.4,8.6c-0.1,0.9-0.1,1.8,0,2.7l0.2,6.5l1.3,43.1l0.4,12
		c0.1,1.2,0.9,2.3,2.1,2.9c1,0.4,1.7-0.1,1.7-1.2l-0.9-31.1l-0.6-21.6l-0.2-7.5c0.1-1.1,0-2.3-0.1-3.4c0-0.2-0.1,0.8,0,0.2
		s0.2-1,0.2-1.5l0.9-5.5l1.4-9c0-1.2-0.5-2.4-1.6-3.1C368.1,85.8,366.8,85.5,366.7,86.7L366.7,86.7z" fill="#d1d2d1"></path><line class="st2" x1="367.9" y1="101.9" x2="379.6" y2="99.6"></line><path class="st1" d="M369.6,103.5l10.3-2l1.5-0.3c0.6-0.1-0.8-1.5-0.9-1.6c-0.5-0.4-1-0.8-1.5-1.2c-0.3-0.2-0.8-0.6-1.1-0.5
		l-10.3,2l-1.5,0.3c-0.6,0.1,0.8,1.5,0.9,1.6c0.5,0.4,1,0.8,1.5,1.2C368.8,103.2,369.3,103.6,369.6,103.5L369.6,103.5z" fill="#d1d2d1"></path><path class="st0" d="M324.4,223.4c0,0,2.1,31.3,4.5,33.2s22.5,6.1,32.9,3.6s13.2-1.8,13.7-5.3l4.1-31.5c0,0,4.1-0.6,2.4-5.5
		s-52.7-1.3-56.7-0.7s-4.5,3.5-4.4,4.6S324.4,223.4,324.4,223.4z" fill="#FFFFFF"></path><path class="st1" d="M322.1,223.2c0.4,6.6,1,13.2,1.8,19.7c0.4,4,1,7.9,1.9,11.8c0.2,1.3,0.8,2.5,1.6,3.5c1.1,1.2,2.9,1.7,4.3,2.1
		c5.2,1.5,10.6,2.5,16,2.9c3.1,0.3,6.1,0.3,9.2,0.2c3-0.3,6-0.8,8.9-1.5c2.5-0.5,5-0.8,7.5-1.6c1.8-0.5,3.3-1.4,4-3.2
		c0.3-1.1,0.5-2.2,0.6-3.4l0.7-5.2l3-23.6l0.1-0.5l-1.5,1.6c3.4-0.6,4.8-4,4.3-7.1c-0.3-2.2-2-4-4.2-4.4c-5-1.4-10.6-1.3-15.8-1.3
		c-12.5-0.1-25.1,0.5-37.5,1.6c-2.8,0.2-5.6,0.7-7.3,3.2c-1.1,1.7-1.6,4.4-0.2,6c1.2,1.4,3.4,1.8,5.1,1.9c3.1,0.3,2.7-4.6-0.1-4.9
		c-0.4,0-0.8-0.1-1.2-0.2c-0.2,0-0.5-0.1-0.7-0.2c-0.4-0.1-0.1-0.1-0.1,0l0.2,0.2c0.4,1.3,0.5,1.8,0.5,1.2s-0.1,0.4,0-0.2
		c0-0.1,0-0.2,0.1-0.4c0.1-0.6-0.1,0.2,0-0.1c0.2-0.5,0.6-1,1.2-1.2c1.3-0.5,2.7-0.7,4.2-0.7c4.7-0.4,9.4-0.7,14-0.9
		c6.3-0.3,12.4-0.6,18.7-0.6c5.2-0.2,10.5,0.1,15.7,0.7c0.5,0.1,1,0.1,1.5,0.2l0.6,0.1c0.3,0.1-0.6-0.2-0.1,0l0.3,0.1
		c0.3,0.1,0.6,0.2,1,0.3c0.5,0.2-0.3-0.1-0.1-0.1c0.1,0.1,0.2,0.1,0.3,0.2c-0.4-0.3-0.2-0.1-0.4-0.4c-0.3-0.5-0.2-0.2-0.1-0.1
		c-0.4-0.7-0.1-0.4,0,0.2c0,0.1,0,0.2,0.1,0.3c0,0.1,0.1,0.8,0,0.5c0,0.4,0,0.3-0.2,0.7c0.3-0.4-0.2,0.2-0.4,0.3
		c0.4-0.4-0.1,0-0.3,0.1c-0.5,0.3,0.4-0.1-0.1,0l-0.2,0.1c-0.8,0.2-1.4,0.8-1.6,1.6l-2.5,19.7l-1.4,10.6c0,0.4-0.1,0.8-0.2,1.2
		s-0.4,1-0.1,0.5c-0.1,0.1-0.1,0.2-0.2,0.3c-0.2,0.3,0.3-0.4,0,0s-0.3,0.2,0,0c-0.1,0.1-0.2,0.1-0.4,0.2l-0.4,0.2l-0.3,0.1
		c0.2-0.1,0.3-0.1,0,0c-0.9,0.3-1.9,0.5-2.9,0.7c-3,0.6-6,1.3-9.1,1.9c-2.5,0.4-5.1,0.6-7.7,0.5c-5.6-0.1-11.2-0.8-16.6-2.1
		c-1.7-0.4-3.4-0.8-5-1.5l-0.5-0.2c-0.1,0-0.5-0.3-0.1,0s0,0,0,0c-0.4-0.3,0.2,0.2,0.2,0.2s0.3,0.7,0.1,0.1s0.1,0.5-0.1-0.1
		c-0.4-1.3-0.7-2.6-0.9-4c-0.2-1-0.3-1.9-0.5-2.8c-0.2-1.1-0.2-1.4-0.4-2.7c-0.9-7.1-1.4-14.3-2-21.4v-0.4c0-1.3-1-2.4-2.3-2.6
		C323.1,221.2,322.2,222.1,322.1,223.2z" fill="#d1d2d1"></path><path class="st1" d="M326.6,225c-0.1,2.3,3.5,3.1,5.2,3.5c3.4,0.6,6.8,0.9,10.2,0.9c8.6,0.3,17.2-0.3,25.6-1.8
		c3.6-0.6,7.4-1.4,10.6-3.2c1-0.6,0.2-1.5-0.5-1.9c-1-0.7-2.3-0.8-3.4-0.4c-2.5,1.3-5.2,2.2-8,2.6c-3.6,0.7-7.3,1.2-10.9,1.5
		c-7.1,0.8-14.2,0.8-21.3,0.1l-1.1-0.1l-0.4-0.1c-0.1,0,0.6,0.1,0,0l-0.8-0.2c-0.3-0.1-1.1-0.4-0.2,0c-0.2-0.1-0.4-0.2-0.6-0.2
		c-0.1,0-0.5-0.4,0.3,0.1c-0.2-0.1-0.3-0.3,0.1,0.1c-0.3-0.4,0.2,0.3,0,0.1s0.2,0.2,0.1,0.2s0-0.6,0,0.1
		C331.5,224.4,326.7,223.5,326.6,225L326.6,225z" fill="#d1d2d1"></path><path class="st1" d="M348.1,123.4c1.4,1.1,3.3,1.4,4.9,0.7c1.3-0.5,2.4-1.6,3-2.9c0.2-0.3,0.2-0.7,0-1c-0.2-0.3-0.6-0.5-1-0.6
		c-0.5-0.1-1-0.1-1.5,0.1c-0.4,0.1-0.8,0.4-1,0.8c-0.1,0.4-0.3,0.7-0.6,1l0.2-0.3c-0.2,0.3-0.4,0.5-0.6,0.7l0.3-0.3
		c-0.2,0.1-0.3,0.2-0.5,0.3s0.4-0.2,0.2-0.1h-0.1c-0.1,0-0.2,0.1-0.3,0.1l0.5-0.1c-0.2,0-0.3,0.1-0.5,0.1h0.5h-0.4h0.3l-0.5-0.1
		l0.4,0.1c-0.2-0.1-0.4-0.1-0.5-0.2l0.3,0.2c-0.1-0.1-0.3-0.2-0.4-0.3c-0.4-0.3-0.8-0.4-1.2-0.4c-0.5,0-1,0.1-1.4,0.4
		c-0.3,0.2-0.6,0.5-0.7,0.9C347.7,122.8,347.8,123.2,348.1,123.4L348.1,123.4z" fill="#d1d2d1"></path><path class="st1" d="M353.5,143.9c0.3-0.6,0.8-1.1,1.3-1.5c0.1-0.1,0.1-0.3,0.1-0.4c0-0.2-0.1-0.4-0.2-0.6
		c-0.1-0.2-0.3-0.5-0.4-0.7c-0.2-0.3-0.4-0.5-0.6-0.7l-0.5-0.4c-0.3-0.2-0.6-0.4-0.9-0.6l-0.4-0.2c-0.2-0.1-0.4,0-0.5,0.1
		c-0.5,0.4-1,0.9-1.3,1.5c-0.1,0.1-0.1,0.3-0.1,0.4c0,0.2,0.1,0.4,0.2,0.6c0.1,0.3,0.3,0.5,0.4,0.7c0.2,0.3,0.4,0.5,0.6,0.7l0.5,0.4
		c0.3,0.2,0.6,0.4,0.9,0.6l0.4,0.2C353.1,144,353.3,144,353.5,143.9L353.5,143.9z" fill="#d1d2d1"></path><path class="st1" d="M335.8,125.1c1,1.4,2.8,2,4.4,1.4c0.6-0.2,1.1-0.5,1.6-0.9c0.5-0.5,0.9-1.1,1.2-1.8c0.1-0.4,0-0.9-0.2-1.3
		c-0.2-0.4-0.6-0.8-1-1.1c-0.3-0.2-0.8-0.3-1.1-0.2c-0.3,0.1-0.6,0.4-0.7,0.8v0.1l0.1-0.3c-0.1,0.3-0.3,0.7-0.6,0.9l0.2-0.3
		c-0.3,0.3-0.6,0.6-1,0.8l0.3-0.2c-0.4,0.2-0.7,0.3-1.1,0.3h0.4c-0.3,0-0.6,0-0.9,0l0.4,0.1c-0.2,0-0.3-0.1-0.5-0.2l0.4,0.2
		c-0.1,0-0.2-0.1-0.3-0.2l0.4,0.3l-0.2-0.2l0.3,0.4l-0.1-0.2c-0.3-0.4-0.7-0.7-1.1-0.8c-0.4-0.1-0.7-0.1-1.1,0.1
		C335,123.5,335.3,124.5,335.8,125.1L335.8,125.1z" fill="#d1d2d1"></path><path class="st0" d="M352.1,129.4c4.2-1.8,8.7-2.9,13.3-3.2c0.6-0.1,1.2,0,1.7,0.1c1.5,0.5,2.1,2.3,2.4,3.8
		c0.4,1.2,0.2,2.6-0.5,3.7c-0.8,0.8-1.8,1.2-2.9,1.3c-4.2,0.8-8.5,1-12.7,0.5" fill="#FFFFFF"></path><path class="st1" d="M352.7,130.8c2.7-1.2,5.6-2,8.6-2.5c0.8-0.1,1.7-0.2,2.5-0.3c0.5-0.1,1.1-0.1,1.6-0.1c1,0.2,1.4,1.7,1.6,2.5
		c0.1,0.5,0.2,1.1,0.2,1.6c0,0.3,0,0.5,0,0.8c0,0-0.2,0.7-0.1,0.4c0.1-0.1,0.2-0.1,0.3-0.1c-0.3,0.1-0.3,0.1-0.1,0.1
		c-0.2,0.1-0.5,0.1-0.7,0.2c-0.7,0.2-1.5,0.3-2.2,0.4c-3.3,0.4-6.6,0.5-9.9,0.1c-1.3-0.1-2.5,0.4-3.2,1.4c-0.4,0.5-0.3,1.3,0.2,1.7
		c0.2,0.2,0.4,0.2,0.7,0.3c3.3,0.4,6.7,0.4,10,0.1c3.1-0.3,7.3-0.6,9.1-3.6c1.3-2.1,0.8-5.5-0.5-7.5c-1.9-2.7-5.8-1.9-8.6-1.5
		c-3.7,0.6-7.3,1.6-10.8,3.1c-0.8,0.4-2.1,1.4-1.6,2.5S351.9,131.2,352.7,130.8L352.7,130.8z" fill="#d1d2d1"></path><path class="st1" d="M423.3,140.9c1.4,1.1,3.3,1.4,4.9,0.7c1.3-0.5,2.4-1.6,3-2.9c0.2-0.3,0.2-0.7,0-1c-0.2-0.3-0.6-0.5-1-0.6
		c-0.5-0.1-1,0-1.4,0.1c-0.4,0.1-0.8,0.4-1,0.8c-0.1,0.4-0.3,0.7-0.5,1l0.2-0.3c-0.2,0.2-0.4,0.5-0.6,0.7l0.3-0.3
		c-0.2,0.1-0.3,0.2-0.5,0.3c-0.2,0.1,0.4-0.2,0.2-0.1l-0.1,0.1l-0.3,0.1l0.5-0.1c-0.2,0-0.3,0.1-0.5,0.1h0.5h-0.4h0.3
		c-0.2,0-0.3-0.1-0.5-0.1l0.4,0.1c-0.2-0.1-0.4-0.1-0.5-0.2l0.3,0.2c-0.1-0.1-0.3-0.2-0.4-0.3c-0.3-0.3-0.8-0.4-1.2-0.4
		c-0.5,0-1,0.1-1.4,0.4c-0.4,0.2-0.6,0.5-0.7,0.9C422.8,140.4,423,140.8,423.3,140.9L423.3,140.9z" fill="#d1d2d1"></path><path class="st1" d="M429,154.3c0.1-0.3,0.3-0.5,0.5-0.7l-0.4,0.5c0.2-0.3,0.5-0.5,0.7-0.7l-0.5,0.4l0.1-0.1
		c0.3-0.2,0.5-0.4,0.7-0.7c0.2-0.2,0.4-0.5,0.5-0.8c0.1-0.2,0.1-0.5,0.1-0.8c0-0.2-0.1-0.5-0.2-0.7l-0.3-0.3c-0.3-0.2-0.6-0.3-1-0.3
		h-0.6c-0.4,0.1-0.8,0.3-1.2,0.5c-0.9,0.7-1.7,1.5-2.2,2.4c-0.2,0.2-0.3,0.5-0.3,0.8c-0.1,0.2-0.1,0.5,0,0.7c0,0.2,0.2,0.5,0.4,0.6
		c0.2,0.2,0.4,0.3,0.6,0.4l0.5,0.1c0.4,0,0.8-0.1,1.2-0.2l0.6-0.3C428.5,154.9,428.8,154.6,429,154.3L429,154.3z" fill="#d1d2d1"></path><path class="st1" d="M410.9,142.6c1,1.4,2.8,1.9,4.5,1.4c0.6-0.2,1.1-0.5,1.6-0.9c0.5-0.5,0.9-1.1,1.2-1.8c0.1-0.4,0-0.9-0.2-1.2
		c-0.2-0.4-0.6-0.8-1-1.1c-0.3-0.2-0.7-0.3-1.1-0.2c-0.3,0.1-0.6,0.4-0.7,0.8v0.1l0.1-0.3c-0.1,0.3-0.3,0.7-0.6,0.9l0.2-0.3
		c-0.3,0.3-0.6,0.6-1,0.7l0.3-0.1c-0.4,0.2-0.7,0.3-1.1,0.3h0.4c-0.3,0-0.6,0-0.9,0l0.4,0.1c-0.2,0-0.3-0.1-0.5-0.1l0.4,0.2
		c-0.1,0-0.2-0.1-0.3-0.2l0.4,0.3c-0.1-0.1-0.1-0.1-0.2-0.2l0.3,0.4l-0.1-0.2c-0.3-0.4-0.7-0.7-1.1-0.8c-0.4-0.1-0.8-0.1-1.1,0.1
		C410.1,141,410.5,142.1,410.9,142.6L410.9,142.6z" fill="#d1d2d1"></path><path class="st0" d="M427.2,145c3.7-0.8,7.4-1.4,11.1-1.8c1.8-0.2,3.6-0.3,5.4-0.1c0.9,0.1,1.8,0.4,2.5,0.9c0.7,0.6,1,1.5,0.7,2.4
		c-0.5,0.8-1.4,1.3-2.4,1.4c-5,1.1-10.2,1.6-15.3,1.4" fill="#FFFFFF"></path><path class="st1" d="M427.5,146.5c3-0.7,6.1-1.2,9.2-1.6c1.6-0.2,3.2-0.4,4.8-0.4c0.9,0,2.5,0,3,1c0.1,0.3,0.1,0.5,0,0.8
		c0.1-0.2,0,0-0.1,0c0.2-0.1,0.2-0.1-0.1,0l-0.6,0.1c-1.5,0.3-3.1,0.6-4.6,0.8c-3.1,0.4-6.3,0.5-9.5,0.4c-1,0-2.6,0.6-2.8,1.7
		s1.3,1.4,2.1,1.5c4.1,0.1,8.2-0.2,12.3-0.8c2.6-0.4,9.4-1.2,8.2-5.4c-1.1-3.9-7.4-3.3-10.4-3c-4.1,0.4-8.2,1.1-12.2,1.9
		c-0.9,0.2-2.4,0.9-2.1,2S426.6,146.7,427.5,146.5L427.5,146.5z" fill="#d1d2d1"></path><path class="st1" d="M359.1,235.4c1.4,1.1,3.3,1.4,4.9,0.6c1.3-0.5,2.4-1.6,3-2.9c0.2-0.3,0.2-0.7,0-1c-0.2-0.3-0.6-0.5-1-0.6
		c-0.5-0.1-1,0-1.4,0.1c-0.4,0.1-0.8,0.4-1,0.8c-0.1,0.4-0.3,0.7-0.5,1l0.2-0.3c-0.2,0.3-0.4,0.5-0.6,0.7l0.3-0.3
		c-0.1,0.1-0.3,0.2-0.5,0.3s0.4-0.2,0.2-0.1l-0.1,0.1c-0.1,0-0.2,0.1-0.3,0.1l0.5-0.1c-0.2,0-0.3,0.1-0.5,0.1h0.5h-0.4h0.3l-0.5-0.1
		l0.4,0.1c-0.2-0.1-0.4-0.1-0.5-0.2l0.3,0.2c-0.1-0.1-0.3-0.2-0.4-0.3c-0.3-0.3-0.8-0.4-1.2-0.4c-0.5,0-1,0.1-1.4,0.4
		c-0.3,0.2-0.6,0.5-0.7,0.9C358.7,234.8,358.8,235.2,359.1,235.4L359.1,235.4z" fill="#d1d2d1"></path><path class="st1" d="M364.9,254.8l0.1-0.2l-0.3,0.5c0.2-0.4,0.5-0.7,0.8-1l-0.5,0.4c0.1-0.1,0.3-0.3,0.4-0.4
		c0.3-0.2,0.5-0.4,0.6-0.7c0.2-0.2,0.3-0.5,0.3-0.8c0.1-0.3,0.1-0.6-0.1-0.9c-0.1-0.3-0.2-0.6-0.4-0.8l-0.4-0.4
		c-0.3-0.2-0.7-0.3-1.1-0.4h-0.6c-0.4,0.1-0.9,0.3-1.2,0.6c-0.1,0.1-0.3,0.2-0.4,0.3c-0.3,0.3-0.5,0.5-0.8,0.8
		c-0.4,0.4-0.7,0.9-0.9,1.4c-0.1,0.3-0.2,0.6-0.2,0.9c0,0.3,0,0.6,0.1,0.9c0.1,0.3,0.3,0.5,0.5,0.7c0.2,0.2,0.5,0.4,0.8,0.4l0.6,0.1
		c0.4,0,0.9-0.1,1.3-0.2l0.6-0.4c0.3-0.3,0.6-0.6,0.8-1V254.8z" fill="#d1d2d1"></path><path class="st1" d="M346.7,237.1c1,1.4,2.8,2,4.5,1.4c0.6-0.2,1.1-0.5,1.6-0.9c0.5-0.5,0.9-1.1,1.2-1.8c0.1-0.4,0-0.9-0.2-1.2
		c-0.2-0.4-0.6-0.8-1-1.1c-0.3-0.2-0.7-0.3-1.1-0.2c-0.3,0.1-0.6,0.4-0.7,0.8v0.1l0.1-0.3c-0.1,0.3-0.3,0.7-0.6,0.9l0.2-0.3
		c-0.3,0.3-0.6,0.6-1,0.8l0.3-0.1c-0.4,0.2-0.7,0.3-1.1,0.3h0.4c-0.3,0-0.6,0-0.9,0l0.4,0.1c-0.2,0-0.3-0.1-0.5-0.1l0.4,0.2
		c-0.1,0-0.2-0.1-0.3-0.2l0.4,0.3c-0.1-0.1-0.1-0.1-0.2-0.2l0.3,0.4l-0.1-0.2c-0.3-0.4-0.7-0.7-1.1-0.8c-0.4-0.1-0.8-0.1-1.1,0.1
		c-0.7,0.6-0.3,1.6,0.1,2.3L346.7,237.1z" fill="#d1d2d1"></path><path class="st0" d="M359.8,241.4c2.8-2.3,6.2-3.8,9.8-4.1c1.3-0.2,2.5-0.1,3.8,0.3c2.1,0.8,3.3,3,4.1,5.1c0.5,1.4,0.7,3.2-0.5,4
		c-0.5,0.3-1.1,0.6-1.8,0.6c-4.1,0.6-8.2,0.5-12.2-0.3" fill="#FFFFFF"></path><path class="st1" d="M361.7,241.9c2-1.7,4.4-2.8,7-3.2c1.1-0.3,2.3-0.2,3.4,0.3c1,0.7,1.8,1.7,2.3,2.8c0.6,1.1,1,2.3,1,3.6
		c-0.1,0.3-0.2,0.7-0.3,1c0.1-0.1,0.3-0.1,0.4-0.2c-0.2,0-0.4,0.1-0.5,0.1c-0.3,0.1-0.7,0.1-1,0.1c-3.2,0.3-6.3,0.1-9.5-0.5
		c-1.2-0.2-2.5,0-3.5,0.7c-0.8,0.6-0.7,1.4,0.3,1.6c3.5,0.7,7,1,10.6,0.8c2.8-0.2,7.9-0.4,8.3-4c0.1-2.6-1-5.1-2.8-6.9
		c-2.6-2.4-6.4-2.1-9.6-1.5c-3.6,0.6-7.1,2.2-9.9,4.5c-0.7,0.6-0.7,1.3,0.3,1.6C359.5,242.8,360.7,242.5,361.7,241.9L361.7,241.9z" fill="#d1d2d1"></path><path class="st1" d="M418.2,222.7c1.4,1.1,3.3,1.4,4.9,0.7c1.3-0.5,2.4-1.6,3-2.9c0.2-0.3,0.2-0.7,0-1c-0.2-0.3-0.6-0.5-1-0.6
		c-0.5-0.1-1,0-1.4,0.1c-0.4,0.1-0.8,0.4-1,0.8c-0.1,0.4-0.3,0.7-0.5,1l0.2-0.3c-0.2,0.2-0.4,0.5-0.6,0.7l0.3-0.3
		c-0.2,0.1-0.3,0.2-0.5,0.3c-0.2,0.1,0.4-0.2,0.2-0.1l-0.1,0.1c-0.1,0-0.2,0.1-0.3,0.1l0.5-0.1c-0.2,0-0.3,0.1-0.5,0.1h0.5h-0.4h0.3
		c-0.2,0-0.3-0.1-0.5-0.1l0.4,0.1c-0.2-0.1-0.4-0.1-0.5-0.2l0.3,0.2c-0.1-0.1-0.3-0.2-0.4-0.3c-0.4-0.3-0.8-0.4-1.2-0.4
		c-0.5,0-1,0.1-1.4,0.4c-0.3,0.2-0.6,0.5-0.7,0.9C417.8,222.1,417.9,222.5,418.2,222.7L418.2,222.7z" fill="#d1d2d1"></path><path class="st1" d="M424,242.4c0.2-0.3,0.4-0.6,0.6-0.9l-0.4,0.4c0.2-0.2,0.4-0.5,0.7-0.6c0.2-0.2,0.4-0.4,0.5-0.7
		c0.3-0.5,0.3-1.1,0-1.6c-0.1-0.3-0.3-0.5-0.5-0.6l-0.5-0.3c-0.4-0.2-0.8-0.3-1.3-0.2l-0.7,0.1c-0.4,0.1-0.8,0.3-1.1,0.6
		c-0.4,0.3-0.8,0.7-1.1,1.1c-0.2,0.3-0.4,0.5-0.6,0.8c-0.3,0.5-0.4,1.1-0.2,1.6c0.1,0.3,0.3,0.5,0.5,0.7c0.2,0.2,0.4,0.4,0.7,0.5
		l0.6,0.2c0.4,0.1,0.9,0.1,1.3,0l0.6-0.2C423.5,243,423.8,242.7,424,242.4L424,242.4z" fill="#d1d2d1"></path><path class="st1" d="M405.9,224.4c1,1.4,2.8,2,4.5,1.4c0.6-0.2,1.1-0.5,1.6-0.9c0.5-0.5,0.9-1.1,1.2-1.8c0.1-0.4,0-0.9-0.2-1.2
		c-0.2-0.4-0.6-0.8-1-1.1c-0.3-0.2-0.7-0.3-1.1-0.2c-0.3,0.1-0.6,0.4-0.7,0.8v0.1l0.1-0.3c-0.1,0.3-0.3,0.7-0.6,0.9l0.2-0.3
		c-0.3,0.3-0.6,0.6-1,0.8l0.3-0.2c-0.4,0.2-0.7,0.3-1.1,0.3h0.4c-0.3,0-0.6,0-0.9,0l0.4,0.1c-0.2,0-0.3-0.1-0.5-0.1l0.4,0.2
		c-0.1,0-0.2-0.1-0.3-0.2l0.4,0.3c-0.1,0-0.1-0.1-0.2-0.2l0.3,0.4l-0.1-0.2c-0.3-0.4-0.7-0.7-1.1-0.8c-0.4-0.1-0.8-0.1-1.1,0.1
		C405,222.8,405.4,223.8,405.9,224.4L405.9,224.4z" fill="#d1d2d1"></path><path class="st0" d="M415.8,229c4.2-1.8,8.7-2.9,13.3-3.1c0.6-0.1,1.2,0,1.7,0.1c1.5,0.5,2.1,2.2,2.4,3.8c0.4,1.2,0.2,2.6-0.5,3.7
		c-0.8,0.8-1.8,1.2-2.9,1.3c-4.2,0.8-8.5,0.9-12.7,0.4" fill="#FFFFFF"></path><path class="st1" d="M417.2,231.1c3-1.3,6.2-2.2,9.5-2.8c1.6-0.3,3.2-0.5,4.8-0.4c0.3,0.1,0.6,0.2,0.9,0.3c0.4,0.4,0.3,0.1-0.4-0.7
		c-0.6-1-0.8-1.2-0.5-0.6c0.1,0.6,0.3,1.1,0.4,1.8c0.3,1.3-0.2,2.6-1.3,3.4c-1.3,0.6-2.7,0.9-4.1,1c-3.5,0.5-7.1,0.5-10.6,0.1
		c-0.6-0.1,0.4,1.6,0.5,1.8c0.3,0.6,0.7,1.1,1.1,1.6c0.2,0.2,0.6,0.8,0.9,0.8c3.2,0.4,6.4,0.4,9.6,0c1.5-0.1,2.9-0.4,4.3-0.7
		c1.2-0.2,2.1-1.1,2.5-2.2c0.3-1.2,0.2-2.5-0.2-3.7c-0.4-1.7-1.2-3.2-2.3-4.6c-0.9-1.2-1.9-2.3-3.4-2.4c-1.4,0-2.8,0.1-4.2,0.3
		c-3.5,0.5-6.9,1.4-10.1,2.8c-0.4,0.2,0.8,2.1,1,2.4S416.7,231.2,417.2,231.1L417.2,231.1z" fill="#d1d2d1"></path><rect class="st0" x="303.4" y="169.1" width="161.3" height="7.6" fill="#FFFFFF"></rect><path class="st1" d="M464,174.6H309.3c-2.1,0-4.2-0.1-6.3,0h-0.3l3,2.6v-7.6l-1.6,1.7h154.7c2.1,0,4.2,0.1,6.3,0h0.3l-3-2.5v7.6
		c0,2.4,4.6,3.8,4.6,0.9v-7.6c0-1.5-1.7-2.6-3-2.6H309.3c-2.1,0-4.2-0.1-6.3,0h-0.3c-0.9,0-1.6,0.7-1.6,1.6c0,0,0,0.1,0,0.1v7.6
		c0,1.5,1.7,2.5,3,2.5h154.7c2.1,0,4.2,0.1,6.3,0h0.3c0.9,0,1.6-0.8,1.6-1.7c0-0.2,0-0.4-0.1-0.6C466.5,175.3,465.3,174.5,464,174.6
		z" fill="#d1d2d1"></path><rect class="st0" x="305.6" y="260.9" width="161.3" height="7.6" fill="#FFFFFF"></rect><path class="st1" d="M466.1,266.5H311.4c-2.1,0-4.2-0.1-6.3,0h-0.3l3,2.6v-7.6l-1.5,1.3H461c2.1,0,4.2,0.1,6.3,0h0.3l-3-2.6v7.6
		c0,2,4.4,4,4.4,1.3v-7.6c0-1.3-1.8-2.6-3-2.6H324.6c-6.5,0-13-0.1-19.5,0h-0.3c-0.9,0-1.5,0.4-1.5,1.3v7.6c0,1.3,1.8,2.6,3,2.6
		h141.5c6.5,0,13,0.1,19.5,0h0.3c0.7,0.1,1.4-0.4,1.5-1.1c0-0.3,0-0.5-0.1-0.7C468.5,267.4,467.4,266.6,466.1,266.5z" fill="#d1d2d1"></path><path class="st1" d="M343.1,224.2c3.5,0.2,7.1-0.1,10.5-0.9c1-0.2,2.4-1.2,2.1-2.4c-0.4-1.2-1.6-1.8-2.8-1.5
		c-1.6,0.3-3.2,0.6-4.8,0.7h0.2H348h-0.7h-1.1c-0.8,0-1.7,0-2.5,0c-1.1,0-2.7,0.7-2.8,2c0,1.1,0.9,2.1,2,2.1
		C343,224.2,343.1,224.2,343.1,224.2L343.1,224.2z" fill="#d1d2d1"></path></g><g id="cart"><path class="st3" d="M104.4,341.4l12.2-0.1l30.2-0.2c13-0.1,25.9-0.2,38.9-0.4c12.8-0.1,25.7-0.3,38.5-0.5c9.3-0.1,18.7-0.3,28-0.5
		c2.4-0.1,4.9-0.1,7.3-0.3c2.2-0.1,4.4-0.6,5.6-2.6c1.2-2.3,2.2-4.8,2.9-7.3c1.4-4.3,2.7-8.7,3.9-13.1c3.3-12,6.4-24,9.3-36
		s5.8-24.1,8.6-36.2c1.6-6.9,3.2-13.9,4.8-20.8c0.1-0.3,0.1-0.7,0.2-1c0.1-0.5-0.5-0.7-0.9-0.7h-5.6h-15.3l-22.7-0.1l-27.6-0.1
		l-30.2-0.1l-30.5-0.1l-28.5-0.1l-24-0.1L92.4,221h-8.2h-0.4c-1.2,0-2.4,0.3-3.4,1c-0.7,0.5-0.7,1.2,0.4,1.2h5.6l15.3,0.1l22.7,0.1
		l27.6,0.1l30.2,0.1l30.5,0.1l28.5,0.1l24,0.1l17.3,0.1h5.4c0.9,0,1.9,0,2.8,0h0.4l-0.9-0.7c-1.1,4.9-2.2,9.7-3.3,14.6
		c-2.6,11.1-5.2,22.2-7.9,33.3c-3,12.5-6.1,25-9.4,37.4c-2.3,8.7-4.5,17.5-7.7,26c-0.4,1-0.8,2-1.3,3l-0.1,0.2c-0.1,0.1,0.2-0.3,0,0
		c-0.1,0.1-0.2,0.2-0.3,0.3s0,0,0.2-0.2c-0.3,0.2,0.3-0.2,0.3-0.2c0.5-0.3,1.1-0.5,1.7-0.6h-0.1c1.1-0.2,0.2,0-0.1,0l-1.1,0.1
		c-1.1,0.1-2.2,0.1-3.2,0.1c-8.1,0.3-16.3,0.4-24.5,0.5c-12.1,0.2-24,0.3-36.1,0.5c-13,0.2-26.1,0.3-39.1,0.4l-32.7,0.3l-17.1,0.1
		h-0.8c-1.2,0-2.4,0.3-3.4,1C103.4,340.6,103.4,341.3,104.4,341.4L104.4,341.4z"></path><path class="st3" d="M120.8,408.3h10.3l24.7-0.1l30.1-0.1l25.9-0.1c4.2,0,8.4,0.1,12.6,0h0.2c0.2,0,1.4-0.1,1.4-0.6l-1.5-12
		c-0.2-1.3-2.5-1.5-3.5-1.5h-12c-9.3,0-18.5,0-27.8,0c-10.4,0-20.9,0.1-31.3,0.2c-7.7,0.1-15.3,0.1-23,0.5c-1.7,0-3.4,0.1-5.1,0.5
		c-1.4,0.3-1.2,1.5-1.5,2.7c-0.7,2.5-1.5,5-2.4,7.5c-0.2,0.5-0.4,1.1-0.6,1.6c-0.4,1.2,4.4,2.4,4.9,1c0.6-1.8,1.2-3.5,1.8-5.3
		c0.4-1.3,0.8-2.6,1.2-3.9c0.1-0.2,0.7-1.9,0.4-2.1c0.1,0.1-0.5,0.5-0.3,0.4s-0.5,0.1-0.2,0c0.2,0,0.5-0.1,0.7-0.1
		c0.3-0.1-0.6,0-0.2,0h0.2l0.7-0.1l1.5-0.1c7.2-0.4,14.4-0.4,21.6-0.5c10.3-0.1,20.6-0.2,30.9-0.2c9.4,0,18.9,0,28.3,0
		c4.7,0,9.5,0.2,14.2,0h0.3l-3.5-1.5l1.5,12l1.4-0.6H212l-24.7,0.1l-30.1,0.1l-25.9,0.1c-4.2,0-8.4-0.1-12.6,0h-0.2
		c-0.7,0-1.8,0.3-1.1,1.1S119.8,408.3,120.8,408.3z"></path><path class="st3" d="M302.9,217.8h-6l-16.1,0.1l-24,0.1l-29.1,0.1l-31.9,0.1l-32.3,0.2l-30,0.1l-25.5,0.1l-18.2,0.1H81h-0.4
		c-1.9,0-3.9,0.2-5.7,0.7c-0.8,0.2-2.8,0.7-3.3,1.6c-1.4,2.1,4.8,2.3,5.4,2.3h6l16.2-0.1l24-0.1l29.1-0.1l31.9-0.1l32.3-0.2l30-0.1
		l25.5-0.1l18.2-0.1h8.7h0.4c1.9,0,3.9-0.2,5.7-0.7c0.8-0.2,2.8-0.7,3.3-1.6C309.7,217.9,303.5,217.8,302.9,217.8L302.9,217.8z"></path><path class="st3" d="M302,215.5l-51,0.2l-51.1,0.2l-50.8,0.2l-51,0.2l-12.5,0.1c-3.9,0-7.8-0.2-11.6,0.8c-1.2,0.3-2.8,0.7-3.6,1.7
		c-0.8,1.1-0.8,2.6,0,3.7c1.2,2.2,3.6,2.6,5.9,2.9c2.7,0.2,5.5,0.1,8.3,0.1l12.6-0.1l25.7-0.1l50.8-0.2l51.2-0.2l51.1-0.2
		c8.3,0,16.7,0.1,25-0.1c1.8,0,3.6-0.3,5.3-0.8c1.2-0.3,2.8-0.7,3.6-1.7c1.9-2.3-0.7-5.4-2.9-6.1C305.2,215.7,303.6,215.5,302,215.5
		c-2.1,0-0.2,4.6,1.7,4.6c0.6,0,1.1,0,1.7,0.1c0.7,0.1,1.9,0.4,2.2,0.4s0.7,0.7-0.2-0.3l-0.6-2c0.1-0.2,0-0.1-0.1,0.1
		c-0.5,0.2-1,0.6-1.6,0.8c-1.6,0.5-3.2,0.8-4.9,0.9c-3.7,0.3-7.5,0.1-11.3,0.1l-12.3,0.1l-48.6,0.2l-97.3,0.5l-48.5,0.2
		c-2.6,0.1-5.3,0.1-7.9-0.1c-0.4,0-0.8-0.1-1.1-0.2l-0.6-0.2c0,0-0.6-0.1-0.3-0.1c-0.1,0-0.2-0.1-0.3-0.2c0.1,0.4,2.9,2.1,1.1,2.6
		l0.5-0.4c0.4-0.2,0.8-0.4,1.2-0.5c3.3-1.2,6.9-1,10.4-1h11.7l97.7-0.5l97.3-0.5l11.8-0.1C305.8,220.1,304,215.5,302,215.5z"></path><path class="st3" d="M79.3,224.9c1.1,4.6,2.2,9.2,3.3,13.9c2.5,10.7,5,21.3,7.4,32c2.7,12,5.4,24,7.8,36.1
		c1.7,8.7,3.6,17.4,4.4,26.2c1.3,14.9,1.8,29.8,2.2,44.7c0,0.3,0,0.6,0,0.9c0,1.4,5,1.4,5,0.1c-0.3-13.4-0.9-26.8-1.8-40.3
		c-0.8-9.3-2.1-18.5-4-27.6c-2.3-11.9-4.9-23.8-7.6-35.7c-2.5-11.1-5.1-22.3-7.7-33.4c-1.3-5.6-2.5-11.2-4-16.8l-0.1-0.2
		C84,223.5,79.1,223.9,79.3,224.9L79.3,224.9z"></path><path class="st3" d="M118.5,220.5l1.2,11.6l2.9,27.8l3.6,33.7l3.1,29l1,9.6c0.2,1.5,0.2,3.1,0.5,4.5c0,0.1,0,0.1,0,0.2
		c0.2,1.8,5.1,1.1,4.9-0.9l-1.2-11.6l-2.9-27.8L128,263l-3.1-29l-1-9.6c-0.2-1.5-0.2-3.1-0.5-4.5c0-0.1,0-0.1,0-0.2
		C123.2,217.9,118.3,218.6,118.5,220.5L118.5,220.5z"></path><path class="st3" d="M150.7,220.6l0.4,11.6l1,27.8l1.2,33.6l1.1,29.1c0.2,4.7,0.2,9.4,0.5,14.1c0,0.1,0,0.1,0,0.2
		c0.1,2.4,4.9,1.1,4.8-0.9l-0.4-11.6l-1-27.8l-1.2-33.6l-1.1-29.1c-0.2-4.7-0.2-9.4-0.5-14.1c0-0.1,0-0.1,0-0.2
		C155.4,217.2,150.6,218.5,150.7,220.6L150.7,220.6z"></path><path class="st3" d="M175.9,220.2l0.1,11.6l0.1,27.9l0.1,33.8l0.1,29.2v9.6v3c0,0.5,0,1,0,1.6c0,0.1,0,0.1,0,0.2
		c0,1,4.9,1.4,4.9,0.9l-0.1-11.6l-0.1-27.9l-0.1-33.8l-0.1-29.2v-9.6v-3c0.1-0.5,0.1-1,0-1.6c0-0.1,0-0.1,0-0.2c0-1-4.9-1.4-4.9-0.9
		L175.9,220.2z"></path><path class="st3" d="M211.4,220.6c-0.4,3.7-0.9,7.4-1.3,11.1c-1.1,9-2.1,18-3.1,27c-1.3,11.1-2.5,22.2-3.8,33.2
		c-1.1,9.8-2.2,19.7-3.3,29.5c-0.6,5.5-1.3,11-1.6,16.5c0,0.2,0,0.4,0,0.6c0,2.2,4.5,4,4.5,1.2c0-1.6,0.2-3.1,0.4-4.7
		c0.3-3.2,0.6-6.3,0.9-9.5c1-9.5,2.1-19,3.1-28.5c1.3-11.1,2.5-22.2,3.8-33.3c1.1-9.4,2.2-18.8,3.3-28.1c0.4-3.1,0.7-6.2,1.1-9.3
		c0.2-1.4,0.5-2.9,0.5-4.4c0-0.1,0-0.1,0-0.2C216.2,219.6,211.7,217.8,211.4,220.6L211.4,220.6z"></path><path class="st3" d="M241.9,221.9c-0.7,3.2-1.3,6.3-1.9,9.5c-1.6,7.9-3.2,15.7-4.7,23.6c-2,10-3.9,20-5.8,30.1
		c-1.8,9.8-3.6,19.6-5.3,29.4c-1.2,7-2.4,14-3.1,21.1l-0.1,1.7c-0.1,1.3,4.5-0.2,4.6-1.5c0.5-6.5,1.6-13.1,2.7-19.5
		c1.6-9.6,3.3-19.2,5.1-28.8c1.9-10.1,3.8-20.3,5.8-30.4c1.6-8.3,3.3-16.5,4.9-24.8c0.5-2.7,1.1-5.3,1.6-7.9
		c0.3-1.2,0.6-2.5,0.8-3.7c0-0.1,0-0.1,0-0.2c0.2-0.9-1.7-0.4-2-0.3C243.8,220.4,242.1,221,241.9,221.9L241.9,221.9z"></path><path class="st3" d="M82,215.8c-5.5-4.9-11.2-9.5-17.1-13.8c-4.1-3.1-8.6-5.9-13.2-8.1c-0.9-0.4-1.9-0.8-2.8-1.2
		c-0.5-0.2-1.1-0.3-1.6-0.5l-0.5-0.2c0.1,0.1-0.4-0.3-0.6-0.3s0.3,0.2,0-0.1c-0.2-0.1,0.3,0.3,0,0c-0.2-0.2,0,0.3,0.1,0.1
		c0-0.1,0-0.1-0.1-0.2c0.5,0.4-0.3,0.1,0,0c0,0,0,0.1,0,0.2c0,0,0.1-0.2,0.1-0.2s0.3-0.5,0,0c0.2-0.3,0.4-0.6,0.7-0.9
		c0.1-0.1,0.4-0.4,0.3-0.3s0.3-0.3,0.4-0.4c0.4-0.3,0.8-0.6,1.2-0.9c0.8-0.5,1.6-1,2.5-1.4l0.6-0.3l-0.1,0.1l0.3-0.1l0.9-0.4
		l0.9-0.4l-3-0.7c8,6.3,15.4,13.3,22.3,20.8c2.3,2.4,4.3,5,6,7.7c1.3,2.2,5.9,1.2,4.3-1.5c-3.4-5.6-8.2-10.5-12.9-15
		c-4.3-4.2-8.7-8.1-13.3-12c-1-0.8-1.9-1.6-2.9-2.4c-0.8-0.8-1.9-1-3-0.7c-2.7,1-5.2,2.4-7.5,4.1c-1.4,1.1-2.8,2.6-2.7,4.5
		c0.1,2.5,2.7,4,4.8,4.8c1,0.4,2.1,0.7,3.1,1.1l0.8,0.3l0.5,0.2c0.2,0.1,1.1,0.5,1.5,0.8c2.3,1.3,4.6,2.7,6.8,4.2
		c4.5,3.1,8.6,6.3,12.8,9.7c2.3,1.9,4.7,3.9,6.9,5.9c0.9,0.9,2.3,1.1,3.5,0.5c0.8-0.6,1-1.8,0.4-2.6C82.2,216,82.1,215.9,82,215.8
		L82,215.8z"></path><ellipse class="st3" cx="42.6" cy="186.9" rx="9.5" ry="8.8"></ellipse><path class="st3" d="M49.6,187.1c0,2.3-1.1,4.5-3,5.8c-0.2,0.2-0.5,0.4-0.7,0.4l-0.6,0.3c-0.1,0-0.7,0.3-0.4,0.2
		c-0.6,0.2-1.2,0.3-1.9,0.4c-2.2,0-4.3-1-5.7-2.8c-2.6-3.1-2.3-7.7,0.8-10.3c0.5-0.5,1.1-0.8,1.8-1.1c1.2-0.5,2.5-0.7,3.7-0.4
		C47.1,180.5,49.6,183.6,49.6,187.1c0,1.8,5,1.4,5-0.6c-0.1-4.5-3.5-8.1-7.7-9.3c-4.7-1.4-10.5-0.2-13.8,3.6
		c-2.9,3.2-3.2,8-0.7,11.5c2.9,4.1,8.3,5.3,13,4.4c4.9-1,9.2-4.9,9.3-10.1c0-1.1-2-1.2-2.6-1.1C51.1,185.6,49.7,186,49.6,187.1z"></path><ellipse class="st3" cx="106.1" cy="401.7" rx="21.2" ry="20.6"></ellipse><path class="st3" d="M125.1,400.7c-0.1,8-5.1,15.2-12.6,18.1c-7.4,2.9-15.9,0.9-21.3-5c-5.1-5.8-5.4-14.5-1.5-21.1
		c4.2-6.9,12.2-10.5,20.1-9.2C118.4,384.7,124.9,392,125.1,400.7c0,1.2,0.7,2.4,1.9,2.9c0.8,0.4,2.4,0.2,2.4-1
		c-0.1-9.8-6.2-18.6-15.3-22.1c-8.9-3.4-19.6-1.3-26,6.1c-6.3,7.4-7.1,17.9-2.1,26.2c5.2,8.5,14.9,13,24.7,11.4
		c10.4-1.9,18.6-10.8,18.6-21.5c0-1.3-0.7-2.4-1.9-2.9C126.6,399.3,125.1,399.5,125.1,400.7z"></path><path class="st3" d="M99.5,404.2c-0.4,1.5,0.8,2.9,2.2,3.5c1.8,0.7,3.8,0.6,5.4-0.4c1.6-1,2.8-2.6,3.2-4.5c0.3-1.2,0.2-2.5-0.5-3.6
		c-0.7-1.1-1.9-1.7-3.2-1.5"></path><path class="st0" d="M97,404.4c-0.4,1.7,1.1,3.2,2.6,3.8c1.2,0.5,2.5,0.7,3.7,0.6c1.5,0,3-0.2,4.4-0.7c1.8-0.6,3.3-1.8,4.2-3.4
		c1-1.6,1.2-3.5,0.6-5.2c-1.2-2.8-4.7-2.9-7.3-2.3c-0.4,0.1-1.8,0.6-0.8,1c1.1,0.3,2.3,0.3,3.4,0c-0.7,0.1-1.3,0.2-2,0.1
		c-0.2,0-0.1,0,0,0c0.2,0.1,0.3,0.1,0.4,0.2c0.3,0.2,0.6,0.5,0.8,0.8c0.5,0.7,0.7,1.6,0.7,2.5c0,1.7-0.7,3.3-1.9,4.5
		c-0.2,0.2-0.5,0.5-0.8,0.7c-0.2,0.1-0.4,0.2-0.6,0.4l-0.3,0.1c0.1,0,0.1,0-0.1,0s-0.2,0.1,0,0c-0.2,0.1-0.2,0.1,0.1,0
		c-0.5,0.1,0.5,0,0,0c0.2,0,0.4,0,0.6,0c-0.2,0-0.2,0,0,0l-0.3-0.1c-0.2,0-0.2,0-0.1,0c-1.5-0.4-2.5-1.8-2.3-3.4
		c0.1-0.2-0.7-0.4-0.8-0.4c-0.6-0.1-1.2-0.1-1.8-0.1c-0.6,0-1.2,0.1-1.8,0.3C97.4,403.9,97.1,404,97,404.4L97,404.4z"></path><ellipse class="st3" cx="237.2" cy="400" rx="21.2" ry="20.6"></ellipse><path class="st3" d="M256.1,399c-0.1,8.2-5.1,15.6-12.6,18.8c-3.8,1.6-8,2.1-12.1,1.2c-3.4-0.8-6.5-2.8-8.6-5.6
		c-5.2-6.4-5.9-15.4-1.7-22.5c4.2-7.2,12.2-11.2,20.4-10.2C250.3,381.9,256,390.6,256.1,399c0,1.4,4.6,2.4,4.6,2
		c-0.1-9.9-6.9-17.4-15.7-20.9s-19.2-2-25.8,5.1c-6.2,6.9-7.1,17-2.2,24.9c5.2,8.1,15.8,12.8,25.3,11.5
		c10.3-1.4,18.4-10.1,18.5-20.6C260.6,399.7,256.1,398.7,256.1,399z"></path><path class="st3" d="M230.6,402.6c-0.4,1.5,0.8,2.9,2.2,3.5c1.8,0.7,3.8,0.5,5.4-0.4c1.6-1,2.7-2.6,3.1-4.5
		c0.3-1.2,0.2-2.5-0.5-3.6c-0.7-1.1-1.9-1.7-3.2-1.5"></path><path class="st0" d="M228.1,402.8c-0.4,1.7,1.1,3.1,2.6,3.7c1.2,0.4,2.5,0.6,3.7,0.5c1.6,0,3.2-0.2,4.7-0.6c1.7-0.5,3.1-1.7,4-3.2
		c1-1.6,1.2-3.5,0.5-5.2c-0.4-0.9-1.1-1.5-2-1.9c-0.7-0.2-1.4-0.3-2.1-0.3c-1.2,0-2.4,0.1-3.6,0.3c0,0-0.7,0.1-0.7,0.3
		s0.7,0.2,0.7,0.2c1.2,0.1,2.4,0,3.5-0.2c-3.6,0.8-3.6-0.2-2.5,0.3c0.2,0.1,0.4,0.2,0.6,0.3c0.3,0.2,0.6,0.5,0.8,0.8
		c0.5,0.8,0.7,1.6,0.7,2.5c0,1.7-0.7,3.4-1.9,4.6c-0.6,0.6-1.2,1-2,1.4l-0.3,0.1c-0.2,0-0.2,0.1-0.1,0h-0.2c0.5-0.1,0.9-0.1,1.4-0.1
		c0.6,0,0.8,0,0.4,0h-0.1c-0.2,0-0.4-0.1-0.6-0.1c-1.4-0.5-2.8-1.9-2.4-3.5c0.1-0.3-2.3-0.2-2.5-0.2c-0.6,0-1.2,0.1-1.8,0.2
		C228.7,402.4,228.2,402.5,228.1,402.8L228.1,402.8z"></path><path class="st1" d="M74.3,399.9c-0.4,4.4-0.7,9,1.1,13.2c1.9,4.2,5.2,7.7,9.2,10c1,0.5,0.2-1,0-1.2c-0.6-1-1.4-1.8-2.4-2.4
		c-2.2-1.2-3.8-3.3-4.3-5.8c-0.9-3.4-0.5-6.9-0.2-10.3c0.1-0.9-1.2-2-1.7-2.6C75.8,400.6,74.3,399.2,74.3,399.9L74.3,399.9z"></path><path class="st1" d="M66.4,408.8c-1.6,5.1,0,10.7,4.1,14.2c1.4,1.2,5.6-1.6,3.9-2.9c-3.5-2.9-4.8-7.7-3.5-12
		c0.4-1.1-0.9-1.5-1.7-1.3C68,406.9,67,407.7,66.4,408.8L66.4,408.8z"></path><path class="st1" d="M255.9,379.7l0.5,0.1c0.1,0,0.6,0.2,0,0c0.3,0.1,0.6,0.2,0.8,0.4s0.6,0.3,0.9,0.5c0.1,0.1,0.5,0.3,0.1,0
		l0.3,0.2c0.6,0.4,1.1,0.8,1.6,1.3c-0.2-0.1-0.1-0.1,0,0l0.4,0.4c0.2,0.3,0.4,0.5,0.6,0.8l0.6,0.8l0.3,0.5c0.2,0.4-0.2-0.5,0.1,0.2
		c0.3,0.6,0.6,1.3,0.9,1.9c0.3,0.7,0.5,1.3,0.7,2c0.1,0.4,0.2,0.7,0.3,1.1c0,0.1,0.1,0.3,0,0.1l0.1,0.7c0.3,1.3,1.4,2.2,2.7,2.1
		c1,0,2.6-0.8,2.3-2.1c-0.6-3.4-2-6.7-4.1-9.6c-2.1-2.8-5-4.7-8.3-5.6c-1.1-0.3-2.7,0.2-2.9,1.5
		C253.7,378.3,254.6,379.4,255.9,379.7L255.9,379.7z"></path><path class="st1" d="M265.6,378.6C264.9,378.2,265.6,378.6,265.6,378.6c0.2,0.1,0.2,0.2-0.1,0l0.2,0.2l0.2,0.2
		c-0.3-0.2-0.3-0.3-0.1-0.1l0.4,0.5c0.1,0.2,0.1,0.2,0-0.1l0.2,0.3c0.1,0.2,0.2,0.4,0.3,0.5s0.2,0.4,0.3,0.6
		c-0.2-0.4,0.1,0.2,0.1,0.3c0.6,1.9,0.8,3.8,0.7,5.8c0.2,1.2,1,2.1,2.1,2.4c0.6,0.2,2.4,0.5,2.4-0.7c0.1-2.4-0.3-4.9-1-7.2
		c-1-2.5-3-4.5-5.5-5.6c-0.7-0.3-2.4-0.4-2.4,0.7S264.7,378.2,265.6,378.6L265.6,378.6z"></path><path class="st3" d="M254.1,255.5c0,0,2.7-0.4,2.9,2.2s-3.1,2.9-3.9,0.7c-0.5-1-0.2-2.2,0.7-2.7C253.9,255.5,254,255.5,254.1,255.5
		z"></path><path class="st3" d="M269.9,248.5c0,0,2.7-0.4,2.9,2.2s-3.1,2.9-3.9,0.7c-0.5-1-0.2-2.2,0.7-2.7
		C269.7,248.6,269.8,248.5,269.9,248.5z"></path><path class="st3" d="M257.6,270.7c0.4-0.2,0.7-0.5,1.1-0.6l-0.3,0.1c0.2-0.1,0.4-0.1,0.6-0.2h0.1c0.1,0,0.1,0-0.2,0h0.1
		c0.2,0,0.1,0-0.2,0c0.4,0-0.6-0.1-0.2,0c-0.1,0-0.7-0.2-0.3-0.1s-0.7-0.3-0.2-0.1l0.3,0.1l0.2,0.1c0.4,0.2-0.5-0.3-0.2-0.1l0.5,0.2
		c0.3,0.2-0.4-0.3-0.2-0.1c0.1,0,0.2,0.1,0.2,0.2s-0.3-0.3-0.1-0.1c0.1,0.1,0.1,0.2,0.2,0.2l-0.2-0.3c0,0,0.1,0.1,0.1,0.1
		c0.2,0.4,0.5,0.7,0.9,0.9c0.6,0.3,1.2,0.6,1.8,0.7c0.5,0.1,1,0.1,1.6,0c0.2-0.1,0.6-0.3,0.5-0.6c-0.4-0.8-1.1-1.5-1.9-1.9
		c-0.8-0.5-1.7-1-2.7-1.3c-1.2-0.5-2.5-0.6-3.7-0.3c-0.7,0.2-1.4,0.6-2.1,1c-0.3,0.2-0.1,0.6,0,0.8c0.4,0.4,0.8,0.7,1.3,0.9
		c0.6,0.3,1.2,0.5,1.9,0.5C256.8,270.9,257.2,270.8,257.6,270.7L257.6,270.7z"></path><path class="st0" d="M267.7,266.4c7.5-0.8,14.8-2.7,21.7-5.6c1.5-0.5,2.9-1.4,3.9-2.6c1-1.3,1.1-3.3-0.1-4.3
		c-0.5-0.4-1.2-0.7-1.9-0.8c-8.4-2-17.1,1.2-25.1,4.4"></path><path class="st3" d="M266.1,267.4c4.6-0.5,9.2-1.4,13.7-2.6c4.4-1.2,9.1-2.6,13.1-4.9c1.5-0.9,3-2.1,3.3-3.9
		c0.4-1.6-0.6-3.3-2.3-3.7c0,0-0.1,0-0.1,0c-4.2-1.2-8.9-0.9-13.2-0.1c-5.3,1.2-10.4,2.8-15.4,4.9c-0.4,0.1-1.9,0.7-1.4,1.3
		s2.6-0.4,3-0.5c4.1-1.8,8.4-3.1,12.9-4c2.2-0.4,4.5-0.5,6.8-0.2c1.8,0.2,4.6,0.4,5,2.7c0.3,1.9-1.1,3.3-2.7,4
		c-2.1,0.9-4.2,1.7-6.3,2.3c-4.4,1.4-8.8,2.3-13.4,2.8c-1.2,0.1-2.3,0.5-3.4,1.1C265.2,267,265.1,267.5,266.1,267.4L266.1,267.4z"></path><path class="st3" d="M97.7,295.3c0.7-0.1,1.4-0.1,2.1-0.1c0.4,0-0.4,0,0,0h0.4l1,0l2.3-0.1c4.5-0.2,8.9-0.3,13.4-0.4
		c13.9-0.4,27.7-0.7,41.6-1c16.5-0.4,33-0.7,49.5-1c14.4-0.3,28.8-0.6,43.3-0.8c7.7-0.1,15.3-0.3,23-0.4h0.8c2.5,0,0.3-4.3-1.6-4.3
		c-6.5,0-13.1,0.2-19.6,0.3c-13.9,0.3-27.7,0.5-41.6,0.8c-16.6,0.3-33.1,0.7-49.7,1c-14.4,0.3-28.8,0.7-43.2,1
		c-7.7,0.2-15.5,0.2-23.2,0.8c-0.2,0-0.5,0-0.7,0.1C93.3,291.4,95.8,295.6,97.7,295.3L97.7,295.3z"></path><path class="st1" d="M197.5,133.8l0.3-0.1h0.5c0.1,0,0.3,0,0,0h0.2c1,0,2,0.2,2.9,0.6c0.4,0.2-0.3-0.1,0.2,0.1l0.4,0.2
		c0.3,0.1,0.5,0.3,0.8,0.5c0.5,0.4,1,0.9,1.5,1.4c0.8,0.9,1.5,1.9,2,3c0.1,0.2,0.4,0.9,0.5,1.2c0.1,0.3,0.2,0.5,0.2,0.8
		c-0.1-0.4,0,0.2,0,0.4s0,0.2,0,0.2c0,0.3,0.1-0.3,0-0.1c-0.2,0.4,0.2-0.3,0,0c0-0.1,0.4-0.3,0.1-0.1c0.1-0.1,0.3-0.2,0.5-0.2
		c0.4-0.1,0.9-0.1,1.4,0.1c0.4,0.1,0.2,0.1,0.1,0s0.3,0.2,0.3,0.2s-0.3-0.3-0.3-0.3c0.3,0.2,0.2,0.3,0,0l-0.3-0.5l-0.3-0.5
		c-0.2-0.3,0.1,0.2-0.1-0.2s-0.4-0.9-0.6-1.4c-0.7-2-1-4-0.8-6.1c0-0.3,0,0.1,0.1-0.4c0-0.2,0.1-0.5,0.2-0.7
		c0.1-0.2,0.1-0.4,0.2-0.6c0.1-0.4-0.1,0,0.2-0.3c0.7-1.1,1.6-2,2.6-2.7c-0.1,0.1,0.4-0.2,0.6-0.3l0.3-0.1c0.4-0.1-0.3,0.1,0,0
		c0.1,0,0.2,0,0.3,0c-0.5,0.1-0.1,0,0,0s0.4,0,0.1,0s0.1,0,0.2,0.1c-0.6-0.3,0.2,0.2,0,0s0.1,0.2,0,0s0.1,0.1,0.1,0.1
		c0.3,0.5,0.5,1.1,0.6,1.7c0.2,1.2,0.1,2.5-0.3,3.6c-0.1,0.3-0.2,0.5-0.3,0.8s-0.1,0.2,0,0.1c0,0.1-0.1,0.2-0.1,0.3
		c-0.1,0.2-0.2,0.3-0.3,0.5c-0.2,0.4,0-0.1,0.1-0.1l-0.1,0.1c-0.6,0.4,0,0.5,1.6,0.4c1.2,0.3,1.5-0.1,1.8,0.7c0.2,0.5,0,0.1,0,0.4
		s0,0.2,0,0.1c0.1-0.4-0.2,0.3-0.1,0.2s-0.4,0.3-0.2,0.2s-0.5,0.2-0.2,0.1c-0.2,0.1-0.3,0.1-0.5,0.1c-0.1,0-0.8-0.2-0.4,0
		c0,0-0.5-0.2-0.2-0.1s-0.2-0.2,0.1,0.1c0.2,0.2,0.4,0.4,0.5,0.6c0.1,0.2,0.4,0.7,0.5,0.8c0.1,0.2,0.1,0.3,0.2,0.5l0.1,0.2
		c0-0.1,0-0.1,0,0s0,0.2,0,0.3c0,0.6,0.1-0.1,0,0.1c0,0.1-0.1,0.2-0.1,0.4c-0.1,0.3,0.2-0.2,0,0c-0.1,0.1-0.1,0.2-0.2,0.3
		c-0.2,0.2,0.4-0.2-0.1,0.1l-0.2,0.2c-0.2,0.1,0.3-0.1-0.1,0.1c-0.1,0.1-0.8,0.3-0.4,0.2c-0.2,0-0.9,0.1-0.5,0.1c-0.1,0-0.3,0-0.4,0
		c-0.1,0-0.7-0.1-0.4,0s-0.9-0.4-0.4-0.1c-1.1-0.5-2.6-0.7-3.4,0.4c-0.6,1-0.3,2.3,0.7,2.8c0.1,0,0.1,0.1,0.2,0.1
		c1.9,1,4.2,1.2,6.2,0.6c1.7-0.4,3.1-1.7,3.8-3.3c0.7-2-0.2-4.1-1.4-5.7s-3.1-3.1-5.3-2.8c-1.6,0.2-2.7,1.6-2.7,3.1
		c0.2,1.7,1.8,2.9,3.5,2.7c0.5-0.1,1-0.3,1.5-0.6c1.2-1.1,2.1-2.7,2.3-4.3c0.6-2.2,0.4-4.4-0.4-6.5c-0.8-1.9-2.5-3.3-4.5-3.7
		c-2-0.3-4,0.2-5.6,1.3c-3,2-4.8,5.5-4.5,9.1c0.1,3.1,1,6.2,2.6,8.9c0.7,1.2,1.7,2.1,3,2.6c1.7,0.6,3.6-0.3,4.2-2
		c0.5-1.7-0.2-3.6-0.9-5.1c-1-2.2-2.4-4.1-4.1-5.7c-2.8-2.6-6.7-3.7-10.5-3.2c-1.1,0.1-1.8,1-1.8,2c0,0.1,0,0.2,0.1,0.3
		c0.5,1.2,1.7,1.9,3,1.7L197.5,133.8z"></path><path class="st1" d="M164,192.4c-2.7-0.5-5.5,0.2-7.8,1.8c-1.5,1.2-2.8,2.7-3.7,4.4c-0.9,1.3-1.4,2.8-1.4,4.3
		c0.1,1.9,2.4,2.9,3.9,3.6c1,0.4,1.8,0.5,2.6-0.3c1.7-1.9,2.5-4.9,2.8-7.4c0.2-1.5,0.2-2.9-0.1-4.4c-0.5-1.6-1.4-3-2.6-4.1
		c-1.8-1.8-4.1-3.1-6.5-3.8c-1.4-0.5-2.9-0.2-3.9,0.8c-2.3,2.4-1.7,7.3,0.1,9.7c0.7,0.8,1.5,1.5,2.4,1.9c0.5,0.3,2.1,1.4,2.8,0.9
		c0.9-0.6-0.2-1.8-0.7-2.2c-1.5-1.2-4-2.9-5.8-1.5c-1.5,1.1-2.7,3.3-2.1,5.1c0.6,2.1,3.4,3.4,5.2,4.2c1.8,0.9,3.8,0.9,5.6,0.1
		c0.2-0.1-1.8-1.5-2-1.6c-0.5-0.3-1.7-1.2-2.4-0.9c-0.6,0.3-1.2,0.4-1.8,0.5c-0.6,0.1-1.1-0.1-1.6-0.1l1.6,0.9
		c0.5,0.3,0.2,0.2,0.1,0.1s-0.2-0.3-0.3-0.5c-0.2-0.5-0.3-1.1-0.2-1.6c0.3-1.4,1-2.7,2.2-3.6c0.3-0.2,0.7-0.4,1.1-0.5
		c0.3-0.1,0.1,0,0.1,0s-3.2-1.9-3.2-1.9s0.1,0.2,0.2,0.4s-0.1,0.4-0.2,0.6c-0.2,0.7,4.1,3,3.3,1.7c-0.1-0.2-0.3-0.4-0.4-0.6
		c-0.6-1.2-1-2.5-1.1-3.8c-0.1-2.2,0.6-5.7,3.4-5.8c0.3,0,0.5,0,0.8,0s0.4,0.2,0-0.1c-0.2-0.1-0.9-0.7-0.4-0.2
		c0.3,0.3,0.6,0.6,0.8,0.9c0.7,0.8,1.2,1.8,1.4,2.8c0.4,2.2,0.2,4.5-0.5,6.6c-0.4,1.8-1.2,3.5-2.4,4.9c-0.2,0.2-0.4,0.3-0.6,0.4
		c-0.1,0.1-0.2,0-0.3,0.1c1.7-0.7,3.7,3.2,3.3,1.6c-0.2-0.9-0.1-1.8,0.3-2.6c1-3,3-5.5,5.7-7.2c1.3-0.7,2.7-1.2,4.2-1.2
		c0.6-0.1,1.2-0.1,1.8,0c1,0.2-0.3-0.8-0.5-1c-0.9-0.7-1.9-1.3-3.1-1.6L164,192.4z"></path><path class="st1" d="M187.9,206.7c5.1-9.3,5.9-20,6.2-30.4c0.2-5.5,0.3-11.3-1.7-16.5c-1.5-4.3-4.6-7.9-8.6-10.2
		c-4.2-2.3-9.2-2.3-13.4,0.1c-3.4,2-6.2,6.2-4.8,10.2c0.8,2.3,2.7,4.1,5.1,4.6c2.4,0.6,5-0.5,6.2-2.7c2.1-4,1.7-9,0-13.1
		c-4.5-10.8-17-14.4-27.7-12.9c-1,0.1-1.8,1-1.3,2s2.2,1.3,3.3,1.2c7.2-1,15.2,0.9,19.4,7.2c2,2.9,3,6.5,2.7,10
		c-0.1,0.9-0.3,1.8-0.6,2.7c-0.1,0.4-0.3,0.8-0.5,1.1c-0.2,0.4-0.6,0.7-0.8,1.1s-0.3-0.1,0.1,0.2c-0.1-0.1-0.2-0.2-0.4-0.3
		c-0.6-0.6-0.9-1.3-1.1-2.2c-0.5-3.2,2.1-6.1,4.9-7.2s5.8-0.2,8,1.8c6.6,5.8,6.2,15.4,6,23.4c-0.3,9.6-1.2,19.5-5.9,28
		C182.2,207.1,187,208.5,187.9,206.7L187.9,206.7z"></path></g></svg>