<svg transform="scale(1)" version="1.1" id="_x30_515_x5F_Add_to_Cart_2" xmlns="http://www.w3.org/2000/svg" xmlns:xlink="http://www.w3.org/1999/xlink" x="0px" y="0px" viewBox="0 0 500 500" xml:space="preserve" class="show_show__wrapper__graphic__5Waiy "><title>React</title><style type="text/css">
	.st0{fill:#c1c1c1;}
	.st1{fill:#d8d8d8;}
	.st2{fill:#FFFFFF;}
	.st3{fill:none;}
</style><g id="phone-reel"><path class="st0" d="M406,381.1L406,381.1v-10.6l-54.6-6.7l-123.4-36.3c-4-1.2-8.2-1.3-12.3-0.5l-60.9,12.5l-26.7-3.3l0.2,10.2l0,0
		c-0.1,0.9,0.4,1.7,1.2,2.1l163.5,69.1c4.1,1.7,8.6,1.8,12.8,0.4l98.6-34.8C405.4,383,406.1,382.1,406,381.1z"></path><path class="st1" d="M300.1,419.6c-2.4,0-4.9-0.5-7.1-1.4L129.4,349c-1-0.4-1.7-1.4-1.6-2.5l0,0l-0.2-10.2c0-0.2,0.1-0.3,0.2-0.4
		c0.1-0.1,0.3-0.2,0.4-0.1l26.6,3.3l60.8-12.5c4.2-0.9,8.5-0.7,12.5,0.5l123.4,36.3l54.5,6.8c0.3,0,0.5,0.3,0.5,0.5v10.6
		c0,0,0,0.1,0,0.1c0,1.2-0.7,2.2-1.8,2.5l-98.5,34.8C304.3,419.3,302.2,419.6,300.1,419.6z M128.9,346.4v0.1
		c-0.1,0.6,0.3,1.3,0.9,1.5l163.6,69.2c3.9,1.7,8.4,1.8,12.4,0.4l98.6-34.8c0.7-0.2,1.1-0.8,1.1-1.6c0-0.1,0-0.1,0-0.2v-10
		l-54.1-6.7L227.9,328c-3.9-1.1-8-1.3-12-0.5L155,340.1c-0.1,0-0.1,0-0.2,0l-26-3.3L128.9,346.4z"></path><path class="st2" d="M404.6,372.2l-98.7,35.2c-4.2,1.5-8.7,1.4-12.8-0.3l-163.7-68.8c-1-0.4-1.5-1.6-1.1-2.7
		c0.3-0.6,0.8-1.1,1.5-1.2l85.7-17.9c4.1-0.8,8.3-0.7,12.3,0.5l176.6,51.4c1.1,0.2,1.8,1.3,1.5,2.4
		C405.8,371.5,405.3,372,404.6,372.2z"></path><path class="st1" d="M300,409c-2.4,0-4.8-0.5-7.1-1.4l-163.7-68.8c-1.1-0.4-1.7-1.5-1.6-2.6c0.1-1.1,0.9-2.1,2.1-2.3l85.7-17.9
		c4.2-0.9,8.5-0.7,12.5,0.5l176.6,51.4c1.1,0.3,1.9,1.3,1.9,2.4c0,1.1-0.7,2.2-1.8,2.5L306.1,408C304.1,408.7,302,409,300,409z
		 M220.7,316.5c-1.7,0-3.4,0.2-5.1,0.5l-85.7,17.9c-0.8,0.2-1.3,0.9-1.2,1.8c0.1,0.5,0.4,0.9,0.9,1.1l163.7,68.8
		c3.9,1.7,8.4,1.8,12.4,0.3l98.6-35.2c0.7-0.2,1.1-0.8,1.1-1.5c0-0.7-0.5-1.2-1.2-1.4l-176.6-51.4
		C225.5,316.8,223.1,316.5,220.7,316.5L220.7,316.5z"></path><path class="st2" d="M300,400.1c-1.1,0-2.2-0.2-3.3-0.7l-146.1-61.1l66.7-13.7c2.7-0.6,5.4-0.5,8.1,0.3l157,46.1l-79.6,28.6
		C301.8,399.9,300.9,400.1,300,400.1z"></path><path class="st1" d="M299.9,400.6c-1.2,0-2.4-0.2-3.4-0.7l-146.1-61.1c-0.2-0.1-0.4-0.3-0.3-0.6c0-0.2,0.2-0.4,0.4-0.5l66.7-13.7
		c1-0.2,2-0.3,3-0.4c1.8,0,3.6,0.2,5.3,0.7l157,46.1c0.2,0.1,0.4,0.3,0.4,0.5c0,0.2-0.1,0.5-0.4,0.5L303,400.1
		C302,400.4,301,400.6,299.9,400.6L299.9,400.6L299.9,400.6z M299.9,400.1L299.9,400.1z M152.3,338.5l144.6,60.4
		c1,0.4,2,0.6,3.1,0.6l0,0c0.9,0,1.8-0.2,2.6-0.5l78-28l-155.4-45.6c-1.6-0.5-3.3-0.7-5-0.6c-0.9,0-1.9,0.1-2.8,0.3L152.3,338.5z"></path><path class="st1" d="M316.8,394.5l0.6-5.1c0.2-1.8,1.4-3.2,3.1-3.8l27.3-9.4c2.7-0.9,5.5-1.2,8.3-0.9l10.5,1.2L316.8,394.5z"></path><path class="st1" d="M316.8,395c-0.1,0-0.2,0-0.3-0.1c-0.2-0.1-0.2-0.3-0.2-0.5l0.6-5.1c0.3-2,1.6-3.6,3.5-4.2l27.3-9.4
		c2.7-0.9,5.7-1.2,8.5-0.9l10.5,1.2c0.3,0,0.4,0.2,0.5,0.5c0,0.2-0.1,0.5-0.4,0.6L317,395C316.9,395,316.9,395,316.8,395z
		 M354,375.8c-2,0-4,0.3-6,1l-27.3,9.4c-1.5,0.5-2.6,1.8-2.8,3.3l-0.5,4.2l46.8-16.8l-8.2-0.9C355.4,375.9,354.7,375.8,354,375.8z"></path></g><g id="trolley"><ellipse class="st1" transform="matrix(5.773823e-02 -0.9983 0.9983 5.773823e-02 -69.2484 608.7887)" cx="287.9" cy="341.1" rx="8.5" ry="5.5"></ellipse><path class="st1" d="M287.6,350.1c-1.2,0-2.3-0.5-3.1-1.3c-1.8-2-2.8-4.6-2.7-7.3c0-4.9,2.7-9.2,6-9.4c1.3-0.1,2.5,0.4,3.4,1.3
		c1.8,2,2.8,4.6,2.7,7.3c0,4.9-2.7,9.2-6,9.4L287.6,350.1z M288.2,333.1h-0.2c-2.8,0.2-5,4-5,8.3c-0.1,2.4,0.7,4.7,2.3,6.5
		c0.7,0.7,1.6,1,2.6,1c2.8-0.2,5-4,5-8.3c0.1-2.4-0.7-4.7-2.3-6.5C289.9,333.5,289,333.2,288.2,333.1z"></path><polygon class="st1" points="287.9,349.5 285.1,349.4 285.1,332.5 288.7,332.7 	"></polygon><path class="st1" d="M287.9,350.1L287.9,350.1l-2.7-0.1c-0.3,0-0.5-0.3-0.5-0.5v-16.9c0-0.2,0.1-0.3,0.2-0.4
		c0.1-0.1,0.2-0.2,0.4-0.1l3.6,0.2c0.1,0,0.3,0.1,0.4,0.2c0.1,0.1,0.1,0.2,0.1,0.4l-0.9,16.9C288.4,349.8,288.2,350.1,287.9,350.1
		C287.9,350.1,287.9,350.1,287.9,350.1z M285.7,348.9l1.7,0.1l0.8-15.8l-2.5-0.1L285.7,348.9z"></path><ellipse class="st2" transform="matrix(5.773823e-02 -0.9983 0.9983 5.773823e-02 -71.6884 605.9177)" cx="285.1" cy="340.9" rx="8.5" ry="5.5"></ellipse><path class="st1" d="M284.9,349.9c-1.2,0-2.3-0.5-3.1-1.3c-1.8-2-2.8-4.6-2.7-7.3c0-4.9,2.7-9.2,6-9.4c1.3-0.1,2.5,0.4,3.4,1.3
		c1.8,2,2.8,4.6,2.7,7.3c0,4.9-2.7,9.2-6,9.4L284.9,349.9z M285.4,333h-0.2c-2.8,0.2-5,4-5,8.3c-0.1,2.4,0.7,4.7,2.3,6.5
		c0.7,0.7,1.6,1.1,2.6,1c2.8-0.2,5-4,5-8.3c0.1-2.4-0.7-4.7-2.3-6.5C287.2,333.4,286.3,333,285.4,333z"></path><ellipse class="st0" transform="matrix(5.773823e-02 -0.9983 0.9983 5.773823e-02 -71.6884 605.9177)" cx="285.1" cy="340.9" rx="3.9" ry="2.5"></ellipse><path class="st1" d="M285,345.3c-0.6,0-1.2-0.2-1.6-0.7c-0.9-1-1.4-2.2-1.3-3.5c0-2.4,1.3-4.5,3-4.6c0.7-0.1,1.3,0.2,1.8,0.7
		c0.9,1,1.4,2.2,1.3,3.5c0,2.4-1.3,4.5-3,4.6H285z M285.3,337.6L285.3,337.6c-1.2,0.1-2.1,1.7-2.1,3.5c-0.1,1,0.3,2,1,2.7
		c0.3,0.3,0.6,0.4,1,0.4c1.1-0.1,2-1.7,2-3.5c0-1-0.3-2-1-2.7C285.9,337.7,285.6,337.6,285.3,337.6L285.3,337.6z"></path><ellipse class="st1" transform="matrix(5.773767e-02 -0.9983 0.9983 5.773767e-02 -82.0796 578.1577)" cx="265.2" cy="332.6" rx="8.5" ry="5.5"></ellipse><path class="st1" d="M265,341.6c-1.2,0-2.3-0.5-3.1-1.3c-1.8-2-2.8-4.6-2.7-7.3c0-4.9,2.7-9.2,6-9.4c1.3-0.1,2.5,0.4,3.4,1.3
		c1.8,2,2.8,4.6,2.7,7.3c0,4.9-2.7,9.2-6,9.4L265,341.6z M265.5,324.6h-0.2c-2.8,0.2-5,4-5,8.3c-0.1,2.4,0.7,4.7,2.3,6.5
		c0.7,0.7,1.6,1,2.6,1c2.8-0.2,5-4,5-8.3c0.1-2.4-0.7-4.7-2.3-6.5C267.3,325,266.4,324.6,265.5,324.6L265.5,324.6z"></path><polygon class="st1" points="265.2,341 262.5,340.9 262.5,324 266.1,324.1 	"></polygon><path class="st1" d="M265.2,341.5L265.2,341.5l-2.7-0.1c-0.3,0-0.5-0.3-0.5-0.5V324c0-0.2,0.1-0.3,0.2-0.4c0.1-0.1,0.2-0.2,0.4-0.1
		l3.6,0.2c0.1,0,0.3,0.1,0.4,0.2c0.1,0.1,0.1,0.2,0.1,0.4l-0.9,16.8C265.8,341.3,265.6,341.5,265.2,341.5
		C265.2,341.5,265.2,341.5,265.2,341.5z M263.1,340.3l1.7,0.1l0.8-15.8l-2.5-0.1L263.1,340.3z"></path><ellipse class="st2" transform="matrix(5.773767e-02 -0.9983 0.9983 5.773767e-02 -84.5196 575.2866)" cx="262.5" cy="332.4" rx="8.5" ry="5.5"></ellipse><path class="st1" d="M262.2,341.4c-1.2,0-2.3-0.5-3.1-1.3c-1.8-2-2.8-4.6-2.7-7.3c0-4.9,2.7-9.2,6-9.4c1.3-0.1,2.5,0.4,3.4,1.3
		c1.8,2,2.8,4.6,2.7,7.3c0,4.9-2.7,9.2-6,9.4L262.2,341.4z M262.8,324.5h-0.2c-2.8,0.2-5,4-5,8.3c-0.1,2.4,0.7,4.7,2.3,6.5
		c0.7,0.7,1.6,1,2.6,1c2.8-0.2,5-4,5-8.3c0.1-2.4-0.7-4.7-2.3-6.5C264.5,324.9,263.7,324.5,262.8,324.5L262.8,324.5z"></path><ellipse class="st0" transform="matrix(5.773702e-02 -0.9983 0.9983 5.773702e-02 -84.5194 575.2868)" cx="262.5" cy="332.4" rx="3.9" ry="2.5"></ellipse><path class="st1" d="M262.4,336.8c-0.6,0-1.2-0.2-1.6-0.7c-0.9-1-1.4-2.2-1.3-3.5c0-2.4,1.3-4.5,3-4.6c0.7,0,1.3,0.2,1.8,0.7
		c0.9,1,1.4,2.2,1.3,3.5c0,2.4-1.3,4.5-3,4.6H262.4z M262.6,329.1L262.6,329.1c-1.2,0.1-2.1,1.7-2.1,3.5c-0.1,1,0.3,2,1,2.7
		c0.2,0.3,0.6,0.4,1,0.4c1.1-0.1,2-1.7,2-3.5c0.1-1-0.3-2-1-2.7C263.3,329.2,263,329.1,262.6,329.1z"></path><path class="st2" d="M293.5,346.2c-1.1,0-2.1-0.2-3.1-0.5l-36.1-13c-1.4-0.5-2.2-2-1.7-3.4s2-2.2,3.4-1.7c0,0,0.1,0,0.1,0.1
		l36.1,13.1c1.9,0.7,4-0.3,4.7-2.2c0.1-0.4,0.2-0.8,0.2-1.3c0-1.4-0.7-2.6-1.9-3.3l-35.5-19.1c-4.4-2.4-7.5-6.5-8.5-11.4
		l-21.4-101.9c-0.6-2.1-2-3.9-3.8-5.2l-9.6-6.6c-1.3-0.8-1.6-2.5-0.8-3.8c0.8-1.3,2.5-1.6,3.8-0.8c0,0,0.1,0.1,0.1,0.1l9.6,6.6
		c2.9,2,5,4.9,5.9,8.2c0,0.1,0,0.1,0,0.2l21.4,102c0.7,3.3,2.8,6.1,5.8,7.7l35.5,19.1c4.4,2.4,6.1,7.9,3.7,12.3
		C299.9,344.4,296.8,346.2,293.5,346.2L293.5,346.2z"></path><path class="st1" d="M293.5,346.8c-1.1,0-2.2-0.2-3.3-0.6l-36.1-13.1c-1.7-0.5-2.8-2.3-2.3-4c0.5-1.7,2.3-2.8,4-2.3
		c0.2,0,0.3,0.1,0.4,0.2l36.1,13.1c1,0.4,2,0.2,2.9-0.4c1.4-1,1.8-2.9,0.8-4.4c-0.3-0.4-0.7-0.7-1.1-1l-35.5-19.1
		c-4.5-2.4-7.7-6.7-8.8-11.8l-21.4-101.8c-0.6-2-1.9-3.7-3.5-4.8l-9.6-6.6c-1.5-1-1.9-3-0.8-4.5c1-1.5,3-1.9,4.5-0.8l9.6,6.6
		c3,2,5.1,5,6.2,8.5c0,0.1,0,0.2,0.1,0.2l21.4,102c0.7,3.2,2.7,5.9,5.5,7.4l35.5,19.1c4.7,2.5,6.4,8.4,3.9,13.1
		C300.3,344.8,297.1,346.8,293.5,346.8L293.5,346.8z M255.2,327.9c-1.2,0-2.2,1-2.2,2.2c0,0.9,0.6,1.7,1.4,2l36.1,13.1
		c4.5,1.6,9.4-0.8,10.9-5.2c1.4-4-0.3-8.4-4-10.4L262,310.5c-3.1-1.7-5.3-4.6-6.1-8.1l-21.4-102v-0.2c-0.9-3.2-3-6-5.7-7.9l-9.6-6.6
		c-0.9-0.7-2.3-0.6-3,0.4c-0.7,0.9-0.6,2.3,0.4,3c0.1,0.1,0.2,0.1,0.2,0.2l9.6,6.6c1.9,1.3,3.3,3.2,4,5.4l21.4,101.9
		c1,4.7,4,8.8,8.3,11l35.4,19.1c2.1,1.1,2.9,3.6,1.8,5.7c-1,1.9-3.2,2.8-5.2,2L255.9,328C255.7,327.9,255.4,327.9,255.2,327.9z"></path><polygon class="st1" points="229.7,196.9 228.5,198.8 181.2,209.6 179.6,205.9 	"></polygon><path class="st1" d="M181.2,210.2c-0.2,0-0.4-0.1-0.5-0.3l-1.6-3.8c-0.1-0.2-0.1-0.3,0-0.5c0.1-0.1,0.2-0.2,0.4-0.3l50.1-9
		c0.2,0,0.4,0.1,0.6,0.2c0.1,0.2,0.1,0.4,0,0.6l-1.2,1.9c-0.1,0.1-0.2,0.2-0.3,0.2l-47.3,10.9L181.2,210.2z M180.4,206.3l1.2,2.7
		l46.6-10.7l0.5-0.7L180.4,206.3z"></path><path class="st0" d="M167,198.5l51.7-10.4c0,0,8,3.6,11,8.8l-51.2,11L167,198.5z"></path><path class="st1" d="M178.6,208.4c-0.1,0-0.2,0-0.3-0.1l-11.5-9.3c-0.2-0.1-0.2-0.3-0.2-0.6c0.1-0.2,0.2-0.4,0.4-0.4l51.7-10.4
		c0.1,0,0.2,0,0.3,0c0.3,0.2,8.2,3.7,11.2,9c0.1,0.2,0.1,0.3,0,0.5c-0.1,0.2-0.2,0.3-0.4,0.3l-51.1,11L178.6,208.4z M168.3,198.8
		l10.4,8.4l50.2-10.7c-2.9-4.3-9.1-7.3-10.2-7.8L168.3,198.8z"></path><path class="st2" d="M254.7,359.3c-1,0-2.1-0.2-3.1-0.5l-31.6-11.1c-1.4-0.4-2.3-1.9-1.8-3.4c0.4-1.4,1.9-2.3,3.4-1.8
		c0.1,0,0.2,0.1,0.3,0.1l31.6,11.1c2,0.6,4.2-0.5,4.8-2.5c0.5-1.6-0.1-3.4-1.6-4.4l-43.1-26.7c-4-2.5-6.9-6.3-8.2-10.9l-28-96.2
		c-0.6-2.1-2-4-3.8-5.3l-9.6-6.6c-1.2-0.9-1.5-2.5-0.7-3.8s2.5-1.5,3.8-0.7l9.6,6.6c2.9,2,5,4.9,5.9,8.2l28,96.2
		c0.9,3.2,3,6,5.9,7.7l43.1,26.7c4.4,2.7,5.7,8.4,3,12.8c-0.7,1.1-1.5,2-2.5,2.7C258.5,358.7,256.6,359.3,254.7,359.3z"></path><path class="st1" d="M254.7,359.8c-1.1,0-2.2-0.2-3.3-0.6l-31.6-11.1c-0.8-0.3-1.5-0.9-1.9-1.7c-0.8-1.6-0.1-3.6,1.5-4.3
		c0,0,0,0,0,0c0.8-0.4,1.7-0.4,2.5-0.1l31.6,11.1c1.6,0.8,3.6,0.1,4.4-1.6c0.8-1.6,0.1-3.6-1.6-4.4l-43-26.7
		c-4.1-2.5-7.1-6.5-8.5-11.2l-28-96.2c-0.6-2-1.9-3.8-3.6-5l-9.6-6.6c-1.5-1-1.9-3.1-0.9-4.6c1-1.5,3.1-1.9,4.6-0.9l0,0l9.6,6.6
		c3,2,5.1,5,6.2,8.5l28,96.2c0.9,3.1,2.9,5.7,5.7,7.4l43,26.7c4.6,2.8,6.2,8.7,3.4,13.4C261.5,358,258.2,359.9,254.7,359.8
		L254.7,359.8z M221,342.9c-0.3,0-0.6,0.1-0.9,0.2c-0.5,0.3-0.9,0.7-1.1,1.2c-0.4,1.1,0.2,2.4,1.3,2.8l31.6,11.1
		c4.6,1.6,9.5-0.8,11.1-5.3c0.3-0.9,0.5-1.9,0.5-2.9c0-3-1.6-5.8-4.1-7.4l-43.1-26.7c-3-1.8-5.1-4.7-6.1-8.1l-28-96.2
		c-0.9-3.2-3-6-5.7-7.9l-9.6-6.6c-1-0.7-2.3-0.5-3,0.5c-0.7,1-0.5,2.3,0.5,3c0,0,0,0,0,0l9.6,6.6c1.9,1.3,3.4,3.3,4,5.5l28,96.2
		c1.3,4.4,4.1,8.1,8,10.5l43.1,26.7c2.2,1,3.1,3.7,2.1,5.8c-1,2.2-3.7,3.1-5.8,2.1L221.7,343C221.5,342.9,221.2,342.9,221,342.9
		L221,342.9z"></path><polygon class="st2" points="362.2,243 288.5,262.8 181.2,224.4 237.5,214.3 	"></polygon><path class="st1" d="M288.5,263.4c-0.1,0-0.1,0-0.2,0L181,224.9c-0.2-0.1-0.4-0.3-0.4-0.6c0-0.2,0.2-0.4,0.4-0.5l56.3-10.1h0.2
		l124.7,28.7c0.2,0.1,0.4,0.3,0.4,0.5c0,0.2-0.2,0.5-0.4,0.5l-73.7,19.8L288.5,263.4z M183.3,224.6l105.2,37.7l71.4-19.2
		l-122.5-28.2L183.3,224.6z"></path><polygon class="st2" points="362.2,243 335.4,298.2 278.7,314.5 197.9,281.9 181.2,224.4 288.5,262.8 	"></polygon><path class="st1" d="M278.7,315c-0.1,0-0.1,0-0.2,0l-80.8-32.6c-0.2-0.1-0.3-0.2-0.3-0.3l-16.7-57.5c-0.1-0.2,0-0.4,0.2-0.5
		c0.1-0.1,0.4-0.2,0.6-0.1l107.1,38.4l73.5-19.8c0.2-0.1,0.4,0,0.6,0.2c0.1,0.2,0.2,0.4,0.1,0.6l-26.8,55.2
		c-0.1,0.1-0.2,0.2-0.3,0.3L278.8,315L278.7,315z M198.4,281.5l80.3,32.4l56.3-16.2l26.2-53.9l-72.5,19.5c-0.1,0-0.2,0-0.3,0
		L182,225.3L198.4,281.5z"></path><path class="st1" d="M278.7,315h-0.1c-0.3-0.1-0.5-0.3-0.4-0.6l9.8-51.6c0-0.3,0.3-0.5,0.6-0.4c0,0,0,0,0,0
		c0.3,0.1,0.5,0.3,0.4,0.6l-9.8,51.6C279.2,314.8,279,315,278.7,315z"></path><path class="st1" d="M278.7,315h-0.1c-0.3-0.1-0.5-0.3-0.4-0.6l9.8-51.6c0-0.3,0.3-0.5,0.6-0.4c0,0,0,0,0,0
		c0.3,0.1,0.5,0.3,0.4,0.6l-9.8,51.6C279.2,314.8,279,315,278.7,315z"></path><path class="st1" d="M328.4,300.8c-0.2,0-0.5-0.2-0.5-0.4c0-0.2,0-0.4,0.1-0.5c0.9-1.6,12.2-32.7,19.6-53.2
		c0.1-0.3,0.4-0.4,0.7-0.3c0.3,0.1,0.4,0.4,0.3,0.7c-19.2,53.5-19.7,53.7-20.1,53.8C328.5,300.8,328.4,300.8,328.4,300.8z"></path><path class="st1" d="M318.2,303.7H318c-0.3-0.1-0.5-0.4-0.4-0.7l13.6-52c0.1-0.3,0.4-0.5,0.7-0.4c0.3,0.1,0.5,0.4,0.4,0.7l-13.6,52
		C318.6,303.6,318.4,303.7,318.2,303.7z"></path><path class="st1" d="M290.5,311.7h-0.1c-0.3-0.1-0.5-0.4-0.4-0.6c0,0,0,0,0,0l11.6-51.9c0.1-0.3,0.4-0.5,0.6-0.4c0,0,0,0,0,0
		c0.3,0.1,0.5,0.4,0.4,0.6L291,311.2C291,311.5,290.8,311.7,290.5,311.7z"></path><path class="st1" d="M305.5,307.3h-0.1c-0.3,0-0.5-0.3-0.4-0.6c0,0,0,0,0,0l10-51.2c0.1-0.3,0.3-0.5,0.6-0.4
		c0.3,0.1,0.5,0.3,0.4,0.6l-10,51.2C305.9,307.2,305.7,307.3,305.5,307.3z"></path><path class="st1" d="M265.8,309.8c-0.1,0-0.1,0-0.2,0c-0.3-0.1-0.4-0.4-0.3-0.7c0,0,0,0,0,0V309c0.6-1.8,5.9-31.4,9.3-51
		c0.1-0.3,0.3-0.5,0.6-0.4c0.3,0.1,0.5,0.3,0.4,0.6c-9,51.2-9.4,51.4-9.7,51.6C265.9,309.8,265.9,309.8,265.8,309.8z"></path><path class="st1" d="M253.9,305c-0.1,0-0.1,0-0.2,0c-0.4-0.2-0.4-0.2,0.8-8.6c0.7-4.8,1.6-11.2,2.5-17.7l3.7-25.7
		c0-0.3,0.3-0.5,0.6-0.5c0.3,0,0.5,0.3,0.5,0.6c-2.5,17.4-7.3,50.4-7.4,51.4c0,0.1,0,0.1,0,0.2C254.3,305,254.1,305.1,253.9,305z"></path><path class="st1" d="M208.4,286.7c-0.3,0-0.5-0.2-0.5-0.4l-11.6-56.2c-0.1-0.3,0.1-0.6,0.4-0.6c0.3-0.1,0.6,0.1,0.6,0.4
		c0,0,0,0,0,0l11.6,56.2c0.1,0.3-0.1,0.6-0.4,0.6c0,0,0,0,0,0L208.4,286.7z"></path><path class="st1" d="M219.7,291.3c-0.3,0-0.5-0.2-0.5-0.5L213,236c0-0.3,0.2-0.6,0.5-0.6c0,0,0,0,0,0c0.3,0,0.6,0.2,0.6,0.5
		l6.2,54.8C220.3,291,220.1,291.2,219.7,291.3L219.7,291.3z"></path><path class="st1" d="M229.4,295.2c-0.3,0-0.5-0.2-0.5-0.5v-53c0-0.3,0.2-0.5,0.5-0.5c0.3,0,0.5,0.2,0.5,0.5v53
		C230,294.9,229.7,295.2,229.4,295.2z"></path><path class="st1" d="M239.8,299.4L239.8,299.4c-0.3,0-0.5-0.3-0.5-0.6c0,0,0,0,0,0l4.9-51.7c0-0.3,0.3-0.5,0.6-0.5
		c0.3,0,0.5,0.3,0.5,0.6c0,0,0,0,0,0l-4.9,51.7C240.3,299.2,240.1,299.4,239.8,299.4z"></path><path class="st1" d="M285.5,279.3c-0.1,0-0.1,0-0.2,0l-98.5-34.7c-0.3-0.1-0.4-0.4-0.3-0.7c0.1-0.3,0.4-0.4,0.7-0.3l98.4,34.6
		l67.8-17.7c0.3-0.1,0.6,0.1,0.7,0.4c0,0,0,0,0,0c0.1,0.3-0.1,0.6-0.4,0.7l-68,17.8L285.5,279.3z"></path><path class="st1" d="M281.7,299.4c-0.1,0-0.1,0-0.2,0l-87.8-30.7c-0.3-0.1-0.4-0.4-0.3-0.7c0.1-0.3,0.4-0.4,0.7-0.3l87.6,30.6
		l61.8-17.6c0.3-0.1,0.6,0.1,0.7,0.4c0.1,0.3-0.1,0.6-0.4,0.7l-62,17.6L281.7,299.4z"></path><path class="st1" d="M239.8,245.9c-0.3,0-0.5-0.2-0.5-0.5l-2.3-31.1c0-0.3,0.2-0.6,0.5-0.6c0,0,0,0,0,0c0.3,0,0.6,0.2,0.6,0.5
		l2.3,31.1C240.3,245.6,240.1,245.9,239.8,245.9C239.8,245.9,239.8,245.9,239.8,245.9L239.8,245.9z"></path><line class="st3" x1="249.3" y1="217" x2="251.8" y2="249.7"></line><path class="st1" d="M251.8,250.2c-0.3,0-0.5-0.2-0.5-0.5l-2.5-32.7c0-0.3,0.2-0.6,0.5-0.6c0.3,0,0.6,0.2,0.6,0.5c0,0,0,0,0,0
		l2.5,32.7C252.4,250,252.2,250.2,251.8,250.2C251.9,250.2,251.9,250.2,251.8,250.2L251.8,250.2z"></path><line class="st3" x1="343.6" y1="238.7" x2="339.8" y2="249"></line><path class="st1" d="M339.8,249.6c-0.1,0-0.1,0-0.2,0c-0.3-0.1-0.4-0.4-0.3-0.7c0,0,0,0,0,0l3.9-10.3c0.1-0.3,0.4-0.4,0.7-0.3
		c0.3,0.1,0.4,0.4,0.3,0.7l-3.9,10.3C340.2,249.5,340,249.6,339.8,249.6z"></path><line class="st3" x1="326.1" y1="234.7" x2="319.9" y2="254.1"></line><path class="st1" d="M319.9,254.7h-0.2c-0.3-0.1-0.4-0.4-0.3-0.7l6.2-19.5c0.1-0.3,0.4-0.5,0.7-0.4c0.3,0.1,0.5,0.4,0.4,0.7
		c0,0,0,0,0,0l-6.2,19.5C320.3,254.5,320.1,254.7,319.9,254.7z"></path><line class="st3" x1="306.5" y1="230.2" x2="297.7" y2="260.4"></line><path class="st1" d="M297.7,260.9h-0.1c-0.3-0.1-0.5-0.4-0.4-0.7L306,230c0.1-0.3,0.4-0.5,0.7-0.4c0.3,0.1,0.5,0.4,0.4,0.7
		l-8.8,30.2C298.2,260.8,298,260.9,297.7,260.9z"></path><line class="st3" x1="266.6" y1="221" x2="267.6" y2="255.3"></line><path class="st1" d="M267.6,255.9c-0.3,0-0.5-0.2-0.5-0.5l-1-34.4c0-0.3,0.2-0.5,0.5-0.6c0.3,0,0.5,0.2,0.6,0.5l1,34.4
		C268.1,255.6,267.9,255.9,267.6,255.9C267.6,255.9,267.6,255.9,267.6,255.9L267.6,255.9z"></path><line class="st3" x1="286.9" y1="225.7" x2="284.6" y2="261.4"></line><path class="st1" d="M284.6,262L284.6,262c-0.3,0-0.5-0.3-0.5-0.6c0,0,0,0,0,0l2.3-35.8c0-0.3,0.3-0.5,0.6-0.5c0,0,0,0,0,0
		c0.3,0,0.5,0.3,0.5,0.6c0,0,0,0,0,0l-2.3,35.8C285.2,261.8,284.9,262,284.6,262C284.6,262,284.6,262,284.6,262z"></path><line class="st3" x1="224.5" y1="216.6" x2="227.1" y2="240.8"></line><path class="st1" d="M227.1,241.4c-0.3,0-0.5-0.2-0.5-0.5l-2.6-24.3c0-0.3,0.2-0.6,0.5-0.6c0.3,0,0.6,0.2,0.6,0.5l2.6,24.3
		C227.7,241.1,227.5,241.4,227.1,241.4L227.1,241.4z"></path><line class="st3" x1="213.5" y1="218.6" x2="217.1" y2="237.2"></line><path class="st1" d="M217.1,237.8c-0.3,0-0.5-0.2-0.5-0.4l-3.6-18.7c-0.1-0.3,0.1-0.6,0.4-0.6c0.3-0.1,0.6,0.1,0.6,0.4l3.6,18.7
		c0.1,0.3-0.1,0.6-0.4,0.6L217.1,237.8z"></path><line class="st3" x1="200.2" y1="221" x2="202.8" y2="232.1"></line><path class="st1" d="M202.8,232.7c-0.3,0-0.5-0.2-0.5-0.4l-2.6-11.2c-0.1-0.3,0.1-0.6,0.4-0.7c0.3-0.1,0.6,0.1,0.7,0.4l2.6,11.2
		c0.1,0.3-0.1,0.6-0.4,0.7c0,0,0,0,0,0L202.8,232.7z"></path><path class="st1" d="M337.3,250.2h-0.1l-98.6-21l-31.3,5c-0.3,0-0.6-0.2-0.6-0.5c-0.1-0.3,0.1-0.6,0.4-0.6c0,0,0,0,0,0l31.4-5
		c0.1,0,0.1,0,0.2,0l98.8,21c0.3,0.1,0.5,0.3,0.4,0.6c0,0,0,0,0,0C337.8,250.1,337.5,250.3,337.3,250.2z"></path><path class="st1" d="M308.9,257.9h-0.1l-69.3-15.7l-7.4,0.9c-0.3,0-0.6-0.2-0.6-0.5c0-0.3,0.2-0.6,0.5-0.6l7.5-0.9h0.2l69.4,15.7
		c0.3,0,0.5,0.3,0.5,0.6C309.5,257.7,309.2,257.9,308.9,257.9L308.9,257.9z"></path><ellipse class="st1" transform="matrix(5.773823e-02 -0.9983 0.9983 5.773823e-02 -121.2295 580.9621)" cx="247.2" cy="354.7" rx="9.5" ry="6.2"></ellipse><path class="st1" d="M246.8,364.7c-1.3,0-2.5-0.5-3.4-1.4c-2-2.2-3.1-5.1-3-8.1c0-5.4,3-10.2,6.7-10.5c1.4-0.1,2.8,0.4,3.8,1.4
		c2,2.2,3.1,5.1,3,8.1c0,5.5-3,10.2-6.7,10.5L246.8,364.7z M247.5,345.8h-0.3c-3.1,0.2-5.7,4.5-5.7,9.4c-0.1,2.7,0.8,5.3,2.6,7.3
		c0.8,0.8,1.9,1.2,3,1.1c3.1-0.2,5.7-4.5,5.7-9.4c0.1-2.7-0.8-5.3-2.6-7.3C249.4,346.2,248.5,345.8,247.5,345.8z"></path><polygon class="st1" points="247.1,364.1 244.1,364 244.1,345.1 248.1,345.3 	"></polygon><path class="st1" d="M247.1,364.7L247.1,364.7l-3-0.2c-0.3,0-0.5-0.3-0.5-0.5v-18.9c0-0.1,0.1-0.3,0.2-0.4c0.1-0.1,0.3-0.2,0.4-0.2
		l4,0.2c0.1,0,0.3,0.1,0.4,0.2c0.1,0.1,0.1,0.2,0.1,0.4l-1,18.8C247.7,364.4,247.4,364.7,247.1,364.7z M244.6,363.5l2,0.1l0.9-17.7
		l-2.9-0.1V363.5z"></path><ellipse class="st2" transform="matrix(5.773823e-02 -0.9983 0.9983 5.773823e-02 -123.9513 577.7684)" cx="244.1" cy="354.5" rx="9.5" ry="6.2"></ellipse><path class="st1" d="M243.8,364.5c-1.3,0-2.5-0.5-3.4-1.4c-2-2.2-3.1-5.1-3-8.1c0-5.4,3-10.2,6.7-10.5c1.4-0.1,2.8,0.4,3.8,1.4
		c2,2.2,3.1,5.1,3,8.1c0,5.4-3,10.2-6.7,10.5L243.8,364.5z M244.4,345.6h-0.3c-3.1,0.2-5.7,4.5-5.7,9.4c-0.1,2.7,0.8,5.3,2.6,7.3
		c0.8,0.8,1.9,1.2,3,1.1c3.1-0.2,5.7-4.5,5.7-9.4c0.1-2.7-0.8-5.3-2.6-7.3C246.4,346,245.4,345.6,244.4,345.6z"></path><ellipse class="st0" transform="matrix(5.773823e-02 -0.9983 0.9983 5.773823e-02 -123.9513 577.7684)" cx="244.1" cy="354.5" rx="4.3" ry="2.8"></ellipse><path class="st1" d="M243.9,359.4c-0.7,0-1.3-0.3-1.8-0.7c-1-1-1.5-2.5-1.4-3.9c0-2.7,1.4-4.9,3.3-5c0.7-0.1,1.4,0.2,2,0.7
		c1,1.1,1.5,2.5,1.4,3.9c0,2.7-1.5,4.9-3.3,5.1H243.9z M244.2,350.8h-0.1c-1.2,0.1-2.3,1.9-2.3,4c-0.1,1.1,0.3,2.2,1.1,3.1
		c0.3,0.3,0.7,0.5,1.1,0.4c1.3-0.1,2.3-1.9,2.3-4c0.1-1.1-0.3-2.2-1.1-3.1C245,351,244.6,350.8,244.2,350.8L244.2,350.8z"></path><ellipse class="st1" transform="matrix(5.773823e-02 -0.9983 0.9983 5.773823e-02 -135.5408 546.7731)" cx="221.9" cy="345.2" rx="9.5" ry="6.2"></ellipse><path class="st1" d="M221.6,355.2c-1.3,0-2.5-0.5-3.4-1.4c-2-2.2-3.1-5.1-3-8.1c0-5.5,3-10.2,6.7-10.5c1.4-0.1,2.8,0.4,3.8,1.4
		c2,2.2,3.1,5.1,3,8.1c0,5.4-3,10.2-6.7,10.5L221.6,355.2z M222.2,336.3h-0.3c-3.1,0.2-5.7,4.5-5.7,9.4c-0.1,2.7,0.8,5.3,2.6,7.3
		c0.8,0.8,1.9,1.2,3,1.1c3.1-0.2,5.7-4.5,5.7-9.4c0.1-2.7-0.8-5.3-2.6-7.3C224.2,336.7,223.2,336.3,222.2,336.3z"></path><polygon class="st1" points="221.9,354.6 218.8,354.5 218.8,335.6 222.8,335.8 	"></polygon><path class="st1" d="M221.9,355.2L221.9,355.2l-3-0.2c-0.3,0-0.5-0.3-0.5-0.5v-18.9c0-0.1,0.1-0.3,0.2-0.4c0.1-0.1,0.3-0.2,0.4-0.2
		l4,0.2c0.1,0,0.3,0.1,0.4,0.2c0.1,0.1,0.2,0.3,0.1,0.4l-1,18.8C222.5,354.9,222.2,355.1,221.9,355.2
		C221.9,355.2,221.9,355.2,221.9,355.2z M219.4,354l2,0.1l0.9-17.7l-2.9-0.1L219.4,354z"></path><ellipse class="st2" transform="matrix(5.773823e-02 -0.9983 0.9983 5.773823e-02 -138.2734 543.5896)" cx="218.8" cy="345" rx="9.5" ry="6.2"></ellipse><path class="st1" d="M218.5,355c-1.3,0-2.5-0.5-3.4-1.4c-2-2.2-3.1-5.1-3-8.1c0-5.4,3-10.2,6.7-10.5c1.4-0.1,2.8,0.4,3.8,1.4
		c2,2.2,3.1,5.1,3,8.1c0,5.4-3,10.2-6.7,10.5L218.5,355z M219.1,336.1h-0.3c-3.1,0.2-5.7,4.5-5.7,9.4c-0.1,2.7,0.8,5.3,2.6,7.3
		c0.8,0.8,1.9,1.2,3,1.1c3.1-0.2,5.7-4.4,5.7-9.4c0.1-2.7-0.8-5.3-2.6-7.3C221.1,336.5,220.1,336.1,219.1,336.1z"></path><ellipse class="st0" transform="matrix(5.773823e-02 -0.9983 0.9983 5.773823e-02 -138.2734 543.5896)" cx="218.8" cy="345" rx="4.3" ry="2.8"></ellipse><path class="st1" d="M218.7,349.9c-0.7,0-1.3-0.3-1.8-0.7c-1-1.1-1.5-2.5-1.4-3.9c0-2.7,1.5-4.9,3.3-5c0.7,0,1.4,0.2,1.9,0.7
		c1,1.1,1.5,2.5,1.4,3.9c0,2.7-1.5,4.9-3.3,5.1H218.7z M219,341.3h-0.1c-1.2,0.1-2.3,1.9-2.3,4c-0.1,1.1,0.3,2.3,1.1,3.1
		c0.3,0.3,0.7,0.4,1.1,0.4c1.2-0.1,2.3-1.9,2.3-4c0.1-1.1-0.3-2.2-1.1-3.1C219.7,341.4,219.3,341.3,219,341.3L219,341.3z"></path><polygon class="st0" points="335.4,298.2 332.9,303.8 278.7,318.8 199.2,287.7 197.9,281.9 278.7,314.5 	"></polygon><path class="st1" d="M278.7,319.4c-0.1,0-0.1,0-0.2,0L199,288.3c-0.2-0.1-0.3-0.2-0.3-0.4l-1.3-5.8c0-0.2,0-0.4,0.2-0.5
		c0.2-0.1,0.4-0.2,0.6-0.1l80.6,32.5l56.4-16.2c0.3-0.1,0.6,0.1,0.7,0.4c0,0.1,0,0.3,0,0.4l-2.5,5.6c-0.1,0.1-0.2,0.3-0.3,0.3
		l-54.2,15L278.7,319.4z M199.6,287.3l79.1,31l53.8-14.9l1.9-4.3L278.8,315c-0.1,0-0.2,0-0.3,0l-79.8-32.1L199.6,287.3z"></path></g><g id="pack-2"><polygon class="st2" points="384,194.7 422.1,203.3 382.4,226.8 344.3,218.2 	"></polygon><path class="st1" d="M382.4,227.3h-0.1l-38.1-8.6c-0.2-0.1-0.4-0.2-0.4-0.4c0-0.2,0.1-0.4,0.3-0.6l39.7-23.5
		c0.1-0.1,0.3-0.1,0.4-0.1l38.1,8.6c0.3,0.1,0.5,0.3,0.4,0.6c0,0.2-0.1,0.3-0.3,0.4l-39.7,23.5C382.6,227.3,382.5,227.3,382.4,227.3
		z M345.8,217.9l36.5,8.2l38.3-22.7l-36.5-8.2L345.8,217.9z"></path><polygon class="st0" points="422.1,203.3 424.3,217.7 384.6,241.2 382.4,226.8 	"></polygon><path class="st1" d="M384.6,241.8c-0.1,0-0.2,0-0.2-0.1c-0.2-0.1-0.3-0.2-0.3-0.4l-2.2-14.5c0-0.2,0.1-0.4,0.3-0.6l39.7-23.5
		c0.2-0.1,0.3-0.1,0.5,0c0.2,0.1,0.3,0.2,0.3,0.4l2.2,14.5c0,0.2-0.1,0.4-0.3,0.6l-39.7,23.5C384.8,241.8,384.7,241.8,384.6,241.8z
		 M383,227l2,13.3l38.7-22.9l-2-13.3L383,227z"></path><polygon class="st2" points="344.3,218.2 346.5,232.6 384.6,241.2 382.4,226.8 	"></polygon><path class="st1" d="M384.6,241.8h-0.1l-38.1-8.6c-0.2,0-0.4-0.2-0.4-0.4l-2.2-14.5c-0.1-0.3,0.1-0.6,0.4-0.6c0.1,0,0.1,0,0.2,0
		l38.1,8.6c0.2,0.1,0.4,0.2,0.4,0.5l2.2,14.5c0,0.2,0,0.4-0.2,0.5C384.9,241.7,384.7,241.8,384.6,241.8z M347,232.2l36.9,8.3
		l-2-13.3l-36.9-8.3L347,232.2z"></path><ellipse class="st0" transform="matrix(0.9113 -0.4118 0.4118 0.9113 -52.4604 176.7391)" cx="383.9" cy="210.1" rx="8.2" ry="5"></ellipse><path class="st1" d="M381.1,216.4c-1.8,0.1-3.6-0.6-4.8-2c-0.7-0.9-0.9-2.1-0.6-3.2c0.4-2.1,2.2-4.2,4.8-5.6
		c4.2-2.3,9-2.2,10.9,0.3c0.7,0.9,0.9,2.1,0.6,3.2c-0.4,2.1-2.3,4.2-4.8,5.6l0,0C385.3,215.7,383.2,216.3,381.1,216.4z M386.6,205
		c-1.9,0-3.8,0.6-5.5,1.5c-2.3,1.3-3.9,3.1-4.3,4.9c-0.2,0.8,0,1.7,0.4,2.3c1.5,2,5.8,2,9.4,0l0,0c2.3-1.3,3.9-3.1,4.3-4.9
		c0.2-0.8,0.1-1.7-0.4-2.3C389.5,205.5,388.1,204.9,386.6,205L386.6,205z"></path></g><g id="laptop"><path class="st0" d="M408.1,156.5v3.6l-37.7,15.4c-1.1,0.5-2.4,0.5-3.6,0.2L298,156.6c-0.2-0.1-0.3-0.2-0.3-0.4v-3.5
		c0,0.2,0.2,0.3,0.3,0.4l4,1.1l9.2,2.5l55.7,15.4c1.2,0.3,2.4,0.3,3.6-0.2l29.5-12l2.9-1.2L408.1,156.5z"></path><path class="st0" d="M368.3,176.5c-0.6,0-1.1-0.1-1.6-0.2l-68.8-19.1c-0.4-0.1-0.7-0.5-0.7-1v-3.5c0-0.3,0.2-0.5,0.5-0.5
		c0.3,0,0.5,0.2,0.6,0.5l3.9,1l64.9,18c1.1,0.3,2.2,0.2,3.3-0.2l37.7-15.3c0.3-0.1,0.6,0,0.7,0.3c0,0.1,0,0.1,0,0.2v3.6
		c0,0.2-0.1,0.4-0.3,0.5L370.6,176C369.9,176.3,369.1,176.5,368.3,176.5z M298.2,153.7v2.5l68.8,19c1.1,0.3,2.2,0.2,3.3-0.2
		l37.3-15.2v-2.4l-36.9,15c-1.2,0.5-2.6,0.6-3.9,0.2L298.2,153.7z"></path><path class="st2" d="M408.1,156.5l-5.3,2.2l-2.9,1.2l-29.5,12c-1.1,0.5-2.4,0.5-3.6,0.2l-55.7-15.4l-9.2-2.5l-4-1.1
		c-0.2,0-0.3-0.2-0.3-0.4v-0.1c0-0.2,0.1-0.3,0.3-0.4l38.2-15.6L408.1,156.5z"></path><path class="st1" d="M368.3,172.8c-0.6,0-1.1-0.1-1.6-0.2l-68.8-19.1c-0.4-0.1-0.7-0.4-0.7-0.8v-0.2c0-0.4,0.2-0.8,0.6-0.9
		l38.2-15.6c0.1,0,0.2,0,0.3,0l72,19.9c0.2,0.1,0.4,0.3,0.4,0.5c0,0.2-0.1,0.4-0.3,0.5l-37.7,15.4
		C369.9,172.7,369.1,172.8,368.3,172.8z M298.3,152.6l3.8,1l64.9,18c1.1,0.3,2.2,0.2,3.3-0.2l36.2-14.8l-70.2-19.4L298.3,152.6z"></path><path class="st2" d="M424,104.2l-67-18.6c-1.3-0.3-2.6,0.4-3,1.6l-17.8,49.4l72,19.9l17.6-49c0.5-1.3-0.2-2.8-1.5-3.2
		C424.2,104.2,424.1,104.2,424,104.2z"></path><path class="st1" d="M408.1,157.1H408l-72-19.9c-0.1,0-0.3-0.1-0.3-0.3c-0.1-0.1-0.1-0.3,0-0.4l17.8-49.4c0.6-1.5,2.2-2.4,3.7-1.9
		l67,18.5l0,0c0.8,0.2,1.5,0.8,1.9,1.6c0.4,0.8,0.5,1.7,0.2,2.5l-17.6,49C408.6,157,408.3,157.1,408.1,157.1z M336.9,136.2
		l70.9,19.6l17.5-48.5c0.2-0.5,0.2-1.1-0.1-1.6c-0.3-0.5-0.7-0.9-1.3-1l-67-18.5c-1-0.3-2.1,0.3-2.4,1.3L336.9,136.2z"></path><polygon class="st2" points="339.5,134.9 356.3,88.1 423.4,106.6 406.5,153.5 	"></polygon><path class="st1" d="M406.5,154h-0.1l-67.1-18.6c-0.1,0-0.3-0.1-0.3-0.3c-0.1-0.1-0.1-0.3,0-0.4l16.8-46.8c0.1-0.3,0.4-0.4,0.7-0.3
		l67.1,18.6c0.1,0,0.3,0.1,0.3,0.3c0.1,0.1,0.1,0.3,0,0.4L407,153.7C406.9,153.9,406.7,154,406.5,154z M340.2,134.5l66,18.3
		l16.5-45.8l-66-18.3L340.2,134.5z"></path><polygon class="st0" points="357.2,159.3 345.2,164.2 338.6,162.4 332.1,160.6 325.5,158.8 337.6,153.9 344.1,155.7 350.7,157.5 	
		"></polygon><polygon class="st0" points="343.2,143.2 348.1,144.5 351.2,143.2 346.4,141.9 	"></polygon><polygon class="st0" points="381,158 376.1,156.7 373,158 377.8,159.3 	"></polygon><polygon class="st0" points="385.8,156.1 380.9,154.7 377.8,156 382.6,157.4 	"></polygon><polygon class="st0" points="361.3,152.6 356.5,151.2 353.3,152.5 358.1,153.9 	"></polygon><polygon class="st0" points="367.9,154.4 363,153.1 359.9,154.4 364.7,155.7 	"></polygon><polygon class="st0" points="376,152.3 380.9,153.6 384,152.3 379.2,151 	"></polygon><polygon class="st0" points="354.7,150.8 349.9,149.4 346.8,150.7 351.6,152.1 	"></polygon><polygon class="st0" points="356.3,146.8 361.2,148.1 364.3,146.9 359.5,145.5 	"></polygon><polygon class="st0" points="349.8,145 354.6,146.3 357.8,145.1 352.9,143.7 	"></polygon><polygon class="st0" points="369.5,150.4 374.3,151.8 377.4,150.5 372.6,149.2 	"></polygon><polygon class="st0" points="362.9,148.6 367.7,150 370.9,148.7 366.1,147.3 	"></polygon><polygon class="st0" points="374.4,156.2 369.6,154.9 366.4,156.2 371.3,157.5 	"></polygon><polygon class="st0" points="364.7,152.4 369.5,153.7 372.7,152.5 367.8,151.1 	"></polygon><polygon class="st0" points="379.2,154.3 374.4,152.9 371.2,154.2 376.1,155.5 	"></polygon><polygon class="st0" points="358.1,150.6 362.9,151.9 366.1,150.6 361.3,149.3 	"></polygon><polygon class="st0" points="382.6,154.1 387.4,155.4 390.6,154.1 385.7,152.8 	"></polygon><polygon class="st0" points="397.1,155.9 392.3,154.6 389.1,155.9 394,157.2 	"></polygon><polygon class="st0" points="338.4,145.1 343.3,146.5 346.4,145.2 341.6,143.8 	"></polygon><polygon class="st0" points="351.6,148.8 356.4,150.1 359.5,148.8 354.7,147.5 	"></polygon><polygon class="st0" points="348.2,149 343.3,147.6 340.2,148.9 345,150.3 	"></polygon><polygon class="st0" points="333.6,147.1 338.5,148.4 341.6,147.1 336.8,145.8 	"></polygon><polygon class="st0" points="345,147 349.8,148.3 353,147 348.1,145.7 	"></polygon><polygon class="st0" points="392.3,157.9 387.5,156.6 384.3,157.8 389.2,159.2 	"></polygon><polygon class="st0" points="335,140.9 338.1,139.6 335.4,138.9 332.3,140.1 	"></polygon><polygon class="st0" points="398.8,156.4 395.7,157.7 398.5,158.5 401.7,157.2 	"></polygon><polygon class="st0" points="387.5,159.9 382.7,158.5 379.5,159.8 384.4,161.1 	"></polygon><polygon class="st0" points="330.2,142.8 333.3,141.6 330.6,140.8 327.5,142.1 	"></polygon><polygon class="st0" points="396.9,159.2 394,158.4 390.9,159.7 393.7,160.4 	"></polygon><polygon class="st0" points="384.4,162.3 381.3,163.6 384.1,164.4 387.3,163.1 	"></polygon><polygon class="st0" points="382.7,161.8 377.9,160.5 374.7,161.8 379.6,163.1 	"></polygon><polygon class="st0" points="336.7,141.4 341.5,142.7 344.7,141.4 339.8,140.1 	"></polygon><polygon class="st0" points="320.6,146.8 323.7,145.5 321,144.7 317.9,146 	"></polygon><polygon class="st0" points="325.4,144.8 328.5,143.5 325.8,142.8 322.7,144.1 	"></polygon><polygon class="st0" points="389.2,160.3 386.1,161.6 388.9,162.4 392.1,161.1 	"></polygon><polygon class="st0" points="336.8,149.1 332,147.8 328.8,149 333.7,150.4 	"></polygon><polygon class="st0" points="376.2,160 371.3,158.7 368.2,159.9 373,161.3 	"></polygon><polygon class="st0" points="327.1,145.3 331.9,146.6 335.1,145.3 330.2,144 	"></polygon><polygon class="st0" points="343.4,150.9 338.5,149.6 335.4,150.9 340.2,152.2 	"></polygon><polygon class="st0" points="331.9,143.3 336.7,144.7 339.9,143.4 335,142 	"></polygon><polygon class="st0" points="322.3,147.2 327.1,148.6 330.3,147.3 325.4,145.9 	"></polygon><polygon class="st0" points="369.6,158.2 364.8,156.8 361.6,158.1 366.5,159.5 	"></polygon><polygon class="st0" points="363.1,156.4 358.2,155 355.1,156.3 359.9,157.7 	"></polygon><polygon class="st0" points="356.5,154.5 351.7,153.2 348.5,154.5 353.4,155.8 	"></polygon><polygon class="st0" points="349.9,152.7 345.1,151.4 341.9,152.7 346.8,154 	"></polygon></g><g id="arrow_1_"><path class="st0" id="arrow" d="M245.1,138.9c14.2,6.7,18.1,21.6,18.9,31.6l-15.7,1.8l27.3,20.2l18.1-25l-14.2,0.8
		c0,0-0.2-19.3-10.5-25.5C261.8,138.6,253.3,137.2,245.1,138.9z"></path><path class="st1" d="M275.6,193.1c-0.1,0-0.2,0-0.3-0.1l-27.3-20.2c-0.2-0.2-0.3-0.5-0.1-0.8c0.1-0.1,0.2-0.2,0.4-0.2l15.2-1.8
		c-0.8-8.8-4.3-24-18.5-30.6c-0.3-0.1-0.4-0.4-0.3-0.7c0.1-0.2,0.2-0.3,0.4-0.3c8.3-1.7,17-0.2,24.4,4c9.5,5.8,10.6,22.1,10.7,25.4
		l13.6-0.8c0.2,0,0.4,0.1,0.5,0.3c0.1,0.2,0.1,0.4,0,0.6l-18.1,25C275.9,192.9,275.8,193,275.6,193.1L275.6,193.1z M249.7,172.7
		l25.8,19.1l17.1-23.6l-13,0.7c-0.1,0-0.3,0-0.4-0.1c-0.1-0.1-0.2-0.2-0.2-0.4c0-0.2-0.3-19.1-10.2-25.1c-6.6-3.9-14.4-5.4-22-4.3
		c13.8,7.4,17,22.7,17.7,31.3c0,0.3-0.2,0.6-0.5,0.6c0,0,0,0,0,0L249.7,172.7z"></path></g><g id="phone"><g id="phone-2"><path class="st2" d="M154,187.3L154,187.3L154,187.3c-0.4,0.7-0.9,1.3-1.6,1.6c-0.2,0.1-0.3,0.2-0.5,0.2l-1.6,0.5L120,199
			c-1.8,0.5-3.7-0.4-4.3-2.2l-23-59.7l-1.7-4.3c-0.1-0.2-0.2-0.5-0.2-0.8c-0.1-0.7,0-1.3,0.3-2l0,0c0.4-0.9,1.2-1.7,2.2-2l31.9-9.9
			c1.8-0.5,3.7,0.4,4.3,2.2l24.7,64C154.5,185.3,154.4,186.4,154,187.3z"></path><path class="st1" d="M118.9,199.7c-1.7,0-3.2-1.1-3.9-2.6l-24.7-64c-0.1-0.3-0.2-0.6-0.2-0.9c-0.1-0.8,0-1.5,0.3-2.3
			c0.5-1.1,1.4-1.9,2.6-2.3l31.9-9.9c2.1-0.6,4.3,0.4,5.1,2.5l24.7,64c0.4,1.1,0.4,2.3-0.2,3.3l0,0v0.1c-0.4,0.8-1,1.4-1.8,1.8
			c-0.2,0.1-0.4,0.2-0.6,0.2l-31.9,9.9C119.7,199.6,119.3,199.7,118.9,199.7z M126.1,118.6c-0.3,0-0.6,0-0.9,0.1l-31.9,9.9
			c-0.8,0.3-1.5,0.9-1.9,1.7c-0.2,0.5-0.3,1.1-0.2,1.7c0,0.2,0.1,0.4,0.2,0.7l24.7,64c0.6,1.5,2.2,2.3,3.7,1.8l31.9-9.9
			c0.2,0,0.3-0.1,0.4-0.2c0.6-0.3,1-0.7,1.3-1.3l0.5,0.2l-0.5-0.2c0.4-0.8,0.4-1.7,0.1-2.5l-24.7-64
			C128.4,119.4,127.3,118.6,126.1,118.6L126.1,118.6z"></path><path class="st2" d="M93.7,131.6L93.7,131.6L93.7,131.6l2.7,7.2l22,56.9c0.1,0.2,0.3,0.3,0.5,0.3h0.2l31.9-9.9h0.1l0,0
			c0.1,0,0.1-0.1,0.2-0.2v-0.1c0.1-0.1,0.1-0.3,0-0.4l-21.8-56.7l-2.9-7.4c-0.1-0.2-0.3-0.3-0.5-0.3h-0.2L94,131
			c-0.1,0-0.3,0.2-0.3,0.3l0,0C93.7,131.4,93.6,131.5,93.7,131.6z"></path><path class="st1" d="M118.9,196.6L118.9,196.6c-0.4,0-0.8-0.3-1-0.7l-24.7-64c0,0,0-0.2,0-0.2l0,0c0-0.2,0-0.4,0.1-0.5
			c0.1-0.3,0.4-0.5,0.7-0.6l31.8-9.9c0.1,0,0.2,0,0.3,0c0.4,0,0.8,0.3,1,0.7l24.7,64c0.1,0.3,0.1,0.6,0,0.9l-0.1,0.1
			c-0.1,0.2-0.2,0.3-0.4,0.4h-0.1l-32,9.9C119.1,196.6,119,196.6,118.9,196.6z M94.2,131.5L94.2,131.5l24.7,64l31.9-9.9l-24.7-64
			L94.2,131.5z"></path><path class="st0" d="M153.9,187.3L152,191v0.1l0,0c-0.4,0.8-1.2,1.4-2.1,1.7l-31.9,9.9c-1.8,0.6-3.7-0.4-4.4-2.2l-24.7-64
			c-0.3-0.9-0.3-1.8,0-2.7l0,0l0.3-0.5l1.7-3.3c-0.3,0.6-0.4,1.3-0.3,2c0,0.3,0.1,0.5,0.2,0.8l1.7,4.3l23,59.7
			c0.7,1.7,2.5,2.7,4.3,2.2l30.3-9.4l1.6-0.5c0.2-0.1,0.3-0.1,0.5-0.2C153,188.5,153.6,188,153.9,187.3z"></path><path class="st1" d="M116.9,203.4c-1.7,0-3.2-1-3.9-2.6l-24.7-64c-0.4-1-0.4-2.1,0-3.1c0-0.1,0.1-0.1,0.1-0.2l0.2-0.5l1.7-3.3
			c0.1-0.3,0.5-0.4,0.7-0.2c0.3,0.1,0.4,0.4,0.3,0.7c-0.2,0.5-0.3,1.1-0.2,1.7c0,0.2,0.1,0.4,0.2,0.7l24.7,64
			c0.6,1.5,2.2,2.3,3.7,1.8l31.9-9.9c0.2,0,0.3-0.1,0.4-0.2c0.6-0.3,1-0.7,1.3-1.3c0.2-0.3,0.5-0.3,0.7-0.2c0.2,0.1,0.3,0.4,0.2,0.7
			l-2,3.8c-0.5,0.9-1.4,1.6-2.4,1.9l-31.9,9.9C117.7,203.3,117.3,203.4,116.9,203.4z M89.4,134.1L89.4,134.1c-0.3,0.7-0.3,1.5,0,2.3
			l24.7,64c0.6,1.5,2.2,2.3,3.7,1.8l31.9-9.9c0.7-0.2,1.4-0.7,1.7-1.4l0.7-1.3l-0.2,0.1l-31.9,9.9c-2.1,0.6-4.3-0.4-5.1-2.5
			l-24.7-64c0-0.1-0.1-0.3-0.1-0.4L89.4,134.1z"></path></g><path class="st1" d="M100.3,129.1l2.9,1.1c1.3,0.4,2.6,0.5,3.9,0.1l7.3-2.3c1.7-0.5,3.1-1.8,3.8-3.5l0.4-1L100.3,129.1z"></path><path class="st1" d="M105.3,131c-0.7,0-1.5-0.1-2.2-0.4l-2.9-1.1c-0.3-0.1-0.4-0.4-0.3-0.7c0.1-0.2,0.2-0.3,0.3-0.3l18.3-5.7
		c0.2-0.1,0.4,0,0.6,0.2c0.1,0.2,0.2,0.4,0.1,0.6l-0.4,1c-0.8,1.8-2.3,3.2-4.2,3.8l-7.3,2.3C106.7,130.9,106,131,105.3,131z
		 M102.1,129.1l1.4,0.5c1.1,0.4,2.4,0.4,3.5,0.1l7.3-2.3c1.6-0.5,2.8-1.6,3.5-3.1L102.1,129.1z"></path></g><g id="element"><path class="st1" d="M432.5,170.6c-0.7,0-1.3,0-2-0.1c-0.3,0-0.5-0.3-0.5-0.6c0-0.3,0.3-0.5,0.6-0.5c0,0,0,0,0,0
		c3.5,0.4,7.1-0.4,10-2.5c1-0.7,2-1.5,2.9-2.4c3.1-3.7,8.1-5.4,12.9-4.2c0.3,0,0.5,0.3,0.5,0.6c0,0.3-0.3,0.5-0.6,0.5
		c-2.2-0.4-4.5-0.3-6.8,0.2c-2,0.9-3.8,2.1-5.3,3.7c-0.9,0.9-1.9,1.7-3,2.5C438.8,169.6,435.7,170.6,432.5,170.6z"></path><path class="st1" d="M430.7,163h-0.3c-0.3,0-0.5-0.3-0.5-0.6c0-0.3,0.3-0.5,0.6-0.5c2.8,0.1,5.4-1.7,7.4-3.3l1.2-1
		c1.8-1.7,3.8-3,6-4c3.2-1.1,6.6-0.7,9.5,1.1c0.3,0.2,0.3,0.5,0.2,0.8c-0.2,0.3-0.5,0.3-0.8,0.2c-2.5-1.6-5.7-2-8.5-1
		c-2.1,0.9-4,2.2-5.7,3.8l-1.2,1C436.7,160.9,433.9,163,430.7,163z"></path><path class="st1" d="M211.4,135.9c-0.2,0-0.4-0.1-0.5-0.3c-2.8-5.1-5.1-10.4-7.1-15.9c-0.1-0.3,0-0.6,0.3-0.7
		c0.3-0.1,0.6,0,0.7,0.3c0,0,0,0,0,0c2,5.4,4.3,10.7,7.1,15.7c0.1,0.3,0,0.6-0.2,0.7c0,0,0,0,0,0
		C211.5,135.9,211.4,135.9,211.4,135.9z"></path><path class="st1" d="M206.1,136.7c-0.2,0-0.4-0.1-0.5-0.3c-3.4-7.3-7.1-14.4-11.1-21.3c-0.1-0.3,0-0.6,0.3-0.7
		c0.2-0.1,0.5,0,0.7,0.2c4,6.9,7.8,14.1,11.2,21.4c0.1,0.3,0,0.6-0.2,0.7c0,0,0,0,0,0C206.2,136.7,206.1,136.7,206.1,136.7z"></path><path class="st1" d="M199.1,137.3c-0.2,0-0.4-0.1-0.5-0.3c-2.9-4.9-6-9.8-9.2-14.5c-0.2-0.2-0.1-0.6,0.1-0.8c0,0,0,0,0,0
		c0.2-0.2,0.6-0.1,0.7,0.1c0,0,0,0,0,0c3.3,4.7,6.4,9.6,9.3,14.6c0.1,0.3,0.1,0.6-0.2,0.7C199.3,137.3,199.2,137.3,199.1,137.3z"></path><path class="st1" d="M86.1,194.4c-0.2,0-0.4-0.1-0.5-0.3c-0.9-2-2.6-3.5-4.8-4c-1.2-0.2-2.5-0.3-3.8-0.2c-1.7,0.2-3.4,0-5-0.5
		c-2.5-1-4-3.3-5.4-5.4l-0.3-0.5c-1.2-1.9-3.1-4.3-5.7-4.5c-0.3,0-0.5-0.3-0.5-0.6c0-0.3,0.3-0.5,0.6-0.5c3.1,0.2,5.2,3,6.5,5
		l0.3,0.5c1.3,2.1,2.7,4.2,4.9,5c1.5,0.5,3,0.6,4.5,0.4c1.3-0.1,2.7-0.1,4,0.2c2.5,0.6,4.5,2.3,5.5,4.6c0.1,0.3,0,0.6-0.3,0.7
		c0,0,0,0,0,0C86.2,194.4,86.1,194.4,86.1,194.4z"></path><path class="st1" d="M92.8,188.3c-0.2,0-0.5-0.2-0.5-0.4c-0.9-3.3-3.6-5.9-6.9-6.8c-1.1-0.3-2.3-0.4-3.5-0.5
		c-2.2-0.2-4.4-0.4-6.3-1.8c-1-0.8-1.8-1.8-2.5-2.9c-0.4-0.7-0.9-1.4-1.5-2c-1.5-1.6-3.7-2.5-5.9-2.4c-0.3,0-0.5-0.2-0.6-0.5
		c0-0.3,0.2-0.6,0.5-0.6c0,0,0,0,0,0c2.6-0.1,5,0.9,6.8,2.8c0.6,0.7,1.1,1.4,1.6,2.1c0.6,1,1.4,1.9,2.3,2.7c1.6,1.2,3.6,1.4,5.7,1.5
		c1.2,0.1,2.4,0.3,3.6,0.5c3.7,1,6.6,3.9,7.7,7.6c0.1,0.3-0.1,0.6-0.4,0.7c0,0,0,0,0,0C92.9,188.3,92.9,188.3,92.8,188.3z"></path></g><g id="candy"><circle class="st0" cx="98.3" cy="233.8" r="18"></circle><path class="st1" d="M98.3,252.4c-10.3,0-18.6-8.3-18.6-18.6c0-10.3,8.3-18.6,18.6-18.6c10.3,0,18.6,8.3,18.6,18.6c0,0,0,0,0,0
		C116.8,244.1,108.5,252.4,98.3,252.4z M98.3,216.3c-9.7,0-17.5,7.8-17.5,17.5c0,9.7,7.8,17.5,17.5,17.5s17.5-7.8,17.5-17.5
		C115.8,224.1,107.9,216.3,98.3,216.3z"></path><path class="st1" d="M98.3,247.4c-1.1,0-2.2-0.1-3.3-0.3c-3.6-0.7-6.4-3.3-7.9-7.2c-1.9-4.9-1.4-11,1.2-14.5
		c2.5-3.4,6.6-5.3,10.8-5.1c3.6,0.1,6.8,1.6,8.3,3.9c2.5,3.8,2.7,8.7,0.6,12.7c-1.5,3-4.5,5-7.8,5.1c-3.2,0.2-6.1-1.4-7.8-4.1
		c-1.6-2.6-1.7-5.9-0.3-8.7c1.6-2.8,4.9-4.1,8-3c2.7,0.9,5.2,3.9,4.3,9.3c0,0.3-0.3,0.5-0.6,0.5c0,0,0,0,0,0c-0.3,0-0.5-0.3-0.5-0.6
		c0,0,0,0,0,0c0.7-4.8-1.4-7.3-3.7-8.1c-2.6-0.9-5.4,0.2-6.7,2.6c-1.2,2.4-1.1,5.3,0.3,7.5c1.4,2.4,4,3.8,6.8,3.6
		c3-0.1,5.6-1.9,6.9-4.5c1.9-3.7,1.7-8.1-0.6-11.5c-1.3-2-4.2-3.3-7.5-3.4c-3.9-0.2-7.5,1.5-9.9,4.6c-2.4,3.3-2.8,8.9-1,13.5
		c1.4,3.6,3.9,5.9,7.1,6.5c11,2.2,15.5-7.4,15.7-7.8c0.1-0.3,0.4-0.4,0.7-0.3c0,0,0,0,0,0c0.3,0.1,0.4,0.4,0.3,0.7c0,0,0,0,0,0
		C111.8,238.7,107.7,247.4,98.3,247.4z"></path><path class="st2" d="M102.5,234.4l35.4,7.4c0.3,0.1,0.5,0.4,0.4,0.7c-0.1,0.2-0.2,0.3-0.4,0.4l0,0c-2.6,0.7-5.4,0.8-8,0.2l-28-6
		c-0.7-0.1-1.2-0.9-1.1-1.6c0,0,0-0.1,0-0.1l0,0C101,234.6,101.7,234.2,102.5,234.4C102.5,234.4,102.5,234.4,102.5,234.4z"></path><path class="st1" d="M133.5,244c-1.2,0-2.5-0.1-3.7-0.4l-28-6c-0.5-0.1-1-0.4-1.2-0.9c-0.6-0.9-0.3-2.1,0.6-2.6
		c0.4-0.3,0.9-0.4,1.4-0.3l35.4,7.4c0.6,0,1.1,0.5,1.1,1.1c0,0.6-0.5,1.1-1.1,1.1C136.6,243.8,135,244,133.5,244z M102.2,234.9
		c-0.4,0-0.7,0.3-0.8,0.6c-0.1,0.4,0.1,0.9,0.6,1c0,0,0,0,0,0l28,6c2.6,0.5,5.2,0.5,7.8-0.2l-35.4-7.4L102.2,234.9L102.2,234.9z"></path></g><g id="package-1"><path class="st0" d="M76.5,324.6l-10.2,3.6l-17.4-47.1l10.1-2.9c0,0,1.9,3.1,4.6,2L78.3,319C75.6,319.9,76.5,324.6,76.5,324.6z"></path><path class="st1" d="M66.3,328.8c-0.2,0-0.4-0.1-0.5-0.4l-17.4-47.1c-0.1-0.1-0.1-0.3,0-0.4c0.1-0.1,0.2-0.2,0.3-0.3l10.1-2.9
		c0.2-0.1,0.5,0,0.6,0.2c0.1,0.1,1.7,2.7,4,1.8c0.1,0,0.3,0,0.4,0c0.1,0.1,0.2,0.2,0.3,0.3l14.6,38.7c0.1,0.1,0.1,0.3,0,0.4
		c-0.1,0.1-0.2,0.2-0.3,0.3c-2.2,0.7-1.4,5-1.4,5c0.1,0.3-0.1,0.5-0.3,0.6l-10.2,3.6C66.4,328.8,66.3,328.8,66.3,328.8z M49.6,281.6
		l17,46l9.3-3.3c-0.2-1.2-0.3-4.4,1.7-5.5L63.3,281c-1.8,0.3-3.6-0.5-4.5-2.1L49.6,281.6z"></path><path class="st2" d="M127.9,307.8l-45.5,15c0,0-1.6-4.7-4.2-3.9l-14.6-38.7c2.7-1.1,1.6-4.6,1.6-4.6l46.1-14.7
		c1.5-0.5,3,0.3,3.5,1.7l14.9,41.4C130.2,305.6,129.5,307.3,127.9,307.8C128,307.8,127.9,307.8,127.9,307.8z"></path><path class="st1" d="M82.4,323.4c-0.2,0-0.4-0.1-0.5-0.4c0,0-1.5-4.2-3.5-3.5c-0.3,0.1-0.6,0-0.7-0.3l-14.6-38.7
		c-0.1-0.3,0-0.6,0.3-0.7c2.2-0.9,1.3-3.8,1.2-4c-0.1-0.1-0.1-0.3,0-0.4c0.1-0.1,0.2-0.2,0.3-0.3l46.1-14.7c1.7-0.6,3.6,0.4,4.2,2.1
		l14.9,41.4c0.3,0.9,0.2,1.8-0.2,2.6c-0.4,0.8-1.1,1.4-2,1.7l-45.4,15L82.4,323.4z M78.9,318.3c2.1,0,3.4,2.7,3.9,3.8l45-14.8l0,0
		c0.6-0.2,1.1-0.6,1.3-1.2c0.3-0.6,0.3-1.2,0.1-1.8l-14.9-41.4c-0.4-1.2-1.7-1.8-2.8-1.4l-45.6,14.5c0.3,1.4,0.2,3.5-1.5,4.5
		l14.3,37.8C78.7,318.4,78.8,318.3,78.9,318.3z"></path><path class="st1" d="M74.5,322.8c-0.2,0-0.4-0.1-0.5-0.3l-16.1-41.9c-0.1-0.3,0-0.6,0.3-0.7c0.3-0.1,0.6,0,0.7,0.3c0,0,0,0,0,0
		L75,322c0.1,0.3,0,0.6-0.3,0.7c0,0,0,0,0,0L74.5,322.8z"></path><path class="st1" d="M69.7,324.5c-0.2,0-0.4-0.1-0.5-0.3l-16.5-42.6c-0.1-0.3,0.1-0.6,0.4-0.7c0.3-0.1,0.5,0,0.6,0.3l16.5,42.6
		c0.1,0.3,0,0.6-0.3,0.7c0,0,0,0,0,0C69.8,324.5,69.8,324.5,69.7,324.5z"></path><circle class="st0" cx="94.6" cy="292.6" r="15.7"></circle><path class="st1" d="M94.6,308.9c-9,0-16.3-7.3-16.3-16.3s7.3-16.3,16.3-16.3s16.3,7.3,16.3,16.3l0,0
		C110.8,301.6,103.6,308.9,94.6,308.9z M94.6,277.5c-8.4,0-15.2,6.8-15.2,15.2s6.8,15.2,15.2,15.2s15.2-6.8,15.2-15.2
		C109.8,284.3,103,277.4,94.6,277.5C94.6,277.4,94.6,277.4,94.6,277.5L94.6,277.5z"></path></g></svg>