<svg transform="scale(1)" version="1.1" id="Layer_1" xmlns="http://www.w3.org/2000/svg" xmlns:xlink="http://www.w3.org/1999/xlink" x="0px" y="0px" viewBox="0 0 500 500" xml:space="preserve" class="show_show__wrapper__graphic__5Waiy "><title>React</title><style type="text/css">
	.st0{fill:#0e8551;}
	.st1{fill:#FFFFFF;}
	.st2{fill:#000001;}
	.st3{fill:#F3CB5C;}
	.st4{fill:#F2EBEB;}
	.st5{fill:#47b273;}
	.st6{fill:#1d950a;}
	.st7{clip-path:url(#SVGID_2_);}
	.st8{fill:#e48a8a;}
</style><g id="device"><path class="st0" d="M105.5,430.3C95.1,435,87.1,121.8,98.9,90.7S349,56,385.4,83.3s18.7,322.6,4.3,348.7L105.5,430.3z"></path><path class="st1" d="M105.5,430.3c1.2-50.4-5.9-300.3,4.9-330.3s229.1-33.6,262.5-7.2S389.6,435,389.6,435L105.5,430.3z"></path><path class="st2" d="M217.9,86.3c0,0-12.2,0.6-11.5,10s3.7,11,22.4,12.3s52.6,2.9,58.4-4.2s3.4-19.1-9.5-19.4
		S217.9,86.3,217.9,86.3z"></path><path class="st3" d="M276.6,93.6c0,0-4.5,1-3.6,5s7.5,3.6,9.2,0S278.3,92.9,276.6,93.6z"></path><path class="st4" d="M145.3,165c-4.6,0.1-9.1-0.3-13.6-1.1c-1.2-0.3-2.2-0.7-2.4-1.6c-0.9-4.1-3.4-17.6,0.5-19.8s24.7-0.7,27.7-0.1
		c1.1,0.3,1.9,1.2,2.1,2.3c1.6,4.4,0.7,15.2-1.6,18.1C156.6,164.4,151.1,165,145.3,165z M131.1,161.7c2.7,1.5,23.6,2,25.3-0.1
		s2.7-12.1,1.2-16.1c-0.3-0.8-0.6-1-0.7-1c-3.8-0.8-23.2-1.9-26.3-0.1C128.9,145.2,129.5,154,131.1,161.7L131.1,161.7z"></path><path class="st4" d="M143.4,159.4c-0.2,0-0.4,0-0.6,0c-2.5-0.2-4.5-2.1-4.8-4.6c-0.8-3.3,1.2-6.7,4.5-7.7c1.4-0.6,3.9,0,5.6,1.5
		c1.9,1.6,2.5,4.1,1.6,6.4C148.7,157.6,146.2,159.4,143.4,159.4z M143.1,149c-2.4,0.7-3.7,3.1-3.1,5.5c0.1,1.6,1.4,2.9,3,3
		c2.1,0.1,4.1-1.1,4.8-3.1c0.6-1.5,0.2-3.1-1-4.1c-1.3-1.2-3-1.4-3.4-1.2L143.1,149z"></path><path class="st4" d="M356.8,142.2c-2.9,0.1-5.8-0.1-8.7-0.4l0.4-2c4.5,0.8,24,0,24.2,0l0.1,2C372.2,141.8,363.9,142.2,356.8,142.2z
		"></path><rect class="st4" x="348.3" y="148.3" width="26.1" height="2"></rect><rect class="st4" x="348.3" y="156" width="13" height="2"></rect><path class="st4" d="M178.9,163.4c0,0,126.4,1.3,138.1-1.9s9.7-15.6,0-20.8s-119.5-0.5-131.7,0S166,160.9,178.9,163.4z"></path><path class="st5" d="M155.7,384.3c0,0-5.6,0.4-6.2,1.1s-1,13.1,0,14.7s24.9,0.4,25.8,0s1.4-13.7,1-14.6s-7.1-2.5-7.1-2.5
		s-0.6-3.6-1.5-3.7s-10.5-0.3-10.8,0C156.4,380.9,156,382.6,155.7,384.3z"></path><path class="st1" d="M160.6,386.8c0,0-5.7,4.1-2,8.2s8.3,2.9,9-1.9S166.1,384.9,160.6,386.8z"></path><path class="st2" d="M188.5,396.3c-0.2,0-0.4,0-0.6-0.1c-0.6-0.4-0.9-1.1-0.9-1.8c0-0.6-0.2-1.2-0.6-1.7c-0.1-0.1-0.2-0.1-0.4-0.1
		c-0.9,0.1-2.4,1.8-3.2,3l-1.7-1.1c0.4-0.6,2.5-3.6,4.6-3.9c0.7-0.1,1.4,0.1,1.9,0.6c0.7,0.7,1.1,1.7,1.2,2.8
		c0.2-0.1,0.4-0.3,0.7-0.5c2.4-1.6,5.6-3.4,7.2-2.3c0.3,0.2,0.5,0.4,0.7,0.8c1.2-0.6,2.5-0.8,3.8-0.6c0.9,0.2,1.6,0.9,1.9,1.7
		l-1.8,0.8c-0.1-0.3-0.3-0.5-0.6-0.6c-1.2-0.1-2.3,0.3-3.3,0.9c-0.2,1-1,1.8-2,2c-0.6,0.1-1.2-0.3-1.4-0.8c-0.2-0.7,0.1-1.5,0.7-1.9
		c0.2-0.1,0.5-0.4,0.9-0.6v-0.1c-0.5-0.1-2.2,0.3-5,2.3C190.2,395.7,189.4,396.1,188.5,396.3z"></path><path class="st5" d="M313.2,397.6c-1-0.1-12,2.2-15.1-4.2s1.2-13.5,15.1-12.5s12.2,8.5,7.8,12.5c0,0,3.4,7.9,0.7,7.6
		S313.2,397.6,313.2,397.6z"></path><path class="st5" d="M226.4,399.7c0,0,5.9-9,11-8.8s10.7,7.8,9.5,10.1S226.4,399.7,226.4,399.7z"></path><path class="st5" d="M236.6,382.5c0,0-4.5,2.9-1.6,5.8s6.5,2,7.1-1.3S241,381.2,236.6,382.5z"></path><path class="st2" d="M262.4,395.8c-0.2,0-0.4,0-0.6-0.1c-0.6-0.4-0.9-1.1-0.9-1.8c0-0.6-0.2-1.2-0.6-1.7c-0.1-0.1-0.2-0.1-0.4-0.1
		c-0.9,0.1-2.5,1.8-3.2,3l-1.7-1.1c0.4-0.6,2.5-3.6,4.6-3.9c0.7-0.1,1.4,0.1,2,0.6c0.7,0.7,1.2,1.7,1.2,2.8l0.7-0.5
		c2.4-1.6,5.6-3.4,7.2-2.3c0.3,0.2,0.5,0.4,0.7,0.8c1.2-0.6,2.5-0.9,3.8-0.6c0.9,0.2,1.6,0.9,2,1.7l-1.8,0.8
		c-0.1-0.3-0.3-0.5-0.6-0.6c-1.2-0.1-2.3,0.3-3.3,0.9c-0.4,1.4-1.3,2-2,2c-0.6,0.1-1.2-0.3-1.4-0.8c-0.2-0.7,0.1-1.5,0.7-1.8
		c0.2-0.1,0.5-0.4,0.9-0.6c0,0,0,0,0,0c-0.5-0.1-2.1,0.3-5,2.3C264.1,395.3,263.3,395.7,262.4,395.8z"></path><path class="st2" d="M334.3,395c-0.2,0-0.4,0-0.6-0.1c-0.6-0.4-0.9-1.1-0.9-1.8c0-0.6-0.2-1.2-0.6-1.7c-0.1-0.1-0.2-0.1-0.4-0.1
		c-0.9,0.1-2.5,1.8-3.2,3l-1.7-1.1c0.4-0.6,2.5-3.6,4.6-3.9c0.7-0.1,1.4,0.1,2,0.6c0.7,0.7,1.2,1.7,1.2,2.8c0.2-0.1,0.4-0.3,0.7-0.5
		c2.4-1.7,5.6-3.4,7.2-2.3c0.3,0.2,0.5,0.5,0.7,0.8c1.2-0.6,2.5-0.9,3.8-0.6c0.9,0.2,1.6,0.9,1.9,1.7l-1.8,0.8
		c-0.1-0.3-0.3-0.5-0.6-0.6c-1.2-0.1-2.3,0.3-3.3,0.9c-0.4,1.4-1.3,2-2,2c-0.6,0.1-1.2-0.3-1.4-0.8c-0.2-0.7,0.1-1.5,0.7-1.8
		c0.2-0.1,0.5-0.4,0.9-0.6c0,0,0,0,0-0.1c-0.5-0.1-2.2,0.3-5,2.3C336,394.5,335.2,394.9,334.3,395z"></path><path class="st2" d="M249.7,366.7L249.7,366.7c-1.1,0-1.8-1.1-2-3.1c-0.3-3.8,2-8,6.3-11.6c0.1-1.2,0.1-2.4,0-3.5
		c-0.3-4.7-2.2-7.6-5.6-8.5c-8.5-2.3-13.5,3.8-18.4,9.6c-2.6,3.2-5.1,6.1-8.1,7.8c-0.6,0.4-2.4,1.3-3.4,0.2
		c-2.1-2.5,7.6-15,10.7-19.1l1.6,1.2c-4.9,6.3-10,13.9-10.6,16.3c0.2-0.1,0.5-0.2,0.7-0.3c2.6-1.4,5-4.3,7.5-7.3
		c5-6,10.7-12.9,20.4-10.3c4.8,1.3,7.2,5.7,7.1,12.4c0.3-0.2,0.6-0.4,0.9-0.6c4.2-2.8,9.8-4.9,12.8-3.3c0.5,0.2,0.9,0.6,1.2,1
		c1.6-0.9,3.4-1.5,5.2-1.8c3.7-0.6,5.5,1,6.4,2.4c1.4,2.3,1.9,4.4,1.3,6.2c-0.5,1.5-1.6,2.7-3,3.4l-0.8-1.8c0.9-0.5,1.6-1.3,1.9-2.2
		c0.4-1.2,0-2.8-1.1-4.5c-0.8-1.3-2.3-1.8-4.4-1.5c-1.7,0.3-3.3,0.9-4.8,1.8c0,0.1,0,0.2,0,0.3c0.1,5.5-3,7.4-3.9,7.9
		c-1.2,0.7-2.6,0.6-3.8-0.1c-0.8-0.7-1.1-1.8-0.8-2.8c0.5-1.8,2.9-4.2,6-6.2c-0.1-0.1-0.2-0.2-0.4-0.3c-1.9-1-6.5,0.4-10.8,3.2
		c-0.7,0.5-1.5,1-2.2,1.6c0,0.4-0.1,0.7-0.1,1.1C254.9,359.2,252.3,366.7,249.7,366.7z M253.5,355.1c-2.4,2.5-4.1,5.4-3.8,8.2
		c0,0.4,0.1,0.8,0.2,1.1C250.8,363.5,252.6,359.7,253.5,355.1z M269.6,350.6c-2.3,1.6-4.1,3.4-4.4,4.5c-0.1,0.2-0.1,0.6,0.1,0.7
		c0.5,0.2,1.1,0.2,1.6-0.1C267.5,355.5,269.4,354.2,269.6,350.6z"></path></g><g id="character"><path class="st4" d="M226.3,191.4c0,0-53.7,12.6-40.3,79.1s96.9,68.7,122.3,20.6S313.5,175.6,226.3,191.4z"></path><g id="character-3"><circle class="st2" cx="326.4" cy="270.8" r="1.2"></circle><path class="st2" d="M336.3,280.3c-1.2,0-2.3-0.2-3.4-0.6c-1.1-0.4-2.1-0.8-3.1-1.4c-1-0.6-1.9-1.2-2.8-2
			c-0.9-0.8-1.6-1.7-2.2-2.7c1,0.4,2.1,0.9,3.1,1.5c1,0.5,1.9,1,2.9,1.6s1.9,1.1,2.8,1.7C334.5,278.9,335.5,279.6,336.3,280.3z"></path><path class="st6" d="M305.3,287.6c7.9-6.9,15.3-14.2,22.5-21.9c1.9-2.1,13,4.9,12.6,5.9s-20.9,57.6-35.6,57.6
			c-3.3,0-16.2-14.9-25.2-25.6c-0.6,8.4-1,14.7-1,14.7c-46.1,19.9-70.7-9.7-70.7-9.7s-3.9-53.2,16.4-62.2c0,0,24.7-6.5,53,10.6
			L305.3,287.6z"></path><g><defs><path id="SVGID_1_" d="M305.3,287.6c7.9-6.9,15.3-14.2,22.5-21.9c1.9-2.1,13,4.9,12.6,5.9s-20.9,57.6-35.6,57.6
					c-3.3,0-16.2-14.9-25.2-25.6c-0.6,8.4-1,14.7-1,14.7c-46.1,19.9-70.7-9.7-70.7-9.7s-3.9-53.2,16.4-62.2c0,0,24.7-6.5,53,10.6
					L305.3,287.6z"></path></defs><clipPath id="SVGID_2_"><use xlink:href="#SVGID_1_" style="overflow: visible;"></use></clipPath><g class="st7"><path class="st1" d="M357.5,373.7h-0.1l-216.1-68c-0.3-0.1-0.4-0.3-0.3-0.6c0,0,0,0,0,0c0.1-0.3,0.4-0.4,0.6-0.3c0,0,0,0,0,0
					l216.1,68c0.3,0.1,0.4,0.4,0.3,0.6c0,0,0,0,0,0C357.9,373.6,357.7,373.7,357.5,373.7z"></path><path class="st1" d="M361.9,358.4c0,0-0.1,0-0.1,0l-216.8-64c-0.3-0.1-0.4-0.3-0.3-0.6c0,0,0,0,0,0c0.1-0.3,0.4-0.4,0.6-0.3
					l216.8,64c0.3,0.1,0.4,0.4,0.3,0.6C362.3,358.3,362.1,358.4,361.9,358.4z"></path><path class="st1" d="M365.9,344.2h-0.1L148.5,282c-0.3-0.1-0.4-0.4-0.3-0.6c0.1-0.3,0.3-0.4,0.6-0.3c0,0,0,0,0,0l217.3,62.2
					c0.3,0.1,0.4,0.4,0.3,0.6C366.4,344.1,366.2,344.2,365.9,344.2z"></path><path class="st1" d="M369.8,330.7h-0.1l-217.8-60.9c-0.3-0.1-0.4-0.4-0.3-0.6c0.1-0.3,0.3-0.4,0.6-0.3c0,0,0,0,0,0l217.8,60.9
					c0.3,0,0.5,0.3,0.4,0.6S370.1,330.8,369.8,330.7L369.8,330.7z"></path><path class="st1" d="M374,316.2h-0.1L155,259.7c-0.3-0.1-0.4-0.3-0.4-0.6s0.3-0.4,0.6-0.4l218.9,56.5c0.3,0.1,0.4,0.3,0.4,0.6
					c0,0,0,0,0,0C374.4,316,374.2,316.2,374,316.2z"></path><path class="st1" d="M377.5,303.9h-0.1l-219.3-55.2c-0.3-0.1-0.4-0.3-0.4-0.6c0,0,0,0,0,0c0.1-0.3,0.3-0.4,0.6-0.4l219.3,55.1
					c0.3,0.1,0.4,0.3,0.4,0.6C378,303.7,377.8,303.9,377.5,303.9z"></path><path class="st1" d="M379.8,296h-0.1l-219.5-54.3c-0.3-0.1-0.4-0.3-0.4-0.6c0.1-0.3,0.3-0.4,0.6-0.4c0,0,0,0,0,0l219.5,54.4
					c0.3,0,0.5,0.3,0.4,0.6S380.1,296.1,379.8,296L379.8,296z"></path><path class="st1" d="M381.7,289.3h-0.1l-218.9-56.5c-0.3-0.1-0.4-0.3-0.4-0.6s0.3-0.4,0.6-0.4l218.9,56.5c0.3,0,0.5,0.3,0.4,0.6
					S382,289.3,381.7,289.3z"></path><path class="st1" d="M182.9,371.2h-0.1c-0.3-0.1-0.4-0.4-0.4-0.6l52.4-183.1c0.1-0.3,0.4-0.4,0.6-0.4c0.3,0.1,0.4,0.4,0.4,0.6
					l0,0l-52.4,183.1C183.3,371.1,183.1,371.2,182.9,371.2z"></path><path class="st1" d="M171.9,367.8h-0.1c-0.3-0.1-0.4-0.3-0.3-0.6c0,0,0,0,0,0L225.3,187c0.1-0.3,0.4-0.4,0.6-0.4
					s0.4,0.4,0.4,0.6l-54,180.1C172.3,367.6,172.1,367.7,171.9,367.8z"></path><path class="st1" d="M159.7,364.3h-0.1c-0.3-0.1-0.4-0.4-0.3-0.6l40-139.9c0.1-0.3,0.4-0.4,0.6-0.4s0.4,0.4,0.4,0.6l-40,139.9
					C160.1,364.1,159.9,364.3,159.7,364.3z"></path><path class="st1" d="M147.8,360.9h-0.1c-0.3-0.1-0.4-0.3-0.4-0.6c0,0,0,0,0,0L186,220c0.1-0.3,0.4-0.4,0.6-0.4
					c0.3,0.1,0.4,0.4,0.4,0.6l0,0l-38.8,140.3C148.2,360.8,148,360.9,147.8,360.9z"></path><path class="st1" d="M137.8,358h-0.1c-0.3-0.1-0.4-0.3-0.4-0.6l34.5-141.5c0.1-0.3,0.3-0.4,0.6-0.4c0.3,0.1,0.4,0.3,0.4,0.6
					l-34.5,141.5C138.2,357.9,138,358,137.8,358z"></path><path class="st1" d="M127,354.9h-0.1c-0.3-0.1-0.4-0.3-0.4-0.6l33.2-141.9c0.1-0.3,0.3-0.4,0.6-0.4c0.3,0.1,0.4,0.3,0.4,0.6
					c0,0,0,0,0,0l-33.1,141.9C127.5,354.8,127.2,354.9,127,354.9z"></path><path class="st1" d="M120.1,352.9H120c-0.3-0.1-0.4-0.3-0.4-0.6c0,0,0,0,0,0L152,210.2c0.1-0.3,0.3-0.4,0.6-0.4c0,0,0,0,0,0
					c0.3,0.1,0.4,0.3,0.4,0.6c0,0,0,0,0,0l-32.4,142.1C120.6,352.8,120.4,352.9,120.1,352.9z"></path><path class="st1" d="M111.4,350.4h-0.1c-0.3-0.1-0.4-0.3-0.4-0.6c0,0,0,0,0,0l34.5-141.5c0.1-0.3,0.3-0.4,0.6-0.4
					c0.3,0.1,0.4,0.3,0.4,0.6l-34.5,141.5C111.9,350.3,111.7,350.4,111.4,350.4z"></path><path class="st1" d="M225.1,392.8h-0.1c-0.3-0.1-0.4-0.4-0.3-0.6c0,0,0,0,0,0l71.5-228.8c0.1-0.3,0.4-0.4,0.6-0.3
					c0.3,0.1,0.4,0.4,0.3,0.6c0,0,0,0,0,0l-71.5,228.8C225.5,392.6,225.3,392.8,225.1,392.8z"></path><path class="st1" d="M214.1,389.1c0,0-0.1,0-0.1,0c-0.3-0.1-0.4-0.3-0.3-0.6c0,0,0,0,0,0l67.5-229.4c0.1-0.3,0.3-0.4,0.6-0.3
					c0,0,0,0,0,0c0.3,0.1,0.4,0.4,0.3,0.6l-67.5,229.4C214.5,389,214.3,389.1,214.1,389.1z"></path><path class="st1" d="M201.9,385.7c0,0-0.1,0-0.1,0c-0.3-0.1-0.4-0.3-0.3-0.6c0,0,0,0,0,0l65.8-230c0.1-0.3,0.4-0.4,0.6-0.3
					c0.3,0.1,0.4,0.3,0.3,0.6c0,0,0,0,0,0l-65.8,230C202.3,385.5,202.1,385.7,201.9,385.7z"></path><path class="st1" d="M190,382.4h-0.1c-0.3-0.1-0.4-0.4-0.3-0.6L254,151.3c0.1-0.3,0.4-0.4,0.6-0.4c0.3,0.1,0.4,0.4,0.4,0.6l0,0
					L190.4,382C190.4,382.2,190.2,382.3,190,382.4z"></path><path class="st1" d="M180,379.4h-0.1c-0.3-0.1-0.4-0.3-0.4-0.6c0,0,0,0,0,0l60.2-231.5c0.1-0.3,0.3-0.4,0.6-0.4s0.4,0.3,0.4,0.6
					L180.5,379C180.4,379.2,180.2,379.4,180,379.4z"></path><path class="st1" d="M169.2,376.3h-0.1c-0.3-0.1-0.4-0.3-0.4-0.6c0,0,0,0,0,0l58.9-231.9c0.1-0.3,0.3-0.4,0.6-0.4
					c0.3,0.1,0.4,0.3,0.4,0.6c0,0,0,0,0,0l-58.9,231.9C169.7,376.1,169.5,376.3,169.2,376.3z"></path><path class="st1" d="M162.4,374.3h-0.1c-0.3-0.1-0.4-0.3-0.4-0.6L220,141.5c0.1-0.3,0.3-0.4,0.6-0.4c0.3,0.1,0.4,0.3,0.4,0.6
					l-58.1,232.1C162.8,374.1,162.6,374.3,162.4,374.3z"></path><path class="st1" d="M153.7,371.8h-0.1c-0.3-0.1-0.4-0.3-0.4-0.6l60.2-231.5c0.1-0.3,0.3-0.4,0.6-0.4c0.3,0.1,0.4,0.3,0.4,0.6
					c0,0,0,0,0,0l-60.2,231.5C154.1,371.7,153.9,371.8,153.7,371.8z"></path><path class="st1" d="M351.1,277.3H351l-177.8-57c-0.3-0.1-0.4-0.4-0.3-0.6c0.1-0.3,0.4-0.4,0.6-0.3l177.8,57
					c0.3,0.1,0.4,0.4,0.3,0.6C351.5,277.2,351.4,277.3,351.1,277.3z"></path><path class="st1" d="M355.5,262.1h-0.1l-178.5-53c-0.3-0.1-0.4-0.4-0.3-0.6c0.1-0.3,0.4-0.4,0.6-0.3l178.5,53
					c0.3,0,0.5,0.3,0.4,0.6C356,261.9,355.8,262.1,355.5,262.1L355.5,262.1z"></path><path class="st1" d="M359.6,247.8h-0.1l-179-51.2c-0.3-0.1-0.4-0.4-0.4-0.6s0.4-0.4,0.6-0.4l179,51.2c0.3,0,0.5,0.3,0.4,0.6
					S359.9,247.9,359.6,247.8L359.6,247.8z"></path><path class="st1" d="M363.4,234.4c0,0-0.1,0-0.1,0l-179.5-49.9c-0.3-0.1-0.4-0.3-0.4-0.6c0,0,0,0,0,0c0.1-0.3,0.4-0.4,0.6-0.3
					l179.5,49.9c0.3,0.1,0.4,0.3,0.4,0.6c0,0,0,0,0,0C363.9,234.2,363.7,234.4,363.4,234.4z"></path><path class="st1" d="M367.6,219.8h-0.1l-180.7-45.6c-0.3-0.1-0.4-0.3-0.4-0.6c0.1-0.3,0.3-0.4,0.6-0.4l180.7,45.6
					c0.3,0,0.5,0.3,0.4,0.6S367.9,219.8,367.6,219.8L367.6,219.8z"></path><path class="st1" d="M371.2,207.5h-0.1L190,163.3c-0.3-0.1-0.4-0.3-0.4-0.6c0.1-0.3,0.3-0.4,0.6-0.4c0,0,0,0,0,0l181.1,44.2
					c0.3,0.1,0.4,0.3,0.4,0.6C371.6,207.3,371.4,207.5,371.2,207.5z"></path><path class="st1" d="M373.4,199.7h-0.1L192,156.2c-0.3-0.1-0.4-0.3-0.4-0.6c0.1-0.3,0.3-0.4,0.6-0.4l181.3,43.4
					c0.3,0,0.5,0.3,0.4,0.6S373.7,199.7,373.4,199.7L373.4,199.7z"></path><path class="st1" d="M375.3,192.9h-0.1l-180.7-45.6c-0.3-0.1-0.4-0.3-0.4-0.6c0.1-0.3,0.3-0.4,0.6-0.4c0,0,0,0,0,0l180.7,45.6
					c0.3,0,0.5,0.3,0.4,0.6S375.6,193,375.3,192.9L375.3,192.9z"></path><path class="st1" d="M311.8,422.3c0,0-0.1,0-0.1,0c-0.3-0.1-0.4-0.4-0.3-0.6l71.5-228.8c0.1-0.3,0.4-0.4,0.6-0.3
					c0.3,0.1,0.4,0.4,0.3,0.6L312.2,422C312.2,422.2,312,422.3,311.8,422.3z"></path><path class="st1" d="M300.8,418.7h-0.1c-0.3-0.1-0.4-0.4-0.3-0.6l67.5-229.5c0.1-0.3,0.4-0.4,0.6-0.3c0.3,0.1,0.4,0.4,0.3,0.6
					l-67.5,229.4C301.2,418.5,301,418.7,300.8,418.7z"></path><path class="st1" d="M288.6,415.2h-0.1c-0.3-0.1-0.4-0.4-0.3-0.6l65.8-229.9c0.1-0.3,0.3-0.4,0.6-0.4c0,0,0,0,0,0
					c0.3,0.1,0.4,0.4,0.3,0.6l-65.8,230C289,415.1,288.8,415.2,288.6,415.2z"></path><path class="st1" d="M276.7,411.9h-0.1c-0.3-0.1-0.4-0.3-0.4-0.6c0,0,0,0,0,0l64.5-230.4c0.1-0.3,0.4-0.4,0.6-0.4
					c0.3,0.1,0.4,0.4,0.4,0.6l0,0l-64.6,230.4C277.1,411.7,276.9,411.9,276.7,411.9z"></path><path class="st1" d="M266.7,408.9h-0.1c-0.3-0.1-0.4-0.3-0.4-0.6c0,0,0,0,0,0l60.2-231.5c0.1-0.3,0.3-0.4,0.6-0.4
					c0.3,0.1,0.4,0.3,0.4,0.6c0,0,0,0,0,0l-60.2,231.5C267.1,408.8,266.9,408.9,266.7,408.9z"></path><path class="st1" d="M256,405.8h-0.1c-0.3-0.1-0.4-0.3-0.4-0.6c0,0,0,0,0,0l58.9-231.9c0.1-0.3,0.3-0.4,0.6-0.4
					c0.3,0.1,0.4,0.3,0.4,0.6l-58.9,231.9C256.4,405.7,256.2,405.8,256,405.8z"></path><path class="st1" d="M249.1,403.8L249.1,403.8c-0.3-0.1-0.5-0.3-0.4-0.6c0,0,0,0,0,0l58.1-232.1c0.1-0.3,0.3-0.4,0.6-0.4
					c0,0,0,0,0,0c0.3,0.1,0.4,0.3,0.4,0.6c0,0,0,0,0,0l-58.2,232.1C249.5,403.7,249.3,403.8,249.1,403.8z"></path><path class="st1" d="M240.4,401.3h-0.1c-0.3-0.1-0.4-0.3-0.4-0.6c0,0,0,0,0,0l60.2-231.5c0.1-0.3,0.3-0.4,0.6-0.4
					s0.4,0.3,0.4,0.6L240.9,401C240.8,401.2,240.6,401.3,240.4,401.3z"></path></g></g><path class="st8" d="M259.1,208.8c0,0,7,15.7,6.4,16c-0.9,0.2-1.7,0.2-2.6,0c0,0,3.8,11.1,2.9,26.7c0,0-16.7,0.5-25.2-5.5
			c0,0-4.8-40-1.6-41.7S259.1,208.8,259.1,208.8z"></path><path class="st3" d="M241.9,215.2c0,0,3,7.8,2.4,9.4s-6-1.9-6-1.9s-3.7-18.2-2.1-20.7s40.7,6.1,37.8,8s-14.9-1.2-14.9-1.2
			l-11.9,0.8C247.1,209.5,245.1,214,241.9,215.2z"></path><path class="st8" d="M238.6,222.8c0,0-6.3-1.8-5.2-7.3s7.4,4.2,7.4,4.2L238.6,222.8z"></path><path class="st2" d="M252,218.7c0.6-0.8,1.6-1.1,2.6-0.8c0.4,0.1,0.8,0.4,1.1,0.8c0.3,0.4,0.5,0.9,0.4,1.4c-0.4,0-0.9,0-1.3,0
			c-0.3,0-0.6-0.1-0.9-0.2c-0.3-0.1-0.6-0.2-0.9-0.4C252.7,219.3,252.3,219,252,218.7z"></path><path class="st2" d="M251.2,226.2c0.5,0.3,1,0.6,1.6,0.8c0.2,0.1,0.4,0.2,0.6,0.3c0.4,0.2,0.7,0.4,1,0.7c-0.2,0.4-0.6,0.7-1.1,0.9
			c-0.5,0.1-1,0.1-1.4-0.1c-0.5-0.2-0.8-0.6-1-1.1C250.7,227.2,250.8,226.6,251.2,226.2z"></path><path class="st3" d="M248.2,215.7c0.5-0.6,1.1-1.1,1.9-1.5c0.7-0.3,1.5-0.5,2.2-0.6c1.6-0.2,3.1,0.2,4.4,1.1
			c-0.7,0.3-1.4,0.5-2.2,0.6c-0.7,0.1-1.4,0.2-2,0.3s-1.4,0.1-2.1,0.1C249.8,215.8,249,215.8,248.2,215.7z"></path><path class="st2" d="M233.9,286.2c0.2,3,0.3,5.9,0.3,8.9s-0.2,5.9-0.3,8.9s-0.4,5.9-0.7,8.9s-0.7,5.9-1.3,8.8
			c-0.2-3-0.3-6-0.3-8.9s0.1-5.9,0.3-8.9s0.4-5.9,0.7-8.9S233.3,289.1,233.9,286.2z"></path><path class="st8" d="M327.8,265.7c0,0,4.6-11.3,2.9-18.4s3.1-4.2,4.9,1c0,0,6-12.6,6.8-16.3s6-0.5-0.1,13.5c0,0,3.6-6.5,4.9-9.8
			s4.7-2.3,2.2,5.2s-4.5,11.9-4.5,11.9s4.1-7,4.8-9.8s4.2-1.5,1.4,7.3c-2.8,8.8-10.6,20.9-11.5,22.4S327.8,265.7,327.8,265.7z"></path><path class="st2" d="M338.4,259.4c0.4-1.9,0.3-3.9-0.1-5.8c-0.3-0.9-0.7-1.8-1.1-2.6c-0.2-0.4-0.5-0.9-0.7-1.3
			c-0.3-0.5-0.6-0.9-0.8-1.4c1.1,0.4,2,1,2.8,1.8c0.8,0.8,1.4,1.9,1.8,3c0.3,1.1,0.3,2.3,0,3.5C339.9,257.7,339.3,258.7,338.4,259.4
			z"></path></g><path class="st5" d="M196.6,291.2c0,0-12.4,2.9-9.3,18.2s22.3,15.8,28.2,4.7S216.6,287.5,196.6,291.2z"></path><path class="st1" d="M202.3,298.7c0.4,1.2,0.6,2.5,0.8,3.8c0.2,1.2,0.2,2.5,0.2,3.8c0,1.3-0.1,2.5-0.2,3.8
		c-0.1,1.3-0.4,2.5-0.8,3.8c-0.4-1.2-0.7-2.5-0.8-3.8c-0.3-2.5-0.3-5,0-7.5C201.6,301.2,201.9,299.9,202.3,298.7z"></path><path class="st1" d="M194.8,306.2c1.2-0.4,2.5-0.7,3.8-0.8c2.5-0.3,5-0.3,7.5,0c1.3,0.1,2.5,0.4,3.8,0.8c-1.2,0.4-2.5,0.7-3.8,0.8
		c-1.2,0.1-2.5,0.2-3.8,0.2c-1.3,0-2.5-0.1-3.8-0.2C197.2,306.9,196,306.6,194.8,306.2z"></path><path class="st2" d="M278.5,318.3c-0.1-3.5,0-6.9,0.1-10.4s0.4-6.9,0.7-10.4s0.6-6.9,1.1-10.3s0.9-6.9,1.5-10.3
		c0.2,3.5,0.2,6.9,0,10.4c-0.1,3.5-0.4,6.9-0.6,10.4s-0.6,6.9-1.1,10.3S279.2,314.9,278.5,318.3z"></path></g></svg>