<svg transform="scale(1)" version="1.1" id="Layer_1" xmlns="http://www.w3.org/2000/svg" xmlns:xlink="http://www.w3.org/1999/xlink" x="0px" y="0px" viewBox="0 0 500 500" xml:space="preserve" class="show_show__wrapper__graphic__5Waiy "><title>React</title><style type="text/css">
	.st0{fill:#000001;}
	.st1{fill:#EA8383;}
	.st2{fill:#A04040;}
	.st3{fill:#F3CB5C;}
	.st4{fill:#FFFFFF;}
	.st5{fill:#0e8551;}
	.st6{clip-path:url(#SVGID_2_);}
	.st7{fill:#87CCDB;}
	.st8{fill:#F2EBEB;}
</style><g id="character"><g id="character-2"><path class="st0" d="M311.1,164.4c32.5,40.3,110.3,153.4,81.5,165.9c-24.5,10.6-92.7-2.2-140.7-1.7l-27.6,1.4
			c-29.8,2.6-83.2,13-113.1,0c-32-13.9,65.3-148,83.6-170.8c0,0,25.2-29.5,41.3,14.2l34.4-6.8C270.6,166.5,289.8,134.3,311.1,164.4z
			"></path><path class="st1" d="M273.7,184.2V247c0,0-12,20.5-16.9,23.5s-18.2-27.3-18.2-27.3l2.2-56.6L273.7,184.2z"></path><polygon class="st0" points="239.1,231.2 273.7,227.5 273.7,184.2 239.1,184.2 		"></polygon><path class="st1" d="M284.5,139.6c0,0,4.7-10.4,11.9-8.2s-0.5,27.7-10,25.6S284.5,139.6,284.5,139.6z"></path><path class="st1" d="M222.4,137.8c0,0-3.8-10.4-9.5-8.2s0.4,27.7,8,25.6S222.4,137.8,222.4,137.8z"></path><path class="st2" d="M254.2,221.7c0,0,9.4,11.6,17.3-2.9c12.3-22.8,16.1-34.6,17.4-82.2c0.7-25.7,4.1-42.9-2.9-52.3
			S258,72.1,258,72.1s-25.3-34.2-47.3-22.9s9.3,45.4,9.3,45.4s-2,30.9-0.6,38.7C219.3,133.3,221.4,237.7,254.2,221.7z"></path><path class="st1" d="M224,107.6c0,0-1.6,20.4-1.6,38.9s3.2,19.1,10.1,16.2s11.4-6.8,14.7-6.8l10.8,0.3c5.2,0.6,10.2,2.4,14.7,5.1
			c5.9,3.5,10.4,5.4,11.9,1.7s2.8-32.8-0.9-43.1s-7.2-16.6-7.2-22.6C276.5,97.3,240.1,116.4,224,107.6z"></path><path class="st0" d="M273.5,170.5c0.6,0.9,0.9,2,0.6,3c-0.2,1.1-0.9,2.1-1.7,2.7c-0.8,0.6-1.8,1-2.9,1.1c-0.5,0-1,0-1.5,0
			c-0.5-0.1-1-0.2-1.4-0.4c0.4-0.3,0.8-0.5,1.2-0.8c0.4-0.2,0.8-0.5,1.1-0.6c0.7-0.4,1.3-0.8,1.9-1.2
			C272.2,173.4,273.1,172,273.5,170.5z"></path><path class="st2" d="M265,129.1c0.9-1.2,2.1-2.2,3.4-2.9c1.4-0.7,2.8-1.2,4.4-1.3c1.6-0.1,3.2,0.2,4.6,0.9
			c1.4,0.7,2.5,1.9,3.1,3.3c-1.2-0.7-2.5-1.2-3.8-1.6c-1.2-0.2-2.5-0.3-3.7-0.2C270.3,127.8,267.6,128.4,265,129.1z"></path><path class="st2" d="M242.3,119.5c-2.4-0.8-4.8-1.4-7.3-1.8c-1.1-0.1-2.3,0-3.4,0.2c-1.2,0.4-2.4,0.9-3.4,1.5
			c0.5-1.4,1.4-2.6,2.7-3.3c1.3-0.7,2.8-1.1,4.4-0.9c1.4,0.2,2.8,0.6,4.1,1.4C240.5,117.4,241.5,118.4,242.3,119.5z"></path><path class="st2" d="M194.8,62.7c1.3,3.5,2.8,7,4.6,10.3c1.7,3.3,3.7,6.4,6,9.4c4.6,5.8,10.2,10.8,17,13.6c3.4,1.4,7,2.1,10.6,2.3
			l1.4,0.1c0.5,0,0.9,0,1.4,0c0.9,0,1.8,0,2.7-0.1c1.9-0.2,3.7-0.5,5.5-0.9c7.3-1.7,14.3-4.4,20.9-8.1c-6.1,4.5-13.1,7.9-20.4,9.9
			c-11.4,3.5-23.9,0.8-32.8-7.2c-2.9-2.5-5.5-5.4-7.7-8.6C199.6,77.2,196.5,70.1,194.8,62.7z"></path><path class="st3" d="M237.1,153.5h-0.6c-7.8-0.3-15.9-5.5-19.3-12.4c-5.8-11.9,5.5-20.2,5.6-20.3l0.1-0.1c7.5-4.2,15.7-2.8,22,3.7
			s8.4,15.8,4.7,22C247.2,150.9,242.3,153.6,237.1,153.5z M224.2,122.8c-0.9,0.6-9.5,7.4-4.8,17.2c3.4,6.4,9.9,10.6,17.1,11
			c4.5,0.3,8.8-2,11-5.9c3-5.3,1.2-13.5-4.4-19.1S230.6,119.2,224.2,122.8z"></path><path class="st3" d="M271.2,154c-3.3,0.1-6.5-1.1-8.9-3.3c-4.1-3.7-5.6-9.1-4.4-15.3c1.6-8,7.6-15.3,14.5-17.7
			c12.2-4.3,18.1,9,18.2,9.1l0,0.1c3.5,11.1-2.6,19.8-8.9,23.8C278.6,152.8,274.9,153.9,271.2,154z M277,119.3
			c-1.3,0-2.6,0.2-3.9,0.7c-6,2.1-11.5,8.8-12.9,15.9c-1.1,5.3,0.2,9.9,3.7,13c4,3.6,10.6,3.5,16.5-0.3c5.5-3.5,10.9-11.1,7.9-20.9
			C287.9,126.9,284.2,119.3,277,119.3z"></path><rect class="st3" x="249.9" y="134.2" width="8.8" height="2.4"></rect><path class="st4" d="M284.8,133.9c0,0-15.9-6.8-22.5,6.7c-0.5,1,0,2.2,0.9,2.7c0.1,0,0.1,0.1,0.2,0.1
			C268.4,144.6,280.7,146.7,284.8,133.9z"></path><path class="st0" d="M285.7,133.8c-2.3-0.6-4.6-1-7-1.1c-2.3-0.2-4.6,0-6.9,0.6c-2.2,0.6-4.3,1.6-6,3.1c-1.7,1.5-3.1,3.5-4,5.6
			c0.5-2.4,1.6-4.6,3.4-6.3c1.8-1.7,4-3,6.4-3.6c2.4-0.6,4.8-0.7,7.3-0.3C281.2,132,283.5,132.7,285.7,133.8z"></path><path class="st4" d="M223.2,133.9c0,0,15.9-6.8,22.4,6.7c0.5,1,0,2.2-0.9,2.7c-0.1,0-0.1,0.1-0.2,0.1
			C239.7,144.7,227.4,146.8,223.2,133.9z"></path><path class="st0" d="M222.4,133.9c2.2-1.1,4.5-1.8,6.9-2.1c2.4-0.4,4.9-0.2,7.3,0.3c2.4,0.6,4.6,1.8,6.4,3.6
			c1.7,1.7,2.9,3.9,3.4,6.3c-0.9-2.2-2.2-4.1-4-5.6c-1.7-1.5-3.8-2.5-6-3.1c-2.2-0.5-4.6-0.7-6.9-0.6
			C227,132.9,224.7,133.3,222.4,133.9z"></path><path class="st0" d="M281.4,140c0,0,1.2-6.5-4.8-7.1s-10.4,5.3-5.8,11.6C270.8,144.4,278.3,145.3,281.4,140z"></path><path class="st0" d="M232.6,143.7c0,0-3.3-10.7,4.1-10.2c11,0.7,7.3,10,7.3,10S237.9,146.8,232.6,143.7z"></path><polyline class="st1" points="252.9,136.4 232.6,158.1 259.2,155.8 		"></polyline><path class="st0" d="M253,136.4c-1.5,2-3.1,3.9-4.6,5.9s-3.2,3.8-4.8,5.7s-3.3,3.7-5,5.6s-3.3,3.7-5.1,5.4l-1-2
			c4.4-0.4,8.9-0.7,13.3-0.9c2.2-0.1,4.4-0.2,6.7-0.2s4.5-0.1,6.7,0c-2.2,0.4-4.4,0.8-6.6,1.1s-4.4,0.7-6.6,0.9
			c-4.4,0.6-8.8,1-13.3,1.5l-3.1,0.3l2.1-2.3c1.7-1.8,3.4-3.6,5.1-5.4s3.5-3.6,5.2-5.3s3.6-3.5,5.4-5.2S251,138,253,136.4z"></path></g><g id="device"><path class="st5" d="M147.8,340.9c0,0-39.4-134.6-30.7-140.8s262.7-12.2,267.1-2.6s-17.5,143.3-17.5,143.3H147.8z"></path><g><defs><path id="SVGID_1_" d="M147.8,340.9c0,0-39.4-134.6-30.7-140.8s262.7-12.2,267.1-2.6s-17.5,143.3-17.5,143.3H147.8z"></path></defs><clipPath id="SVGID_2_"><use xlink:href="#SVGID_1_" style="overflow: visible;"></use></clipPath><g class="st6"><path class="st4" d="M433.6,528.2c-0.3,0-0.6-0.2-0.6-0.5L416.7,73.4c0-0.3,0.2-0.6,0.5-0.6c0.3,0,0.6,0.2,0.6,0.5c0,0,0,0,0,0
					l16.3,454.2C434.2,527.9,433.9,528.2,433.6,528.2L433.6,528.2z"></path><path class="st4" d="M389.9,528.2c-0.3,0-0.6-0.3-0.6-0.6l0,0l-5.1-453.4c0-0.3,0.2-0.6,0.6-0.6c0,0,0,0,0,0l0,0
					c0.3,0,0.6,0.2,0.6,0.5c0,0,0,0,0,0l5.1,453.4C390.5,527.9,390.2,528.2,389.9,528.2C389.9,528.2,389.9,528.2,389.9,528.2
					L389.9,528.2z"></path><path class="st4" d="M349.3,528.2c-0.3,0-0.6-0.3-0.6-0.6l0,0V74.3c0-0.3,0.3-0.6,0.6-0.6s0.6,0.3,0.6,0.6l0,0v453.4
					C349.9,527.9,349.6,528.2,349.3,528.2L349.3,528.2z"></path><path class="st4" d="M310.7,528.2L310.7,528.2c-0.3,0-0.6-0.3-0.6-0.6c0,0,0,0,0,0L314,74.1c0-0.3,0.3-0.6,0.6-0.6l0,0
					c0.3,0,0.6,0.3,0.6,0.6l-3.8,453.6C311.3,527.9,311.1,528.2,310.7,528.2C310.8,528.2,310.7,528.2,310.7,528.2z"></path><path class="st4" d="M269.1,528.2L269.1,528.2c-0.3,0-0.6-0.3-0.6-0.6c0,0,0,0,0,0l16.2-453.4c0-0.3,0.3-0.5,0.6-0.6
					c0.3,0,0.6,0.3,0.5,0.6l-16.2,453.4C269.7,528,269.4,528.2,269.1,528.2z"></path><path class="st4" d="M233.8,528.3L233.8,528.3c-0.3,0-0.6-0.3-0.6-0.6l20.1-453.4c0-0.3,0.3-0.5,0.6-0.5c0,0,0,0,0,0
					c0.3,0,0.6,0.3,0.5,0.6l-20.1,453.4C234.3,528.1,234.1,528.3,233.8,528.3z"></path><path class="st4" d="M211.5,528.3L211.5,528.3c-0.3,0-0.6-0.3-0.5-0.6c0,0,0,0,0,0l22.3-453.4c0-0.3,0.3-0.6,0.6-0.5
					c0,0,0,0,0,0c0.3,0,0.6,0.3,0.5,0.6c0,0,0,0,0,0L212,527.8C212,528,211.8,528.3,211.5,528.3z"></path><path class="st4" d="M192.2,528.3L192.2,528.3c-0.3,0-0.6-0.3-0.6-0.6c0,0,0,0,0,0l16.2-453.4c0-0.3,0.3-0.5,0.6-0.6
					c0.3,0,0.6,0.3,0.6,0.6c0,0,0,0,0,0l-16.2,453.4C192.7,528,192.5,528.3,192.2,528.3z"></path><path class="st4" d="M559,190.1H35.4c-0.3,0-0.6-0.2-0.6-0.5c0,0,0,0,0,0c0-0.3,0.3-0.6,0.6-0.6c0,0,0,0,0,0H559
					c0.3,0,0.6,0.3,0.6,0.6C559.6,189.8,559.3,190.1,559,190.1L559,190.1z"></path><path class="st4" d="M41.5,171.6c-0.3,0-0.6-0.3-0.6-0.6c0-0.3,0.3-0.6,0.6-0.6c0,0,0,0,0,0l516.8-4.7l0,0
					c0.3,0,0.6,0.3,0.6,0.6c0,0.3-0.3,0.6-0.6,0.6c0,0,0,0,0,0L41.5,171.6L41.5,171.6z"></path><path class="st4" d="M558.2,141.5h-400c-0.3,0-0.5-0.3-0.5-0.7c0-0.3,0.2-0.5,0.5-0.5h400c0.3,0,0.5,0.3,0.5,0.7
					C558.7,141.3,558.5,141.5,558.2,141.5z"></path><path class="st4" d="M558.4,116.7L558.4,116.7l-400.2-2.7c-0.3,0-0.6-0.3-0.6-0.6c0-0.3,0.3-0.6,0.6-0.6c0,0,0,0,0,0l0,0
					l400.2,2.7c0.3,0,0.6,0.3,0.6,0.6C559,116.4,558.7,116.7,558.4,116.7z"></path><path class="st4" d="M558.2,95.8L558.2,95.8l-400-11.6c-0.3,0-0.6-0.3-0.6-0.6c0-0.3,0.3-0.6,0.6-0.6l400,11.6
					c0.3,0,0.6,0.3,0.6,0.6C558.8,95.5,558.6,95.8,558.2,95.8L558.2,95.8z"></path><path class="st4" d="M558.1,73.4L558.1,73.4L158.1,59c-0.3,0-0.6-0.3-0.6-0.6c0-0.3,0.3-0.5,0.6-0.5l400,14.4
					c0.3,0,0.6,0.3,0.6,0.6c0,0,0,0,0,0C558.7,73.1,558.4,73.4,558.1,73.4z"></path><path class="st4" d="M558.1,59L558.1,59l-400-16c-0.3,0-0.6-0.3-0.6-0.6c0-0.3,0.3-0.6,0.6-0.6c0,0,0,0,0,0l400,16
					c0.3,0,0.5,0.3,0.5,0.7C558.6,58.8,558.4,59,558.1,59L558.1,59z"></path><path class="st4" d="M558.1,40.8L558.1,40.8l-400-11.6c-0.3,0-0.6-0.3-0.6-0.6c0,0,0,0,0,0c0-0.3,0.2-0.6,0.5-0.6c0,0,0,0,0,0
					l400,11.6c0.3,0,0.6,0.3,0.5,0.6C558.7,40.6,558.5,40.9,558.1,40.8C558.1,40.9,558.1,40.8,558.1,40.8z"></path><path class="st4" d="M-74.7,294.9c-0.3,0-0.6-0.2-0.6-0.6c0-0.3,0.2-0.6,0.5-0.6c0,0,0,0,0,0l658.8-11.6c0.3,0,0.6,0.2,0.6,0.6
					c0,0.3-0.2,0.6-0.6,0.6c0,0,0,0,0,0L-74.7,294.9L-74.7,294.9z"></path><path class="st4" d="M-74.7,263.7c-0.3,0-0.6-0.3-0.6-0.6l0,0c0-0.3,0.3-0.6,0.6-0.6h0l657.5-3.6l0,0c0.3,0,0.5,0.3,0.5,0.7
					c0,0.3-0.2,0.5-0.5,0.5L-74.7,263.7L-74.7,263.7z"></path><path class="st4" d="M582.9,234.7H-74.7c-0.3,0-0.6-0.3-0.6-0.6l0,0c0-0.3,0.3-0.6,0.6-0.6h657.5c0.3,0,0.6,0.3,0.6,0.6v0
					C583.4,234.4,583.2,234.7,582.9,234.7C582.9,234.7,582.9,234.7,582.9,234.7z"></path><path class="st4" d="M583.2,209.9L583.2,209.9l-657.8-2.7c-0.3,0-0.6-0.3-0.6-0.6c0-0.3,0.2-0.6,0.5-0.6c0,0,0,0,0,0l657.8,2.7
					c0.3,0,0.6,0.3,0.6,0.6C583.7,209.6,583.5,209.9,583.2,209.9z"></path><path class="st4" d="M582.9,189L582.9,189l-657.5-11.6c-0.3,0-0.6-0.3-0.6-0.6c0,0,0,0,0,0c0-0.3,0.3-0.5,0.6-0.6l657.5,11.6
					c0.3,0,0.5,0.3,0.5,0.7C583.3,188.8,583.1,189,582.9,189L582.9,189z"></path><path class="st4" d="M582.7,166.6L582.7,166.6l-657.5-14.4c-0.3,0-0.6-0.3-0.6-0.6c0,0,0,0,0,0c0-0.3,0.3-0.6,0.6-0.6
					c0,0,0,0,0,0l657.5,14.4c0.3,0,0.5,0.3,0.5,0.7C583.2,166.4,583,166.6,582.7,166.6L582.7,166.6z"></path><path class="st4" d="M582.7,152.2L582.7,152.2l-657.5-15.9c-0.3,0-0.6-0.3-0.6-0.6c0,0,0,0,0,0c0-0.3,0.3-0.6,0.6-0.6l657.5,16
					c0.3,0,0.6,0.3,0.5,0.6C583.3,152,583,152.2,582.7,152.2z"></path><path class="st4" d="M582.7,134.1L582.7,134.1l-657.5-11.6c-0.3,0-0.6-0.3-0.6-0.6c0-0.3,0.3-0.6,0.6-0.6l657.5,11.6
					c0.3,0,0.6,0.3,0.6,0.6c0,0,0,0,0,0C583.3,133.8,583,134.1,582.7,134.1C582.7,134.1,582.7,134.1,582.7,134.1z"></path><path class="st4" d="M183.6,462.8c-0.3,0-0.6-0.2-0.6-0.5L166.8,88c0-0.3,0.3-0.6,0.6-0.6c0.3,0,0.6,0.3,0.6,0.6c0,0,0,0,0,0
					l16.3,374.2C184.2,462.6,184,462.8,183.6,462.8c0,0.1,0,0.1,0,0.1L183.6,462.8z"></path><path class="st4" d="M140,462.8c-0.3,0-0.6-0.2-0.6-0.6l-5.1-373.5c0-0.3,0.2-0.6,0.6-0.6c0,0,0,0,0,0l0,0
					c0.3,0,0.6,0.2,0.6,0.5c0,0,0,0,0,0l5.1,373.5C140.5,462.5,140.3,462.7,140,462.8C140,462.7,140,462.7,140,462.8L140,462.8z"></path><path class="st4" d="M99.4,462.8c-0.3,0-0.6-0.3-0.6-0.6l0,0V88.7c0-0.3,0.3-0.6,0.6-0.6c0.3,0,0.6,0.3,0.6,0.6v373.5
					C99.9,462.5,99.7,462.8,99.4,462.8L99.4,462.8z"></path><path class="st4" d="M60.8,462.8L60.8,462.8c-0.3,0-0.6-0.3-0.6-0.6c0,0,0,0,0,0L64,88.5c0-0.3,0.2-0.6,0.5-0.6c0,0,0,0,0.1,0
					c0.3,0,0.6,0.3,0.6,0.6c0,0,0,0,0,0l-3.8,373.7C61.4,462.5,61.1,462.8,60.8,462.8C60.8,462.8,60.8,462.8,60.8,462.8z"></path><path class="st4" d="M19.2,462.8L19.2,462.8c-0.3,0-0.6-0.3-0.5-0.6c0,0,0,0,0,0L34.8,88.6c0-0.3,0.3-0.6,0.6-0.6c0,0,0,0,0,0
					c0.3,0,0.6,0.3,0.6,0.6c0,0,0,0,0,0L19.7,462.2C19.7,462.5,19.5,462.8,19.2,462.8z"></path><path class="st4" d="M-16.1,462.8L-16.1,462.8c-0.3,0-0.6-0.3-0.5-0.6L3.4,88.7c0-0.3,0.2-0.5,0.5-0.5c0,0,0,0,0.1,0
					c0.3,0,0.6,0.3,0.5,0.6c0,0,0,0,0,0l-20.1,373.5C-15.6,462.6-15.8,462.8-16.1,462.8z"></path><path class="st4" d="M-62.2,478.5c-0.3,0-0.6-0.2-0.6-0.6c0-0.3,0.2-0.6,0.6-0.6c0,0,0,0,0,0l658.8-11.6c0.3,0,0.6,0.2,0.6,0.5
					c0,0,0,0,0,0.1c0,0.3-0.2,0.6-0.6,0.6c0,0,0,0,0,0L-62.2,478.5L-62.2,478.5z"></path><path class="st4" d="M-62.2,447.2c-0.3,0-0.6-0.3-0.6-0.6l0,0c0-0.3,0.3-0.6,0.6-0.6c0,0,0,0,0,0l657.5-3.6l0,0
					c0.3,0,0.5,0.3,0.5,0.7c0,0.3-0.2,0.5-0.5,0.5L-62.2,447.2L-62.2,447.2z"></path><path class="st4" d="M595.3,418.2H-62.2c-0.3,0-0.6-0.3-0.6-0.6l0,0c0-0.3,0.3-0.6,0.6-0.6h657.5c0.3,0,0.6,0.3,0.6,0.6
					C595.9,418,595.7,418.2,595.3,418.2L595.3,418.2z"></path><path class="st4" d="M595.6,393.4L595.6,393.4l-657.8-2.7c-0.3,0-0.6-0.3-0.6-0.6c0-0.3,0.3-0.6,0.6-0.6l0,0l657.8,2.7
					c0.3,0,0.5,0.3,0.5,0.7C596.1,393.2,595.9,393.4,595.6,393.4L595.6,393.4z"></path><path class="st4" d="M595.3,372.5L595.3,372.5L-62.2,361c-0.3,0-0.6-0.3-0.6-0.6c0,0,0,0,0,0c0-0.3,0.3-0.5,0.6-0.6l657.5,11.5
					c0.3,0,0.6,0.3,0.6,0.6C595.9,372.3,595.7,372.6,595.3,372.5z"></path><path class="st4" d="M595.2,350.1L595.2,350.1l-657.5-14.4c-0.3,0-0.6-0.3-0.6-0.6c0-0.3,0.3-0.6,0.6-0.6L595.2,349
					c0.3,0,0.5,0.3,0.5,0.7C595.7,349.9,595.5,350.1,595.2,350.1L595.2,350.1z"></path><path class="st4" d="M595.2,335.7L595.2,335.7l-657.5-16c-0.3,0-0.6-0.3-0.6-0.6c0,0,0,0,0,0c0-0.3,0.3-0.5,0.6-0.5l657.5,16
					c0.3,0,0.6,0.3,0.6,0.6C595.8,335.4,595.6,335.7,595.2,335.7C595.2,335.7,595.2,335.7,595.2,335.7z"></path><path class="st4" d="M595.2,317.6L595.2,317.6L-62.3,306c-0.3,0-0.6-0.3-0.6-0.6c0-0.3,0.3-0.6,0.6-0.6l0,0l657.5,11.6
					c0.3,0,0.6,0.3,0.6,0.6C595.8,317.3,595.5,317.6,595.2,317.6z"></path></g></g><path class="st4" d="M254.6,280.6l12.5-15.5c0,0,5.4,9.4,0,15.5S254.6,280.6,254.6,280.6z"></path></g></g><g id="pencil-case"><path class="st0" d="M462.9,259.7c-10.8-8.6-16.9,11.1-16.9,11.1c-2-15.6-19.7-23.3-19.7-6.1s15.8,24.4,15.8,24.4
		c-7.8,5-6.7,31.9-6.7,31.9l4.6-0.5c0,0-2.9-14.4,0-22.2s6.1-7.8,6.1-7.8c3.8,7.8,3.8,26.4,3.8,26.4s-2.5,10.8,1.7,1.9
		s-4.2-29.7-4.2-29.7C452.6,289.2,473.7,268.3,462.9,259.7z M435.1,264.2c5.5-0.8,8.3,21.1,8.3,21.1
		C435.4,283.3,429.6,265,435.1,264.2L435.1,264.2z M447.6,285.3c-1.7-9.6,7.8-23,11.1-18S447.6,285.3,447.6,285.3L447.6,285.3z"></path><polygon class="st5" points="460.8,314 465.9,293.1 460.8,290.5 453.3,314 	"></polygon><polygon class="st1" points="465.9,284.3 460.8,290.5 465.9,293.1 	"></polygon><path class="st5" d="M464.1,286.6l1.9,0.8c0,0,1-3.9,0-3.4S464.1,286.6,464.1,286.6z"></path><path class="st3" d="M421.4,314c0,0-10.4-39.7-10.4-41.6s9.4-3.7,9.4-3.7L433,314H421.4z"></path><rect class="st1" x="421.5" y="269" transform="matrix(0.9588 -0.2842 0.2842 0.9588 -65.5812 131.9607)" width="1" height="45.9"></rect><polygon class="st7" points="424.4,382.9 413,314 467.1,314 460,380.6 	"></polygon></g><g id="coffee"><polygon class="st1" points="32.9,318.2 90.8,318.2 78.1,370.3 47.1,370.3 	"></polygon><path class="st1" d="M77.3,349.8c4-0.6,7.9-1.1,11.6-2c1.8-0.4,3.5-0.9,5.2-1.7c1.3-0.5,2.4-1.4,3.1-2.7c0.2-0.6,0.3-1.2,0.2-1.8
		c0-0.7-0.2-1.3-0.6-1.9c-0.9-1.3-2.1-2.3-3.5-2.9c-3.3-1.4-7.2-2-11.2-2.6c4-1.4,8.3-1.7,12.4-0.8c2.4,0.5,4.5,1.9,6,3.9
		c0.7,1.1,1.2,2.3,1.4,3.6c0.3,1.4,0.1,2.8-0.4,4.1c-1.1,2.4-3.1,4.2-5.7,5c-2,0.7-4.2,1.1-6.3,1.2
		C85.3,351.6,81.2,351.1,77.3,349.8z"></path><path class="st0" d="M32.9,318.2c0,0,54.3-3.2,58,0C90.8,318.2,62,333.5,32.9,318.2z"></path><path class="st7" d="M63.3,266.6c-3.4,1.5-6.5,3.5-9.1,6.1c-2.6,2.4-4.2,5.7-4.5,9.2c-0.1,0.9,0,1.7,0.1,2.6
		c0.1,0.9,0.3,1.7,0.5,2.7l0.2,1.4l0.1,1.4c0.1,1,0.1,1.9,0.1,2.9c0,2-0.5,3.9-1.4,5.7c-0.8,1.8-2.5,3.1-4.4,3.5
		c0.8-0.4,1.6-0.9,2.1-1.6c0.3-0.3,0.5-0.7,0.8-1.1c0.2-0.4,0.4-0.8,0.5-1.2c0.6-1.7,0.8-3.5,0.7-5.3c-0.1-0.9-0.1-1.8-0.3-2.7
		l-0.2-1.3l-0.3-1.3l-0.3-1.4c-0.1-0.5-0.2-1-0.3-1.5c-0.1-1-0.2-2-0.1-3c0.1-2,0.7-4,1.7-5.7c1-1.7,2.2-3.3,3.7-4.5
		C56,269.1,59.5,267.4,63.3,266.6z"></path><path class="st7" d="M72.5,272.7c-3.4,1.5-6.5,3.5-9.1,6.1c-2.6,2.4-4.2,5.7-4.5,9.2c-0.1,0.9,0,1.7,0.1,2.6
		c0.1,0.9,0.3,1.7,0.5,2.7l0.2,1.4l0.1,1.4c0.1,1,0.1,1.9,0.1,2.9c0,2-0.5,3.9-1.4,5.7c-0.8,1.8-2.5,3.1-4.4,3.5
		c0.9-0.3,1.6-0.9,2.2-1.6c0.3-0.3,0.5-0.7,0.8-1.1c0.2-0.4,0.4-0.8,0.5-1.2c0.6-1.7,0.8-3.5,0.7-5.3c-0.1-0.9-0.1-1.8-0.3-2.7
		l-0.2-1.4l-0.3-1.3l-0.3-1.4c-0.1-0.5-0.2-1-0.3-1.5c-0.1-1-0.2-2-0.1-3c0.1-2,0.7-4,1.7-5.7c1-1.7,2.2-3.3,3.8-4.5
		C65.2,275.2,68.7,273.5,72.5,272.7z"></path></g><g id="palette-2"><path class="st8" d="M171.8,402c0,1.4,11.7,14,9.9,18S58.8,439.8,57,437.6s10.4-23,13.5-24.8S171.8,402,171.8,402z"></path><path class="st3" d="M133.2,410.6l23.5-2.8l1.4,11c0,0-22.1,4.2-23.8,3.5S133.2,410.6,133.2,410.6z"></path><path class="st3" d="M75.4,417.5c0,0-4.1,13.1-2.1,13.5s25.9-1,26.2-3.8s0.3-11.4,0.3-11.4L75.4,417.5z"></path><path class="st3" d="M104.7,415l23.5-2.8l1.4,11c0,0-22.1,4.1-23.8,3.5S104.7,415,104.7,415z"></path><path class="st8" d="M183.8,409.5c0,0-125.9,5.5-126.6,3.8s17.6-17.9,20.7-19s94.5-2.8,97-1.7S183.8,409.5,183.8,409.5z"></path><path class="st7" d="M72.5,407.3c0,0,5.2-8.6,8.3-8.6h22.8c0,0-2.1,8.3-5.2,9.3S72.5,407.3,72.5,407.3z"></path><path class="st7" d="M107.1,398.6c0,0,22.2-1,23.5-0.7s0.6,8.6-0.3,8.6s-24.9,1.7-24.9,0S107.1,398.6,107.1,398.6z"></path><path class="st4" d="M168.9,398.7c0,0-4.7,1-1.7,4.2s6.4,0.5,6.4-1.5S169.6,399,168.9,398.7z"></path><path class="st0" d="M67.5,413.6c19.2-1.2,38.4-1.9,57.6-2.5c9.6-0.3,19.2-0.5,28.8-0.7l14.4-0.3l7.2-0.1l3.6-0.1
		c1.2,0,2.4-0.1,3.6-0.3c-2.4,0.5-4.7,0.8-7.1,0.9l-7.2,0.6c-4.8,0.3-9.6,0.6-14.4,0.9c-9.6,0.5-19.2,0.9-28.8,1.1
		s-19.2,0.5-28.8,0.6S77.1,413.8,67.5,413.6z"></path><path class="st7" d="M135.9,398.2c0,0,22.2-1,23.6-0.7s0.6,8.6-0.3,8.6s-24.9,1.7-24.9,0S135.9,398.2,135.9,398.2z"></path></g><g id="palette-1"><path class="st8" d="M231.6,369.1c0,0,68.4-3,74.3-3s58.1,78,57.4,83.2s-128.8,4.4-134,2.2S228,373.5,231.6,369.1z"></path><path class="st5" d="M281.8,403.7c5-5.4,13.2-6.8,13.2-6.8c3.2-0.4,6.3-0.4,9.5-0.2c0.8-10.1-6.3-21.3-28.7-18.8
		c0,0-20.4,3.3-16.4,20.5C270.4,397.4,277.5,399.8,281.8,403.7z"></path><path class="st1" d="M279.6,420.5c-0.8-2.1-1.3-4.4-1.4-6.7c-7.6-0.5-14.7-4.1-17.8-12.4c-0.4-1-0.7-2-0.9-3
		c-0.4,0-0.8,0.1-1.2,0.1c0,0-22.8,3.7-15.4,23.5c6.6,17.9,32.2,13.7,40.6,4.6C281.7,424.9,280.4,422.8,279.6,420.5z"></path><path class="st3" d="M278.1,413.8c-0.2-3.7,1.1-7.4,3.6-10.1c-4.3-3.9-11.4-6.2-22.3-5.3c0.2,1,0.5,2,0.9,3
		C263.4,409.7,270.5,413.3,278.1,413.8z"></path><path class="st7" d="M304.5,396.7c-0.2,2.1-0.7,4.2-1.5,6.2c-2,4.7-8.6,8.7-16.2,10.3c0.5,3.5,0,7.1-1.3,10.4
		c-0.5,1.2-1.2,2.3-2.1,3.2c10.9,11.7,34.9,4.9,38.9-4.8C326.2,412.5,323.3,398.3,304.5,396.7z"></path><path class="st3" d="M295,396.9c0,0-8.3,1.3-13.2,6.8c2.7,2.5,4.5,5.9,5,9.5c7.6-1.5,14.3-5.6,16.2-10.3c0.8-2,1.3-4.1,1.5-6.2
		C301.3,396.5,298.1,396.5,295,396.9z"></path><path class="st0" d="M286.8,413.2c-2.9,0.6-5.8,0.8-8.7,0.6c0.1,2.3,0.6,4.5,1.4,6.7c0.8,2.3,2.1,4.4,3.8,6.2
		c0.9-0.9,1.6-2,2.1-3.2C286.8,420.3,287.3,416.7,286.8,413.2z"></path><path class="st0" d="M281.8,403.7c-2.6,2.7-3.9,6.4-3.6,10.1c2.9,0.2,5.8,0,8.7-0.6C286.3,409.5,284.5,406.1,281.8,403.7z"></path></g></svg>